<?xml version="1.0" encoding="utf-8"?>
<!-- Generator: Adobe Illustrator 20.0.0, SVG Export Plug-In . SVG Version: 6.00 Build 0)  -->
<svg version="1.1" id="Head_x5F_lines" xmlns="http://www.w3.org/2000/svg" xmlns:xlink="http://www.w3.org/1999/xlink" x="0px"
	 y="0px" viewBox="0 0 260.3 229.6" style="enable-background:new 0 0 260.3 229.6;" xml:space="preserve">
<style type="text/css">
	.st0{fill:#36C1F9;}
	.st1{fill:#FFFFFF;}
</style>
<g id="Line_x5F_5_1_">
	<path id="Line_x5F_5" class="st0" d="M121.4,202.3H12.5c-1.2-1.9-3.3-3.2-5.7-3.2c-3.7,0-6.7,3-6.7,6.7s3,6.7,6.7,6.7
		c2.4,0,4.6-1.3,5.7-3.2h108.9V202.3z M6.5,205.8c0-0.1,0.1-0.3,0.3-0.3c0.1,0,0.3,0.1,0.3,0.3C7,206.1,6.5,206.1,6.5,205.8z"/>
</g>
<g id="Line_x5F_4_1_">
	<path id="Line_x5F_4" class="st0" d="M67.4,157.7H12.5c-1.2-1.9-3.3-3.2-5.7-3.2c-3.7,0-6.7,3-6.7,6.7c0,3.7,3,6.7,6.7,6.7
		c2.4,0,4.6-1.3,5.7-3.2h54.9V157.7z M6.5,161.2c0-0.1,0.1-0.3,0.3-0.3c0.1,0,0.3,0.1,0.3,0.3C7,161.5,6.5,161.5,6.5,161.2z"/>
</g>
<g id="Line_x5F_3">
	<path id="Line_x5F_3_1_" class="st0" d="M48.2,113.1H12.5c-1.2-2-3.3-3.3-5.8-3.3c-3.7,0-6.7,3-6.7,6.7c0,3.7,3,6.7,6.7,6.7
		c2.4,0,4.5-1.3,5.7-3.1h35.7V113.1z M6.5,116.6c0-0.1,0.1-0.3,0.3-0.3c0.1,0,0.3,0.1,0.3,0.3C7,116.8,6.5,116.8,6.5,116.6z"/>
</g>
<g id="Line_x5F_2">
	<path id="Line_x5F_2_1_" class="st0" d="M64.1,68.6H12.6c-1.2-2-3.4-3.4-5.9-3.4c-3.7,0-6.7,3-6.7,6.7c0,3.7,3,6.7,6.7,6.7
		c2.4,0,4.4-1.2,5.6-3.1h51.8V68.6z M6.5,71.9c0-0.1,0.1-0.3,0.3-0.3c0.1,0,0.3,0.1,0.3,0.3C7,72.2,6.5,72.2,6.5,71.9z"/>
</g>
<g id="Line_x5F_1">
	<path id="Line_x5F_1_1_" class="st0" d="M78.9,23.8H12.5c-1.2-1.9-3.3-3.2-5.7-3.2c-3.7,0-6.7,3-6.7,6.7c0,3.7,3,6.7,6.7,6.7
		c2.4,0,4.6-1.3,5.7-3.2h66.4V23.8z M6.5,27.3c0-0.1,0.1-0.3,0.3-0.3c0.1,0,0.3,0.1,0.3,0.3C7,27.6,6.5,27.6,6.5,27.3z"/>
</g>
<g id="Head">
	<circle class="st1" cx="116.1" cy="76.2" r="5.3"/>
	<path class="st1" d="M237.4,149.1c14.8-16.4,22.9-37.6,22.9-59.7c0-20.6-7.2-40.7-20.2-56.6C227.3,17.1,209.3,6.2,189.6,2
		c-0.1,0-0.2-0.1-0.3-0.1L188,1.6l0,0c-5.6-1.1-11.3-1.6-17-1.6c-19.5,0-38.1,6.2-53.7,17.9c-2.5,1.8-4.8,3.8-7,5.9H92.9v7h10.5
		C95.4,40.2,89.2,51.2,85.5,63L61.3,125h22.1v39.3c0,10.9,8.9,19.8,19.8,19.8h16.2c7.5,0,14.1,5,16.2,12.2l9.5,33.2h93.4l-10.9-38.3
		C223.3,176.4,227,160.6,237.4,149.1z M121.5,23.5C135.8,12.7,152.9,7,170.9,7c5.7,0,11.3,0.6,16.9,1.7l0.4,0.1
		c37.7,8,65.1,41.9,65.1,80.5c0,20.4-7.5,39.9-21.1,55c-7.6,8.5-12.1,18.9-13.1,29.8c-24.8-1.7-44.4-22.4-44.4-47.6v-17.3
		c10.1-0.9,18.1-9.4,18.1-19.8s-8-18.9-18.1-19.8V54.9c0-17.1-13.9-31.1-31.1-31.1h-22.5C121.2,23.7,121.3,23.6,121.5,23.5z
		 M150.4,222.6l-8-28.1c-2.9-10.2-12.3-17.3-22.9-17.3h-16.2c-7.1,0-12.8-5.8-12.8-12.8V118H71.5l20.1-51.3l0.1-0.1l0.4-1.3
		c4-13,11.2-24.9,20.9-34.5h30.6c13.3,0,24.1,10.8,24.1,24.1v21.8h5.3c7.1,0,12.8,5.8,12.8,12.8s-5.8,12.8-12.8,12.8h-5.3v24.2
		c0,29,22.7,52.8,51.2,54.6c0.2,4,0.8,8,1.9,12l8.3,29.4H150.4z"/>
</g>
</svg>
