<?xml version="1.0" encoding="utf-8"?>
<!-- Generator: Adobe Illustrator 16.0.0, SVG Export Plug-In . SVG Version: 6.00 Build 0)  -->
<!DOCTYPE svg PUBLIC "-//W3C//DTD SVG 1.1//EN" "http://www.w3.org/Graphics/SVG/1.1/DTD/svg11.dtd">
<svg version="1.1" id="Layer_1" xmlns="http://www.w3.org/2000/svg" xmlns:xlink="http://www.w3.org/1999/xlink" x="0px" y="0px"
	 width="2574.971px" height="1459.561px" viewBox="0 0 2574.971 1459.561" enable-background="new 0 0 2574.971 1459.561"
	 xml:space="preserve">
<rect fill="#8E60BF" width="2574.971" height="1459.561"/>
<g>
	<path fill="#9F73E5" d="M1291.674,566.83c0-8.875-7.195-16.07-16.07-16.07s-16.07,7.195-16.07,16.07s7.195,16.07,16.07,16.07
		S1291.674,575.705,1291.674,566.83"/>
	<path fill="#9F73E5" d="M1291.674,232.77c0-8.875-7.195-16.07-16.07-16.07s-16.07,7.195-16.07,16.07s7.195,16.07,16.07,16.07
		S1291.674,241.645,1291.674,232.77"/>
	<path fill="#9F73E5" d="M745.66,563.218c0-8.875-7.195-16.07-16.07-16.07s-16.07,7.195-16.07,16.07s7.195,16.07,16.07,16.07
		S745.66,572.093,745.66,563.218"/>
	<path fill="#9F73E5" d="M745.66,715.937c0-8.875-7.195-16.07-16.07-16.07s-16.07,7.195-16.07,16.07s7.195,16.07,16.07,16.07
		S745.66,724.812,745.66,715.937"/>
	<path fill="#9F73E5" d="M493.707,715.937c0-8.875-7.195-16.07-16.07-16.07s-16.07,7.195-16.07,16.07s7.195,16.07,16.07,16.07
		S493.707,724.812,493.707,715.937"/>
	<path fill="#8E60BF" d="M2491.075,379.271c0-18.674-15.138-33.813-33.813-33.813c-18.674,0-33.812,15.139-33.812,33.813
		s15.139,33.813,33.812,33.813C2475.938,413.083,2491.075,397.944,2491.075,379.271"/>
	<circle fill="none" stroke="#9F73E5" stroke-width="7" stroke-miterlimit="10" cx="2457.262" cy="379.271" r="33.813"/>
	<path fill="#8E60BF" d="M2076.222,801.406c0-18.674-15.138-33.812-33.813-33.812c-18.674,0-33.812,15.139-33.812,33.812
		c0,18.675,15.139,33.813,33.812,33.813C2061.084,835.22,2076.222,820.081,2076.222,801.406"/>
	<circle fill="none" stroke="#9F73E5" stroke-width="7" stroke-miterlimit="10" cx="2042.409" cy="801.406" r="33.813"/>
	<path fill="#8E60BF" d="M2491.075,1255.683c0-18.674-15.138-33.813-33.813-33.813c-18.674,0-33.812,15.14-33.812,33.813
		s15.139,33.812,33.812,33.812C2475.938,1289.495,2491.075,1274.356,2491.075,1255.683"/>
	<circle fill="none" stroke="#9F73E5" stroke-width="7" stroke-miterlimit="10" cx="2457.262" cy="1255.683" r="33.813"/>
	<path fill="#8E60BF" d="M805.264,86.269c0-18.674-15.139-33.813-33.813-33.813s-33.813,15.139-33.813,33.813
		c0,18.674,15.139,33.813,33.813,33.813S805.264,104.943,805.264,86.269"/>
	<circle fill="none" stroke="#9F73E5" stroke-width="7" stroke-miterlimit="10" cx="771.451" cy="86.269" r="33.813"/>
	<path fill="#8E60BF" d="M293.545,86.269c0-18.674-15.139-33.813-33.813-33.813c-18.674,0-33.813,15.139-33.813,33.813
		c0,18.674,15.139,33.813,33.813,33.813C278.407,120.082,293.545,104.943,293.545,86.269"/>
	<circle fill="none" stroke="#9F73E5" stroke-width="7" stroke-miterlimit="10" cx="259.732" cy="86.269" r="33.813"/>
	<path fill="#8E60BF" d="M637.206,1362.883c0-18.674-15.139-33.812-33.813-33.812c-18.674,0-33.813,15.139-33.813,33.812
		c0,18.675,15.139,33.813,33.813,33.813C622.067,1396.696,637.206,1381.558,637.206,1362.883"/>
	<circle fill="none" stroke="#9F73E5" stroke-width="7" stroke-miterlimit="10" cx="603.393" cy="1362.883" r="33.813"/>
	<path fill="#8E60BF" d="M510.45,1066.086c0-18.675-15.139-33.813-33.813-33.813c-18.674,0-33.813,15.139-33.813,33.813
		c0,18.674,15.139,33.812,33.813,33.812C495.311,1099.898,510.45,1084.76,510.45,1066.086"/>
	<circle fill="none" stroke="#9F73E5" stroke-width="7" stroke-miterlimit="10" cx="476.637" cy="1066.086" r="33.813"/>
	<path fill="#9F73E5" d="M2473.332,817.477c0-8.875-7.195-16.07-16.07-16.07s-16.068,7.195-16.068,16.07s7.193,16.07,16.068,16.07
		S2473.332,826.352,2473.332,817.477"/>
	<path fill="#9F73E5" d="M106.488,1261.265c0-8.875-7.195-16.069-16.07-16.069s-16.07,7.194-16.07,16.069s7.195,16.07,16.07,16.07
		S106.488,1270.14,106.488,1261.265"/>
	<path fill="#9F73E5" d="M76.488,642.382c0-8.875-7.195-16.07-16.07-16.07s-16.07,7.195-16.07,16.07s7.195,16.07,16.07,16.07
		S76.488,651.257,76.488,642.382"/>
	<path fill="#9F73E5" d="M438.573,86.269c0-8.875-7.195-16.07-16.07-16.07s-16.07,7.195-16.07,16.07s7.195,16.07,16.07,16.07
		S438.573,95.144,438.573,86.269"/>
	<path fill="#9F73E5" d="M100.727,86.269c0-8.875-7.195-16.07-16.07-16.07s-16.07,7.195-16.07,16.07s7.195,16.07,16.07,16.07
		S100.727,95.144,100.727,86.269"/>
	<path fill="#8E60BF" d="M1765.969,158.765c0-18.968-15.377-34.345-34.345-34.345s-34.345,15.377-34.345,34.345
		c0,18.968,15.377,34.345,34.345,34.345S1765.969,177.733,1765.969,158.765"/>
	<circle fill="none" stroke="#9F73E5" stroke-width="7" stroke-miterlimit="10" cx="1731.624" cy="158.765" r="34.345"/>
	<path fill="#9F73E5" d="M2473.332,265.651c0-8.875-7.195-16.07-16.07-16.07s-16.068,7.195-16.068,16.07s7.193,16.07,16.068,16.07
		S2473.332,274.526,2473.332,265.651"/>
	<path fill="#9F73E5" d="M2006.986,453.512c0-8.875-7.195-16.07-16.07-16.07s-16.07,7.195-16.07,16.07s7.195,16.07,16.07,16.07
		S2006.986,462.387,2006.986,453.512"/>
	<path fill="#9F73E5" d="M1869.814,1389.35c0-8.875-7.195-16.07-16.07-16.07s-16.069,7.195-16.069,16.07s7.194,16.069,16.069,16.069
		S1869.814,1398.225,1869.814,1389.35"/>
	<path fill="#9F73E5" d="M319.19,1261.265c0-8.875-7.195-16.069-16.07-16.069s-16.07,7.194-16.07,16.069s7.195,16.07,16.07,16.07
		S319.19,1270.14,319.19,1261.265"/>
	<path fill="#9F73E5" d="M745.66,410.857c0-8.875-7.195-16.07-16.07-16.07s-16.07,7.195-16.07,16.07s7.195,16.07,16.07,16.07
		S745.66,419.732,745.66,410.857"/>
	<path fill="#9F73E5" d="M1167.262,871.875c0-8.875-7.195-16.069-16.07-16.069s-16.07,7.194-16.07,16.069s7.195,16.07,16.07,16.07
		S1167.262,880.75,1167.262,871.875"/>
	<path fill="#9F73E5" d="M918.611,715.937c0-8.875-7.195-16.07-16.07-16.07s-16.07,7.195-16.07,16.07s7.195,16.07,16.07,16.07
		S918.611,724.812,918.611,715.937"/>
	<path fill="#9F73E5" d="M1601.538,871.875c0-8.875-7.195-16.069-16.07-16.069s-16.069,7.194-16.069,16.069
		s7.194,16.07,16.069,16.07S1601.538,880.75,1601.538,871.875"/>
	<path fill="#9F73E5" d="M1601.538,1157.039c0-8.875-7.195-16.07-16.07-16.07s-16.069,7.195-16.069,16.07s7.194,16.07,16.069,16.07
		S1601.538,1165.914,1601.538,1157.039"/>
	<path fill="#9F73E5" d="M997.988,1123.991c0-8.875-7.195-16.069-16.07-16.069s-16.07,7.194-16.07,16.069s7.195,16.07,16.07,16.07
		S997.988,1132.866,997.988,1123.991"/>
	<path fill="#9F73E5" d="M1601.538,569.436c0-8.875-7.195-16.07-16.07-16.07s-16.069,7.195-16.069,16.07s7.194,16.07,16.069,16.07
		S1601.538,578.311,1601.538,569.436"/>
	<path fill="#9F73E5" d="M1351.645,871.875c0-8.875-7.195-16.069-16.07-16.069s-16.069,7.194-16.069,16.069
		s7.194,16.07,16.069,16.07S1351.645,880.75,1351.645,871.875"/>
	<path fill="#9F73E5" d="M1351.645,1027.387c0-8.875-7.195-16.069-16.07-16.069s-16.069,7.194-16.069,16.069
		s7.194,16.07,16.069,16.07S1351.645,1036.262,1351.645,1027.387"/>
	<path fill="#9F73E5" d="M745.66,871.875c0-8.875-7.195-16.069-16.07-16.069s-16.07,7.194-16.07,16.069s7.195,16.07,16.07,16.07
		S745.66,880.75,745.66,871.875"/>
	
		<line fill="none" stroke="#8C80FF" stroke-width="7" stroke-miterlimit="10" x1="729.59" y1="563.218" x2="1275.604" y2="563.218"/>
	<path fill="none" stroke="#9F73E5" stroke-width="7" stroke-miterlimit="10" d="M729.59,394.788v-77.259
		c0-87.683-71.081-158.764-158.764-158.764h-15.397c-87.683,0-158.764-71.081-158.764-158.764"/>
	<path fill="none" stroke="#9F73E5" stroke-width="7" stroke-miterlimit="10" d="M0,1261.265h286.584
		c105.132,0,190.358-85.226,190.358-190.357V721.982c0-87.683,71.081-158.764,158.764-158.764h879.661V231.012
		c0-65.894,52.963-120.262,118.858-120.396c66.053-0.136,119.642,53.369,119.642,119.391v68.03
		c0,87.146,70.645,157.792,157.791,157.792h253.804c55.55,0,100.581,45.031,100.581,100.581v12.201
		c0,55.55-45.031,100.581-100.581,100.581h-22.472c-55.55,0-100.581,45.032-100.581,100.583v689.786"/>
	<path fill="none" stroke="#9F73E5" stroke-width="7" stroke-miterlimit="10" d="M0,641.179h32.388
		c125.62,0,227.456,101.836,227.456,227.457v254.116c0,132.928,107.758,240.686,240.684,240.686h190.869
		c53.088,0,96.123,43.035,96.123,96.122"/>
	<path fill="none" stroke="#9F73E5" stroke-width="7" stroke-miterlimit="10" d="M1853.745,1459.56v-172.088
		c0-119.202,96.632-215.833,215.833-215.833h171.852c119.201,0,215.833-96.632,215.833-215.833V0.001"/>
	<path fill="none" stroke="#9F73E5" stroke-width="7" stroke-miterlimit="10" d="M0,86.269h1017.867
		c53.072,0,96.096-43.024,96.096-96.097v-1.274"/>
	<path fill="none" stroke="#9F73E5" stroke-width="7" stroke-miterlimit="10" d="M2212.562,0.001v65.33
		c0,110.634,89.687,200.32,200.319,200.32h162.089"/>
	
		<line fill="none" stroke="#9F73E5" stroke-width="7" stroke-miterlimit="10" x1="2457.263" y1="874.351" x2="2457.263" y2="1459.56"/>
	
		<line fill="none" stroke="#9F73E5" stroke-width="7" stroke-miterlimit="10" x1="1587.947" y1="569.359" x2="2574.971" y2="569.359"/>
	<line fill="none" stroke="#9F73E5" stroke-width="7" stroke-miterlimit="10" x1="0" y1="855.806" x2="1585.469" y2="871.876"/>
	<line fill="none" stroke="#9F73E5" stroke-width="7" stroke-miterlimit="10" x1="0" y1="410.857" x2="731.221" y2="410.857"/>
	
		<line fill="none" stroke="#9F73E5" stroke-width="7" stroke-miterlimit="10" x1="1275.604" y1="566.83" x2="1275.604" y2="232.77"/>
	
		<line fill="none" stroke="#9F73E5" stroke-width="7" stroke-miterlimit="10" x1="1585.469" y1="566.83" x2="1585.469" y2="1157.039"/>
	
		<line fill="none" stroke="#9F73E5" stroke-width="7" stroke-miterlimit="10" x1="1335.575" y1="871.875" x2="1335.575" y2="1024.717"/>
	<line fill="none" stroke="#9F73E5" stroke-width="7" stroke-miterlimit="10" x1="902.541" y1="715.937" x2="729.59" y2="715.937"/>
	
		<line fill="none" stroke="#9F73E5" stroke-width="7" stroke-miterlimit="10" x1="1335.575" y1="1471.16" x2="1335.575" y2="1023.081"/>
	
		<line fill="none" stroke="#9F73E5" stroke-width="7" stroke-miterlimit="10" x1="1585.469" y1="1157.039" x2="2574.971" y2="1157.039"/>
	
		<line fill="none" stroke="#9F73E5" stroke-width="7" stroke-miterlimit="10" x1="2574.971" y1="232.77" x2="1275.604" y2="232.77"/>
	<line fill="none" stroke="#9F73E5" stroke-width="7" stroke-miterlimit="10" x1="729.59" y1="410.857" x2="1275.604" y2="232.77"/>
	
		<line fill="none" stroke="#9F73E5" stroke-width="7" stroke-miterlimit="10" x1="1335.209" y1="1123.991" x2="965.849" y2="1123.991"/>
	
		<line fill="none" stroke="#9F73E5" stroke-width="7" stroke-miterlimit="10" x1="729.59" y1="871.501" x2="981.918" y2="1123.991"/>
	<line fill="none" stroke="#9F73E5" stroke-width="7" stroke-miterlimit="10" x1="729.59" y1="871.501" x2="729.59" y2="410.857"/>
	<path fill="none" stroke="#9F73E5" stroke-width="7" stroke-miterlimit="10" d="M0,248.839h9.864
		c41.307,0,74.793-33.486,74.793-74.793V0"/>
</g>
</svg>
