<?xml version="1.0" encoding="utf-8"?>
<!-- Generator: Adobe Illustrator 16.0.0, SVG Export Plug-In . SVG Version: 6.00 Build 0)  -->
<!DOCTYPE svg PUBLIC "-//W3C//DTD SVG 1.1//EN" "http://www.w3.org/Graphics/SVG/1.1/DTD/svg11.dtd">
<svg version="1.1" id="Layer_1" xmlns="http://www.w3.org/2000/svg" xmlns:xlink="http://www.w3.org/1999/xlink" x="0px" y="0px"
	 width="203.625px" height="115.42px" viewBox="0 0 203.625 115.42" enable-background="new 0 0 203.625 115.42"
	 xml:space="preserve">
<rect id="BG" y="-0.019" fill="#62D4B2" width="203.625" height="115.42"/>
<g id="Head">
	
		<line fill="none" stroke="#1D1D1B" stroke-width="0.5535" stroke-miterlimit="10" x1="118.703" y1="41.851" x2="128.464" y2="41.851"/>
	<path fill="#FFFFFF" d="M151.955,70.897h-9.719v35.881h-20.24v9.369H74.007v-13.439c-4.96-2.18-9.48-5.17-13.4-8.811
		c-9.51-8.812-15.46-21.396-15.46-35.381c0-9.374,2.67-18.108,7.29-25.514c8.52-13.67,23.69-22.76,40.98-22.76
		c8,0,15.53,1.94,22.17,5.39c10.608,5.49,18.92,14.81,23.108,26.13L151.955,70.897z"/>
	
		<linearGradient id="SVGID_1_" gradientUnits="userSpaceOnUse" x1="-64.6401" y1="524.8994" x2="-64.6401" y2="509.0412" gradientTransform="matrix(1 0 0 1 168 -495.5801)">
		<stop  offset="0" style="stop-color:#FFFFFF;stop-opacity:0"/>
		<stop  offset="0.0462" style="stop-color:#F2F1F1;stop-opacity:0.0462"/>
		<stop  offset="0.3111" style="stop-color:#A9A7A8;stop-opacity:0.3111"/>
		<stop  offset="0.5484" style="stop-color:#6F6D6D;stop-opacity:0.5484"/>
		<stop  offset="0.7494" style="stop-color:#464343;stop-opacity:0.7494"/>
		<stop  offset="0.9063" style="stop-color:#2C292A;stop-opacity:0.9063"/>
		<stop  offset="1" style="stop-color:#231F20"/>
	</linearGradient>
	<rect x="91.119" y="12.319" opacity="0.4" fill="url(#SVGID_1_)" enable-background="new    " width="24.48" height="18.882"/>
	<g>
		<path fill="#FAB88B" d="M93.417,10.248c-17.29,0-32.46,9.09-40.98,22.76c-4.62,7.4-7.29,16.14-7.29,25.511
			c0,10.25,3.19,19.729,8.63,27.541c-3.46,0.725-6.06,3.777-6.06,7.447h12.48h13.36v-7.6v-53.04h17.98
			c11.17,0,20.65-7.21,24.05-17.23C108.947,12.188,101.417,10.248,93.417,10.248z"/>
		
			<linearGradient id="SVGID_2_" gradientUnits="userSpaceOnUse" x1="-162.3555" y1="-1588.6094" x2="-171.5223" y2="-1608.4423" gradientTransform="matrix(1 0 0 -1 252 -1576.3203)">
			<stop  offset="0.043" style="stop-color:#FBB88B"/>
			<stop  offset="1" style="stop-color:#DCA17A"/>
		</linearGradient>
		<path fill="url(#SVGID_2_)" d="M116.216,13.498c0,0.97-0.299,1.87-0.81,2.62c-3.529,9.77-12.879,16.75-23.872,16.75h-17.98v0.14
			h-21.12c8.52-13.67,23.69-22.76,40.98-22.76c4.76,0,9.361,0.69,13.701,1.98c0.549-1.94,2.34-3.37,4.459-3.37
			C114.137,8.857,116.216,10.938,116.216,13.498z"/>
	</g>
	<path fill="#1D1D1B" d="M128.755,45.144c0-1.866-1.515-3.379-3.379-3.379c-1.867,0-3.38,1.513-3.38,3.379
		c0,1.866,1.513,3.378,3.38,3.378C127.24,48.521,128.755,47.01,128.755,45.144"/>
	
		<line fill="none" stroke="#1D1D1B" stroke-width="0.6326" stroke-miterlimit="10" x1="121.27" y1="36.145" x2="129.093" y2="36.145"/>
	<path fill="none" stroke="#1D1D1B" stroke-width="0.5535" stroke-miterlimit="10" d="M142.949,66.167
		c-1.705,0-3.088,1.383-3.088,3.088"/>
	<path fill="#FFFFFF" d="M82.67,55.458c0-5.108-4.142-9.25-9.25-9.25s-9.25,4.141-9.25,9.25c0,5.109,4.141,9.25,9.25,9.25
		S82.67,60.565,82.67,55.458"/>
</g>
<g id="White_x5F_Lines">
	<g>
		<path fill="none" stroke="#79F2EC" stroke-width="0.5535" stroke-miterlimit="10" d="M57.695,31.201v-6.109
			c0-6.934-5.621-12.555-12.555-12.555h-1.217c-6.934,0-12.555-5.621-12.555-12.555"/>
		<path fill="none" stroke="#79F2EC" stroke-width="0.5535" stroke-miterlimit="10" d="M0,99.72h22.663
			c8.313,0,15.053-6.74,15.053-15.053V57.073c0-6.934,5.621-12.555,12.555-12.555h69.563v-26.27c0-5.21,4.188-9.51,9.398-9.521
			c5.223-0.011,9.461,4.22,9.461,9.441v5.38c0,6.892,5.586,12.478,12.479,12.478h20.07c4.393,0,7.953,3.561,7.953,7.954v0.965
			c0,4.393-3.562,7.954-7.953,7.954h-1.777c-4.393,0-7.955,3.561-7.955,7.954v54.547"/>
		<path fill="none" stroke="#79F2EC" stroke-width="0.5535" stroke-miterlimit="10" d="M0,50.685h2.561
			c9.934,0,17.986,8.052,17.986,17.986v20.096c0,10.512,8.521,19.033,19.033,19.033h15.093c4.198,0,7.602,3.402,7.602,7.6"/>
		<path fill="none" stroke="#79F2EC" stroke-width="0.5535" stroke-miterlimit="10" d="M146.591,115.399v-13.607
			c0-9.426,7.642-17.066,17.065-17.066h13.59c9.429,0,17.068-7.643,17.068-17.063v-67.68"/>
		<path fill="none" stroke="#79F2EC" stroke-width="0.5535" stroke-miterlimit="10" d="M0,6.804h80.491
			c4.197,0,7.599-3.402,7.599-7.599v-0.101"/>
		<path fill="none" stroke="#79F2EC" stroke-width="0.5535" stroke-miterlimit="10" d="M174.966-0.019v5.166
			c0,8.749,7.093,15.841,15.841,15.841h12.816"/>
		
			<line fill="none" stroke="#79F2EC" stroke-width="0.5535" stroke-miterlimit="10" x1="194.316" y1="69.124" x2="194.316" y2="115.399"/>
	</g>
	<g>
		
			<line fill="none" stroke="#79F2EC" stroke-width="0.5535" stroke-miterlimit="10" x1="125.572" y1="45.005" x2="167.609" y2="45.005"/>
		<path fill="#79F2EC" d="M102.143,44.806c0-0.702-0.569-1.271-1.271-1.271s-1.271,0.569-1.271,1.271
			c0,0.702,0.569,1.271,1.271,1.271S102.143,45.507,102.143,44.806"/>
		
			<line fill="none" stroke="#FFFFFF" stroke-width="0.5535" stroke-miterlimit="10" x1="125.376" y1="91.478" x2="156.846" y2="91.478"/>
		<path fill="#79F2EC" d="M102.143,18.389c0-0.702-0.569-1.271-1.271-1.271s-1.271,0.569-1.271,1.271
			c0,0.702,0.569,1.271,1.271,1.271S102.143,19.09,102.143,18.389"/>
		<path fill="#79F2EC" d="M58.965,44.52c0-0.702-0.569-1.271-1.271-1.271c-0.702,0-1.271,0.569-1.271,1.271s0.569,1.271,1.271,1.271
			C58.396,45.791,58.965,45.222,58.965,44.52"/>
		<path fill="#79F2EC" d="M58.965,56.597c0-0.702-0.569-1.271-1.271-1.271c-0.702,0-1.271,0.569-1.271,1.271
			c0,0.702,0.569,1.271,1.271,1.271C58.396,57.867,58.965,57.298,58.965,56.597"/>
		<path fill="#79F2EC" d="M39.041,56.597c0-0.702-0.569-1.271-1.271-1.271s-1.271,0.569-1.271,1.271
			c0,0.702,0.569,1.271,1.271,1.271C38.472,57.867,39.041,57.298,39.041,56.597"/>
		<path fill="#62D4B2" d="M196.988,29.974c0-1.477-1.195-2.674-2.674-2.674c-1.479,0-2.674,1.197-2.674,2.674
			s1.192,2.674,2.674,2.674C195.792,32.647,196.988,31.45,196.988,29.974"/>
		<circle fill="none" stroke="#79F2EC" stroke-width="0.5535" stroke-miterlimit="10" cx="194.316" cy="29.973" r="2.674"/>
		<path fill="#62D4B2" d="M164.184,63.354c0-1.479-1.197-2.674-2.675-2.674s-2.674,1.192-2.674,2.674
			c0,1.479,1.196,2.674,2.674,2.674S164.184,64.831,164.184,63.354"/>
		<circle fill="none" stroke="#79F2EC" stroke-width="0.5535" stroke-miterlimit="10" cx="161.509" cy="63.354" r="2.674"/>
		<path fill="#62D4B2" d="M196.988,99.278c0-1.479-1.195-2.674-2.674-2.674c-1.479,0-2.674,1.192-2.674,2.674
			c0,1.477,1.192,2.674,2.674,2.674C195.792,101.952,196.988,100.755,196.988,99.278"/>
		<circle fill="none" stroke="#79F2EC" stroke-width="0.5535" stroke-miterlimit="10" cx="194.316" cy="99.278" r="2.674"/>
		<path fill="#62D4B2" d="M63.678,6.804c0-1.477-1.197-2.674-2.674-2.674S58.33,5.327,58.33,6.804s1.197,2.674,2.674,2.674
			S63.678,8.28,63.678,6.804"/>
		<circle fill="none" stroke="#79F2EC" stroke-width="0.5535" stroke-miterlimit="10" cx="61.005" cy="6.803" r="2.674"/>
		<path fill="#62D4B2" d="M23.213,6.804c0-1.477-1.197-2.674-2.674-2.674s-2.674,1.197-2.674,2.674s1.197,2.674,2.674,2.674
			S23.213,8.28,23.213,6.804"/>
		<circle fill="none" stroke="#79F2EC" stroke-width="0.5535" stroke-miterlimit="10" cx="20.539" cy="6.803" r="2.674"/>
		<path fill="#62D4B2" d="M50.389,107.755c0-1.477-1.197-2.674-2.674-2.674s-2.674,1.197-2.674,2.674
			c0,1.479,1.197,2.676,2.674,2.676C49.192,110.429,50.389,109.231,50.389,107.755"/>
		<circle fill="none" stroke="#79F2EC" stroke-width="0.5535" stroke-miterlimit="10" cx="47.715" cy="107.755" r="2.674"/>
		<path fill="#62D4B2" d="M40.365,84.286c0-1.479-1.197-2.676-2.674-2.676s-2.674,1.197-2.674,2.676s1.197,2.674,2.674,2.674
			S40.365,85.763,40.365,84.286"/>
		<circle fill="none" stroke="#79F2EC" stroke-width="0.5535" stroke-miterlimit="10" cx="37.691" cy="84.286" r="2.674"/>
		<path fill="#79F2EC" d="M195.587,64.626c0-0.701-0.569-1.271-1.271-1.271c-0.702,0-1.271,0.568-1.271,1.271
			c0,0.701,0.57,1.271,1.271,1.271C195.018,65.896,195.587,65.327,195.587,64.626"/>
		<path fill="#79F2EC" d="M8.421,99.72c0-0.701-0.569-1.271-1.271-1.271c-0.702,0-1.271,0.569-1.271,1.271
			c0,0.702,0.569,1.271,1.271,1.271C7.852,100.991,8.421,100.421,8.421,99.72"/>
		<path fill="#79F2EC" d="M6.048,50.78c0-0.702-0.569-1.271-1.271-1.271c-0.702,0-1.271,0.569-1.271,1.271
			c0,0.702,0.569,1.271,1.271,1.271C5.479,52.051,6.048,51.481,6.048,50.78"/>
		<path fill="#79F2EC" d="M34.681,6.804c0-0.702-0.569-1.271-1.271-1.271c-0.702,0-1.271,0.569-1.271,1.271
			c0,0.702,0.569,1.271,1.271,1.271C34.112,8.075,34.681,7.505,34.681,6.804"/>
		<path fill="#79F2EC" d="M7.965,6.804c0-0.702-0.569-1.271-1.271-1.271c-0.702,0-1.271,0.569-1.271,1.271
			c0,0.702,0.569,1.271,1.271,1.271C7.396,8.073,7.965,7.505,7.965,6.804"/>
		<path fill="#62D4B2" d="M139.65,12.537c0-1.5-1.219-2.716-2.719-2.716s-2.719,1.216-2.719,2.716s1.219,2.716,2.719,2.716
			S139.65,14.037,139.65,12.537"/>
		<circle fill="none" stroke="#79F2EC" stroke-width="0.5535" stroke-miterlimit="10" cx="136.934" cy="12.536" r="2.716"/>
		<path fill="#79F2EC" d="M195.587,20.988c0-0.702-0.569-1.271-1.271-1.271c-0.702,0-1.271,0.569-1.271,1.271
			c0,0.702,0.57,1.271,1.271,1.271C195.018,22.26,195.587,21.69,195.587,20.988"/>
		<path fill="#79F2EC" d="M158.708,35.845c0-0.702-0.567-1.271-1.271-1.271c-0.705,0-1.271,0.569-1.271,1.271
			c0,0.702,0.566,1.271,1.271,1.271C158.141,37.114,158.708,36.546,158.708,35.845"/>
		<path fill="#79F2EC" d="M147.861,109.849c0-0.701-0.567-1.271-1.271-1.271c-0.703,0-1.271,0.569-1.271,1.271
			c0,0.702,0.566,1.271,1.271,1.271C147.292,111.118,147.861,110.551,147.861,109.849"/>
		<path fill="#79F2EC" d="M25.241,99.72c0-0.701-0.569-1.271-1.271-1.271c-0.702,0-1.271,0.569-1.271,1.271
			c0,0.702,0.569,1.271,1.271,1.271C24.672,100.991,25.241,100.421,25.241,99.72"/>
		<path fill="#79F2EC" d="M58.965,32.472c0-0.702-0.569-1.271-1.271-1.271c-0.702,0-1.271,0.569-1.271,1.271
			c0,0.702,0.569,1.271,1.271,1.271C58.396,33.742,58.965,33.173,58.965,32.472"/>
		<path fill="#79F2EC" d="M92.304,68.928c0-0.7-0.569-1.271-1.271-1.271c-0.702,0-1.271,0.568-1.271,1.271
			c0,0.703,0.569,1.271,1.271,1.271C91.736,70.198,92.304,69.63,92.304,68.928"/>
		<path fill="#79F2EC" d="M72.642,56.597c0-0.702-0.569-1.271-1.271-1.271S70.1,55.895,70.1,56.597c0,0.702,0.569,1.271,1.271,1.271
			C72.073,57.867,72.642,57.298,72.642,56.597"/>
		<path fill="#FFFFFF" d="M126.646,68.928c0-0.7-0.568-1.271-1.271-1.271s-1.271,0.568-1.271,1.271c0,0.703,0.566,1.271,1.271,1.271
			C126.076,70.198,126.646,69.63,126.646,68.928"/>
		<path fill="#79F2EC" d="M126.646,91.478c0-0.701-0.568-1.271-1.271-1.271s-1.271,0.569-1.271,1.271
			c0,0.703,0.566,1.271,1.271,1.271C126.076,92.749,126.646,92.179,126.646,91.478"/>
		<path fill="#79F2EC" d="M78.919,88.864c0-0.701-0.569-1.271-1.271-1.271s-1.271,0.569-1.271,1.271
			c0,0.701,0.569,1.271,1.271,1.271C78.35,90.136,78.919,89.565,78.919,88.864"/>
		<path fill="#79F2EC" d="M126.646,45.012c0-0.702-0.568-1.271-1.271-1.271s-1.271,0.569-1.271,1.271
			c0,0.702,0.566,1.271,1.271,1.271C126.076,46.281,126.646,45.713,126.646,45.012"/>
		<path fill="#79F2EC" d="M106.885,68.928c0-0.7-0.568-1.271-1.27-1.271c-0.703,0-1.271,0.568-1.271,1.271
			c0,0.703,0.568,1.271,1.271,1.271C106.316,70.198,106.885,69.63,106.885,68.928"/>
		<path fill="#79F2EC" d="M106.885,81.226c0-0.703-0.568-1.271-1.27-1.271c-0.703,0-1.271,0.567-1.271,1.271
			c0,0.701,0.568,1.271,1.271,1.271C106.316,82.495,106.885,81.927,106.885,81.226"/>
		<path fill="#79F2EC" d="M58.965,68.928c0-0.7-0.569-1.271-1.271-1.271c-0.702,0-1.271,0.568-1.271,1.271
			c0,0.703,0.569,1.271,1.271,1.271C58.396,70.199,58.965,69.63,58.965,68.928"/>
		
			<line fill="none" stroke="#79F2EC" stroke-width="0.5535" stroke-miterlimit="10" x1="32.955" y1="68.928" x2="125.376" y2="68.928"/>
		
			<line fill="none" stroke="#79F2EC" stroke-width="0.5535" stroke-miterlimit="10" x1="57.695" y1="44.52" x2="100.872" y2="44.52"/>
		
			<line fill="none" stroke="#79F2EC" stroke-width="0.5535" stroke-miterlimit="10" x1="52.275" y1="32.472" x2="57.823" y2="32.472"/>
		
			<line fill="none" stroke="#79F2EC" stroke-width="0.5535" stroke-miterlimit="10" x1="100.872" y1="44.806" x2="100.872" y2="18.389"/>
		
			<line fill="none" stroke="#79F2EC" stroke-width="0.5535" stroke-miterlimit="10" x1="125.376" y1="44.806" x2="125.376" y2="91.478"/>
		
			<line fill="none" stroke="#79F2EC" stroke-width="0.5535" stroke-miterlimit="10" x1="105.615" y1="68.928" x2="105.615" y2="81.015"/>
		
			<line fill="none" stroke="#79F2EC" stroke-width="0.5535" stroke-miterlimit="10" x1="71.371" y1="56.597" x2="57.695" y2="56.597"/>
		
			<line fill="none" stroke="#79F2EC" stroke-width="0.5535" stroke-miterlimit="10" x1="105.615" y1="116.317" x2="105.615" y2="80.885"/>
		
			<line fill="none" stroke="#79F2EC" stroke-width="0.5535" stroke-miterlimit="10" x1="125.376" y1="91.478" x2="142.234" y2="91.478"/>
		
			<line fill="none" stroke="#79F2EC" stroke-width="0.5535" stroke-miterlimit="10" x1="144.152" y1="18.389" x2="100.872" y2="18.389"/>
		
			<line fill="none" stroke="#79F2EC" stroke-width="0.5535" stroke-miterlimit="10" x1="57.695" y1="32.472" x2="100.872" y2="18.389"/>
		
			<line fill="none" stroke="#79F2EC" stroke-width="0.5535" stroke-miterlimit="10" x1="105.586" y1="88.864" x2="76.377" y2="88.864"/>
		
			<line fill="none" stroke="#79F2EC" stroke-width="0.5535" stroke-miterlimit="10" x1="57.695" y1="68.897" x2="77.648" y2="88.864"/>
		
			<line fill="none" stroke="#79F2EC" stroke-width="0.5535" stroke-miterlimit="10" x1="57.695" y1="68.897" x2="57.695" y2="32.472"/>
		<path fill="none" stroke="#79F2EC" stroke-width="0.5535" stroke-miterlimit="10" d="M0,19.659h0.78
			c3.266,0,5.914-2.647,5.914-5.914V-0.02"/>
		<rect x="142.234" y="73.286" fill="#62D4B2" width="3.303" height="14.318"/>
	</g>
</g>
<g id="Head_x5F_icon">
	<path fill="#1D1D1B" d="M180.016,90.571c0-6.398-5.188-11.584-11.586-11.584c-6.396,0-11.584,5.186-11.584,11.584
		c0,6.396,5.188,11.586,11.584,11.586C174.826,102.157,180.016,96.97,180.016,90.571"/>
	<path fill="none" stroke="#FFFFFF" stroke-width="0.5535" stroke-miterlimit="10" d="M174.966,100.122l-1.465-0.176
		c-0.746-0.09-1.308-0.723-1.308-1.475v-2.58"/>
	<path fill="none" stroke="#FFFFFF" stroke-width="0.5535" stroke-miterlimit="10" d="M164.662,95.892v2.58
		c0,0.752-0.562,1.385-1.307,1.479l-1.607,0.188"/>
	<path fill="none" stroke="#FFFFFF" stroke-width="0.5535" stroke-miterlimit="10" d="M174.369,88.515
		c-0.188-3.945-2.771-6.127-5.939-6.127s-5.757,2.182-5.938,6.127c-0.604,0.131-1.027,0.834-0.977,1.65
		c0.062,0.875,0.653,1.549,1.327,1.504c0,0,0,0,0.003,0c0,2.244,1.484,4.074,2.67,4.987c0.764,0.591,1.689,1.146,2.657,1.159
		l0.366,0.004c1.003,0.016,1.975-0.545,2.77-1.154c1.205-0.93,2.707-2.768,2.707-4.996l0,0c0.674,0.045,1.271-0.629,1.327-1.504
		C175.4,89.349,174.973,88.646,174.369,88.515z"/>
	<path fill="#4CA0FF" d="M164.994,86.493c-0.188,0-0.334,0.15-0.334,0.334c0,0.188,0.146,0.334,0.334,0.334
		c0.186,0,0.334-0.146,0.334-0.334C165.328,86.644,165.18,86.493,164.994,86.493"/>
	<path fill="#4CA0FF" d="M169.572,86.493c-0.186,0-0.334,0.15-0.334,0.334c0,0.188,0.148,0.334,0.334,0.334
		c0.187,0,0.334-0.146,0.334-0.334C169.906,86.644,169.759,86.493,169.572,86.493"/>
	<path fill="#FFFFFF" d="M167.283,86.493c-0.188,0-0.334,0.15-0.334,0.334c0,0.188,0.146,0.334,0.334,0.334
		c0.185,0,0.334-0.146,0.334-0.334C167.617,86.644,167.468,86.493,167.283,86.493"/>
	<path fill="#FFFFFF" d="M171.863,86.493c-0.188,0-0.334,0.15-0.334,0.334c0,0.188,0.146,0.334,0.334,0.334
		c0.186,0,0.336-0.146,0.336-0.334C172.197,86.644,172.048,86.493,171.863,86.493"/>
	<path fill="#FFFFFF" d="M169.572,84.548c-0.186,0-0.334,0.15-0.334,0.337c0,0.185,0.148,0.334,0.334,0.334
		c0.187,0,0.334-0.149,0.334-0.334C169.906,84.698,169.759,84.548,169.572,84.548"/>
	<path fill="#4CA0FF" d="M167.283,84.548c-0.188,0-0.334,0.15-0.334,0.337c0,0.185,0.146,0.334,0.334,0.334
		c0.185,0,0.334-0.149,0.334-0.334C167.617,84.698,167.468,84.548,167.283,84.548"/>
	<path fill="#FFFFFF" d="M164.994,88.438c-0.188,0-0.334,0.146-0.334,0.334c0,0.184,0.146,0.334,0.334,0.334
		c0.186,0,0.334-0.15,0.334-0.334C165.328,88.587,165.18,88.438,164.994,88.438"/>
	<path fill="#FFFFFF" d="M169.572,88.438c-0.186,0-0.334,0.146-0.334,0.334c0,0.184,0.148,0.334,0.334,0.334
		c0.187,0,0.334-0.15,0.334-0.334C169.906,88.587,169.759,88.438,169.572,88.438"/>
	<path fill="#4CA0FF" d="M167.283,88.438c-0.188,0-0.334,0.146-0.334,0.334c0,0.184,0.146,0.334,0.334,0.334
		c0.185,0,0.334-0.15,0.334-0.334C167.617,88.587,167.468,88.438,167.283,88.438"/>
	<path fill="#4CA0FF" d="M171.863,88.438c-0.188,0-0.334,0.146-0.334,0.334c0,0.184,0.146,0.334,0.334,0.334
		c0.186,0,0.336-0.15,0.336-0.334C172.197,88.587,172.048,88.438,171.863,88.438"/>
	<path fill="#4CA0FF" d="M164.994,90.382c-0.188,0-0.334,0.15-0.334,0.337c0,0.185,0.146,0.335,0.334,0.335
		c0.186,0,0.334-0.15,0.334-0.335C165.328,90.532,165.18,90.382,164.994,90.382"/>
	<path fill="#4CA0FF" d="M169.572,90.382c-0.186,0-0.334,0.15-0.334,0.337c0,0.185,0.148,0.335,0.334,0.335
		c0.187,0,0.334-0.15,0.334-0.335C169.906,90.532,169.759,90.382,169.572,90.382"/>
	<path fill="#FFFFFF" d="M167.283,90.382c-0.188,0-0.334,0.15-0.334,0.337c0,0.185,0.146,0.335,0.334,0.335
		c0.185,0,0.334-0.15,0.334-0.335C167.617,90.532,167.468,90.382,167.283,90.382"/>
	<path fill="#FFFFFF" d="M171.863,90.382c-0.188,0-0.334,0.15-0.334,0.337c0,0.185,0.146,0.335,0.334,0.335
		c0.186,0,0.336-0.15,0.336-0.335C172.197,90.532,172.048,90.382,171.863,90.382"/>
	<path fill="#FFFFFF" d="M164.994,92.327c-0.188,0-0.334,0.15-0.334,0.334c0,0.188,0.146,0.334,0.334,0.334
		c0.186,0,0.334-0.146,0.334-0.334C165.328,92.478,165.18,92.327,164.994,92.327"/>
	<path fill="#FFFFFF" d="M169.572,92.327c-0.186,0-0.334,0.15-0.334,0.334c0,0.188,0.148,0.334,0.334,0.334
		c0.187,0,0.334-0.146,0.334-0.334C169.906,92.478,169.759,92.327,169.572,92.327"/>
	<path fill="#4CA0FF" d="M167.283,92.327c-0.188,0-0.334,0.15-0.334,0.334c0,0.188,0.146,0.334,0.334,0.334
		c0.185,0,0.334-0.146,0.334-0.334C167.617,92.478,167.468,92.327,167.283,92.327"/>
	<path fill="#4CA0FF" d="M171.863,92.327c-0.188,0-0.334,0.15-0.334,0.334c0,0.188,0.146,0.334,0.334,0.334
		c0.186,0,0.336-0.146,0.336-0.334C172.197,92.478,172.048,92.327,171.863,92.327"/>
	<path fill="#4CA0FF" d="M169.572,94.272c-0.186,0-0.334,0.146-0.334,0.334c0,0.184,0.148,0.334,0.334,0.334
		c0.187,0,0.334-0.15,0.334-0.334C169.906,94.421,169.759,94.272,169.572,94.272"/>
	<path fill="#FFFFFF" d="M167.283,94.272c-0.188,0-0.334,0.146-0.334,0.334c0,0.184,0.146,0.334,0.334,0.334
		c0.185,0,0.334-0.15,0.334-0.334C167.617,94.421,167.468,94.272,167.283,94.272"/>
</g>
<g id="Signal_x5F_Icon2">
	<path fill="#1D1D1B" d="M167.322,18.389c0-6.398-5.188-11.585-11.586-11.585c-6.398,0-11.584,5.187-11.584,11.585
		s5.187,11.585,11.584,11.585C162.135,29.974,167.322,24.787,167.322,18.389"/>
	<circle fill="none" stroke="#8C80FF" stroke-width="0.5535" stroke-miterlimit="10" cx="153.005" cy="13.114" r="0.256"/>
	<circle fill="none" stroke="#8C80FF" stroke-width="0.5535" stroke-miterlimit="10" cx="149.477" cy="18.21" r="0.257"/>
	<circle fill="none" stroke="#8C80FF" stroke-width="0.5535" stroke-miterlimit="10" cx="161.998" cy="18.21" r="0.257"/>
	<circle fill="none" stroke="#8C80FF" stroke-width="0.5535" stroke-miterlimit="10" cx="153.879" cy="23.662" r="0.257"/>
	<circle fill="none" stroke="#8C80FF" stroke-width="0.5535" stroke-miterlimit="10" cx="158.389" cy="13.114" r="0.256"/>
	<circle fill="none" stroke="#8C80FF" stroke-width="0.5535" stroke-miterlimit="10" cx="159.257" cy="23.662" r="0.256"/>
	<polyline fill="none" stroke="#8C80FF" stroke-width="0.5535" stroke-miterlimit="10" points="149.479,18.209 151.542,18.209 
		152.93,13.897 153.932,22.58 154.996,18.238 156.531,18.238 	"/>
	<polyline fill="none" stroke="#8C80FF" stroke-width="0.5535" stroke-miterlimit="10" points="155.927,18.238 156.902,18.238 
		158.289,13.928 159.289,22.609 160.357,18.269 161.893,18.269 	"/>
</g>
<g id="Heart_x5F_Icon">
	<path fill="#1D1D1B" d="M29.508,32.472c0-6.122-4.963-11.085-11.084-11.085c-6.122,0-11.085,4.963-11.085,11.085
		c0,6.122,4.963,11.084,11.085,11.084C24.545,43.556,29.508,38.594,29.508,32.472"/>
	<path fill="none" stroke="#4CA0FF" stroke-width="0.5535" stroke-miterlimit="10" d="M12.939,34.099l-0.056-0.063
		c-0.729-0.826-1.13-1.888-1.13-2.989c0-2.493,2.028-4.521,4.521-4.521c0.778,0,1.51,0.194,2.149,0.538
		c0.639-0.344,1.371-0.538,2.148-0.538c2.493,0,4.521,2.028,4.521,4.521c0,1.102-0.401,2.163-1.13,2.989l-0.056,0.063l-5.483,5.386
		L12.939,34.099z"/>
	<path fill="none" stroke="#FFFFFF" stroke-width="0.5535" stroke-miterlimit="10" d="M22.722,31.045
		c0-1.188-0.963-2.151-2.151-2.151c-1.159,0-2.104,0.917-2.148,2.066c-0.044-1.148-0.989-2.066-2.149-2.066
		c-1.188,0-2.15,0.963-2.15,2.151c0,0.545,0.203,1.042,0.537,1.421l3.762,3.695l3.762-3.695
		C22.519,32.088,22.722,31.59,22.722,31.045z"/>
</g>
<g id="Eye_x5F_icon">
	<path fill="#1D1D1B" d="M190.779,45.012c0-6.398-5.188-11.585-11.584-11.585c-6.397,0-11.586,5.188-11.586,11.585
		s5.188,11.585,11.586,11.585C185.593,56.597,190.779,51.41,190.779,45.012"/>
	
		<line fill="none" stroke="#79F2EC" stroke-width="0.5535" stroke-miterlimit="10" x1="173.496" y1="46.854" x2="173.496" y2="42.878"/>
	<circle fill="none" stroke="#79F2EC" stroke-width="0.5535" stroke-miterlimit="10" cx="173.498" cy="43.023" r="0.257"/>
	<circle fill="none" stroke="#79F2EC" stroke-width="0.5535" stroke-miterlimit="10" cx="173.498" cy="46.854" r="0.257"/>
	
		<line fill="none" stroke="#79F2EC" stroke-width="0.5535" stroke-miterlimit="10" x1="175.809" y1="47.645" x2="175.809" y2="42.087"/>
	<circle fill="none" stroke="#79F2EC" stroke-width="0.5535" stroke-miterlimit="10" cx="175.809" cy="42.233" r="0.256"/>
	<circle fill="none" stroke="#79F2EC" stroke-width="0.5535" stroke-miterlimit="10" cx="175.809" cy="47.645" r="0.256"/>
	
		<line fill="none" stroke="#79F2EC" stroke-width="0.5535" stroke-miterlimit="10" x1="178.117" y1="48.436" x2="178.117" y2="41.296"/>
	<circle fill="none" stroke="#79F2EC" stroke-width="0.5535" stroke-miterlimit="10" cx="178.117" cy="41.442" r="0.256"/>
	<circle fill="none" stroke="#79F2EC" stroke-width="0.5535" stroke-miterlimit="10" cx="178.117" cy="48.436" r="0.256"/>
	
		<line fill="none" stroke="#79F2EC" stroke-width="0.5535" stroke-miterlimit="10" x1="180.43" y1="48.436" x2="180.43" y2="41.296"/>
	<circle fill="none" stroke="#79F2EC" stroke-width="0.5535" stroke-miterlimit="10" cx="180.43" cy="44.938" r="0.256"/>
	<circle fill="none" stroke="#79F2EC" stroke-width="0.5535" stroke-miterlimit="10" cx="180.43" cy="41.442" r="0.256"/>
	<circle fill="none" stroke="#79F2EC" stroke-width="0.5535" stroke-miterlimit="10" cx="180.43" cy="43.19" r="0.256"/>
	<circle fill="none" stroke="#79F2EC" stroke-width="0.5535" stroke-miterlimit="10" cx="180.43" cy="46.687" r="0.256"/>
	<circle fill="none" stroke="#79F2EC" stroke-width="0.5535" stroke-miterlimit="10" cx="180.43" cy="48.436" r="0.256"/>
	
		<line fill="none" stroke="#79F2EC" stroke-width="0.5535" stroke-miterlimit="10" x1="182.738" y1="47.645" x2="182.738" y2="42.087"/>
	<circle fill="none" stroke="#79F2EC" stroke-width="0.5535" stroke-miterlimit="10" cx="182.738" cy="42.234" r="0.257"/>
	<circle fill="none" stroke="#79F2EC" stroke-width="0.5535" stroke-miterlimit="10" cx="182.738" cy="47.645" r="0.257"/>
	
		<line fill="none" stroke="#79F2EC" stroke-width="0.5535" stroke-miterlimit="10" x1="185.048" y1="46.854" x2="185.048" y2="42.878"/>
	<circle fill="none" stroke="#79F2EC" stroke-width="0.5535" stroke-miterlimit="10" cx="185.049" cy="43.023" r="0.257"/>
	<circle fill="none" stroke="#79F2EC" stroke-width="0.5535" stroke-miterlimit="10" cx="185.049" cy="46.854" r="0.257"/>
	<circle fill="none" stroke="#79F2EC" stroke-width="0.5535" stroke-miterlimit="10" cx="173.498" cy="44.947" r="0.257"/>
	<circle fill="none" stroke="#79F2EC" stroke-width="0.5535" stroke-miterlimit="10" cx="175.809" cy="44.947" r="0.256"/>
	<circle fill="none" stroke="#79F2EC" stroke-width="0.5535" stroke-miterlimit="10" cx="178.117" cy="44.947" r="0.256"/>
	<circle fill="none" stroke="#79F2EC" stroke-width="0.5535" stroke-miterlimit="10" cx="182.738" cy="44.947" r="0.257"/>
	<circle fill="none" stroke="#79F2EC" stroke-width="0.5535" stroke-miterlimit="10" cx="185.049" cy="44.947" r="0.257"/>
	<circle fill="none" stroke="#79F2EC" stroke-width="0.5535" stroke-miterlimit="10" cx="186.887" cy="44.947" r="0.256"/>
	<circle fill="none" stroke="#79F2EC" stroke-width="0.5535" stroke-miterlimit="10" cx="171.188" cy="44.947" r="0.257"/>
	<circle fill="none" stroke="#79F2EC" stroke-width="0.5535" stroke-miterlimit="10" cx="178.117" cy="43.19" r="0.256"/>
	<circle fill="none" stroke="#79F2EC" stroke-width="0.5535" stroke-miterlimit="10" cx="178.117" cy="46.687" r="0.256"/>
	<path fill="none" stroke="#FFFFFF" stroke-width="0.5535" stroke-miterlimit="10" d="M179.195,40.378
		c-4.033,0-7.625,1.886-9.944,4.824c2.319,2.938,5.911,4.824,9.944,4.824s7.625-1.886,9.943-4.824
		C186.82,42.265,183.229,40.378,179.195,40.378z"/>
</g>
<g id="Signal_x5F_icon">
	<path fill="#1D1D1B" d="M32.77,68.897c0-6.146-4.979-11.125-11.121-11.125s-11.121,4.979-11.121,11.125
		c0,6.143,4.979,11.123,11.121,11.123S32.77,75.04,32.77,68.897"/>
	<path fill="none" stroke="#8C80FF" stroke-width="0.5535" stroke-miterlimit="10" d="M28.679,67.206
		c-0.479,0.434-0.754,1.049-0.754,1.691c0,0.642,0.275,1.26,0.754,1.688"/>
	<path fill="none" stroke="#8C80FF" stroke-width="0.5535" stroke-miterlimit="10" d="M26.822,65.146
		c-1.062,0.957-1.672,2.326-1.672,3.754c0,1.433,0.609,2.795,1.672,3.752"/>
	<path fill="none" stroke="#8C80FF" stroke-width="0.5535" stroke-miterlimit="10" d="M23.106,76.774
		c-2.229-2.008-3.507-4.879-3.507-7.877s1.278-5.869,3.507-7.877"/>
	<path fill="none" stroke="#8C80FF" stroke-width="0.5535" stroke-miterlimit="10" d="M24.964,74.712
		c-1.59-1.432-2.589-3.506-2.589-5.812c0-2.308,1-4.383,2.589-5.812"/>
	<path fill="none" stroke="#FFFFFF" stroke-width="0.5535" stroke-miterlimit="10" d="M14.234,70.589
		c0.479-0.432,0.754-1.049,0.754-1.689c0-0.642-0.275-1.26-0.754-1.688"/>
	<path fill="none" stroke="#FFFFFF" stroke-width="0.5535" stroke-miterlimit="10" d="M16.092,72.651
		c1.062-0.957,1.672-2.324,1.672-3.754c0-1.432-0.609-2.795-1.672-3.752"/>
	<path fill="none" stroke="#FFFFFF" stroke-width="0.5535" stroke-miterlimit="10" d="M19.807,61.021
		c2.229,2.008,3.507,4.879,3.507,7.877s-1.278,5.869-3.507,7.877"/>
	<path fill="none" stroke="#FFFFFF" stroke-width="0.5535" stroke-miterlimit="10" d="M17.949,63.083
		c1.589,1.434,2.589,3.506,2.589,5.814c0,2.308-1,4.383-2.589,5.812"/>
</g>
<g id="Black_x5F_lines">
	<g>
		
			<line fill="none" stroke="#1D1D1B" stroke-width="0.5535" stroke-miterlimit="10" x1="140.229" y1="45.005" x2="167.609" y2="45.005"/>
	</g>
	<g>
		
			<line fill="none" stroke="#1D1D1B" stroke-width="0.5535" stroke-miterlimit="10" x1="31.758" y1="68.928" x2="46.613" y2="68.928"/>
	</g>
	<g>
		
			<line fill="none" stroke="#1D1D1B" stroke-width="0.5535" stroke-miterlimit="10" x1="27.925" y1="32.472" x2="52.599" y2="32.472"/>
	</g>
	<g>
		
			<line fill="none" stroke="#1D1D1B" stroke-width="0.5535" stroke-miterlimit="10" x1="144.152" y1="18.389" x2="119.83" y2="18.389"/>
	</g>
	<g>
		
			<line fill="none" stroke="#1D1D1B" stroke-width="0.5535" stroke-miterlimit="10" x1="142.234" y1="91.478" x2="156.846" y2="91.478"/>
	</g>
</g>
<g>
	<g>
		<g>
			<g>
				<g>
					<g>
						<g>
							<g>
								<defs>
									<polygon id="SVGID_3_" points="74.016,102.7 101.723,115.286 73.916,115.286 									"/>
								</defs>
								<clipPath id="SVGID_4_">
									<use xlink:href="#SVGID_3_"  overflow="visible"/>
								</clipPath>
								
									<linearGradient id="SVGID_5_" gradientUnits="userSpaceOnUse" x1="-3395.9917" y1="-567.5381" x2="-3395.9126" y2="-567.5381" gradientTransform="matrix(351.6522 0 0 351.6522 1194282 199684.9219)">
									<stop  offset="0" style="stop-color:#79F2EC"/>
									<stop  offset="1" style="stop-color:#231F20"/>
								</linearGradient>
								
									<rect x="73.916" y="102.136" opacity="0.2" clip-path="url(#SVGID_4_)" fill="url(#SVGID_5_)" enable-background="new    " width="27.807" height="13.799"/>
							</g>
						</g>
					</g>
				</g>
			</g>
		</g>
	</g>
</g>
<g id="Text">
	<polygon fill="#1D1D1B" points="85.38,40.525 85.38,42.325 81.124,42.325 81.124,44.308 85.17,44.308 85.17,46.107 81.124,46.107 
		81.124,49.706 79.075,49.706 79.075,40.525 	"/>
	<path fill="#1D1D1B" d="M94.561,43.572c0,1.471-0.583,2.421-1.747,2.851l2.325,3.283h-2.522l-2.036-2.929h-1.418v2.929h-2.049
		v-9.181h3.481c1.427,0,2.445,0.241,3.054,0.722C94.257,41.729,94.561,42.504,94.561,43.572 M92.092,44.663
		c0.254-0.228,0.381-0.589,0.381-1.083s-0.131-0.834-0.394-1.018c-0.263-0.184-0.722-0.276-1.379-0.276h-1.537v2.719h1.497
		C91.36,45.003,91.838,44.891,92.092,44.663"/>
	<path fill="#1D1D1B" d="M104.293,48.438c-0.928,0.906-2.071,1.359-3.428,1.359c-1.357,0-2.5-0.454-3.428-1.359
		c-0.928-0.907-1.392-2.034-1.392-3.382c0-1.348,0.464-2.476,1.392-3.382c0.928-0.906,2.071-1.359,3.428-1.359
		c1.357,0,2.5,0.453,3.428,1.359c0.928,0.906,1.393,2.034,1.393,3.382C105.686,46.404,105.221,47.531,104.293,48.438
		 M103.598,45.062c0-0.818-0.264-1.517-0.789-2.095c-0.521-0.578-1.167-0.867-1.937-0.867s-1.412,0.289-1.938,0.867
		c-0.525,0.578-0.788,1.276-0.788,2.095s0.263,1.515,0.788,2.088c0.525,0.574,1.171,0.86,1.938,0.86c0.766,0,1.412-0.287,1.937-0.86
		C103.334,46.578,103.598,45.881,103.598,45.062"/>
	<polygon fill="#1D1D1B" points="115.643,43.927 113.16,48.944 111.938,48.944 109.469,43.927 109.469,49.706 107.42,49.706 
		107.42,40.524 110.191,40.524 112.555,45.568 114.934,40.524 117.691,40.524 117.691,49.706 115.643,49.706 	"/>
	<polygon fill="#1D1D1B" points="87.298,56.011 84.815,61.028 83.593,61.028 81.124,56.011 81.124,61.79 79.075,61.79 
		79.075,52.608 81.846,52.608 84.211,57.652 86.588,52.608 89.346,52.608 89.346,61.79 87.298,61.79 	"/>
	<path fill="#1D1D1B" d="M98.147,61.79l-0.854-1.982h-3.848l-0.854,1.982h-2.18l3.967-9.182h1.983l3.967,9.182H98.147z
		 M95.375,55.34l-1.156,2.667h2.299L95.375,55.34z"/>
	<polygon fill="#1D1D1B" points="107.814,52.608 109.863,52.608 109.863,61.79 107.814,61.79 103.439,56.037 103.439,61.79 
		101.391,61.79 101.391,52.608 103.309,52.608 107.814,58.521 	"/>
	<polygon fill="#1D1D1B" points="82.963,66.466 82.963,73.874 80.914,73.874 80.914,66.466 78.313,66.466 78.313,64.692 
		85.564,64.692 85.564,66.466 	"/>
	<path fill="#1D1D1B" d="M94.534,72.606c-0.928,0.906-2.071,1.354-3.428,1.354s-2.5-0.448-3.428-1.354
		c-0.929-0.906-1.393-2.033-1.393-3.383c0-1.353,0.464-2.479,1.393-3.388c0.928-0.901,2.071-1.354,3.428-1.354
		s2.5,0.453,3.428,1.354c0.928,0.906,1.393,2.035,1.393,3.388C95.927,70.573,95.463,71.7,94.534,72.606 M93.839,69.229
		c0-0.816-0.263-1.521-0.788-2.099c-0.525-0.573-1.171-0.862-1.938-0.862c-0.767,0-1.412,0.289-1.938,0.862
		c-0.526,0.578-0.788,1.275-0.788,2.099c0,0.816,0.263,1.518,0.788,2.09c0.525,0.572,1.171,0.855,1.938,0.855
		c0.766,0,1.412-0.283,1.938-0.855C93.577,70.747,93.839,70.05,93.839,69.229"/>
	<polygon fill="#1D1D1B" points="87.298,80.179 84.815,85.196 83.593,85.196 81.124,80.179 81.124,85.958 79.075,85.958 
		79.075,76.776 81.846,76.776 84.211,81.819 86.588,76.776 89.346,76.776 89.346,85.958 87.298,85.958 	"/>
	<path fill="#1D1D1B" d="M98.147,85.958l-0.854-1.982h-3.848l-0.854,1.982h-2.18l3.967-9.182h1.983l3.967,9.182H98.147z
		 M95.375,79.509l-1.156,2.667h2.299L95.375,79.509z"/>
	<path fill="#1D1D1B" d="M105.607,84.146c1.006,0,1.83-0.396,2.469-1.19l1.314,1.354c-1.043,1.174-2.271,1.762-3.688,1.762
		s-2.578-0.444-3.494-1.34c-0.915-0.896-1.373-2.021-1.373-3.387c0-1.357,0.466-2.494,1.399-3.404
		c0.932-0.91,2.075-1.366,3.42-1.366c1.507,0,2.768,0.573,3.779,1.723l-1.271,1.442c-0.646-0.807-1.453-1.209-2.416-1.209
		c-0.771,0-1.434,0.253-1.979,0.758c-0.551,0.503-0.819,1.181-0.819,2.033c0,0.854,0.257,1.539,0.772,2.06
		C104.246,83.886,104.871,84.146,105.607,84.146"/>
	<polygon fill="#1D1D1B" points="116.705,76.776 118.755,76.776 118.755,85.958 116.705,85.958 116.705,82.345 113.055,82.345 
		113.055,85.958 111.006,85.958 111.006,76.776 113.055,76.776 113.055,80.612 116.705,80.612 	"/>
	<rect x="121.016" y="76.776" fill="#1D1D1B" width="2.049" height="9.182"/>
	<polygon fill="#1D1D1B" points="131.744,76.776 133.794,76.776 133.794,85.958 131.744,85.958 127.369,80.204 127.369,85.958 
		125.322,85.958 125.322,76.776 127.238,76.776 131.744,82.687 	"/>
	<polygon fill="#1D1D1B" points="142.673,76.776 142.673,78.603 138.104,78.603 138.104,80.493 142.212,80.493 142.212,82.239 
		138.104,82.239 138.104,84.146 142.818,84.146 142.818,85.958 136.052,85.958 136.052,76.776 	"/>
	<g>
		<path d="M81.629,94.935h-0.391v-1.582h-1.771v1.582h-0.391v-3.361h0.391v1.431h1.771v-1.431h0.391V94.935z"/>
		<path d="M84.67,93.672c0,0.411-0.104,0.731-0.311,0.963c-0.207,0.23-0.493,0.347-0.858,0.347c-0.226,0-0.425-0.054-0.6-0.158
			c-0.175-0.106-0.31-0.258-0.405-0.456c-0.095-0.197-0.143-0.429-0.143-0.694c0-0.41,0.103-0.73,0.308-0.96
			s0.491-0.344,0.855-0.344c0.353,0,0.633,0.116,0.84,0.353C84.566,92.954,84.67,93.271,84.67,93.672z M82.75,93.672
			c0,0.322,0.064,0.567,0.193,0.736c0.129,0.168,0.318,0.253,0.568,0.253s0.439-0.084,0.569-0.252
			c0.13-0.168,0.194-0.414,0.194-0.737c0-0.319-0.064-0.563-0.194-0.729c-0.129-0.166-0.321-0.25-0.574-0.25
			c-0.25,0-0.438,0.082-0.565,0.246S82.75,93.347,82.75,93.672z"/>
		<path d="M87.397,94.935l-0.462-1.479c-0.029-0.091-0.083-0.296-0.164-0.616h-0.018c-0.062,0.269-0.115,0.476-0.161,0.62
			l-0.476,1.475h-0.441l-0.688-2.521h0.4c0.163,0.633,0.286,1.114,0.372,1.446c0.085,0.33,0.133,0.555,0.146,0.67h0.018
			c0.017-0.088,0.044-0.201,0.082-0.34c0.038-0.14,0.07-0.25,0.098-0.33l0.462-1.446h0.414l0.451,1.446
			c0.086,0.264,0.144,0.484,0.175,0.664h0.019c0.006-0.056,0.022-0.141,0.049-0.256c0.027-0.113,0.187-0.732,0.479-1.854h0.396
			l-0.697,2.521H87.397z"/>
		<path d="M91.318,94.935h-0.391V91.92h-1.065v-0.349h2.521v0.349h-1.065V94.935z"/>
		<path d="M93.896,94.979c-0.373,0-0.667-0.112-0.882-0.34c-0.215-0.228-0.323-0.541-0.323-0.945c0-0.405,0.1-0.729,0.3-0.969
			c0.2-0.238,0.469-0.357,0.806-0.357c0.316,0,0.566,0.104,0.75,0.312c0.184,0.207,0.276,0.48,0.276,0.821v0.241h-1.736
			c0.007,0.296,0.083,0.521,0.224,0.674c0.141,0.152,0.341,0.23,0.599,0.23c0.271,0,0.54-0.058,0.805-0.172v0.342
			c-0.135,0.059-0.262,0.1-0.383,0.125C94.212,94.968,94.066,94.979,93.896,94.979z M93.793,92.688
			c-0.203,0-0.364,0.065-0.484,0.197c-0.12,0.133-0.191,0.314-0.212,0.547h1.317c0-0.24-0.054-0.425-0.161-0.553
			C94.146,92.752,93.992,92.688,93.793,92.688z"/>
		<path d="M96.481,94.979c-0.365,0-0.647-0.111-0.848-0.336c-0.2-0.226-0.3-0.543-0.3-0.953c0-0.422,0.102-0.748,0.305-0.979
			c0.203-0.229,0.492-0.345,0.868-0.345c0.121,0,0.242,0.013,0.363,0.039s0.216,0.057,0.285,0.092l-0.117,0.324
			c-0.084-0.033-0.176-0.062-0.276-0.085c-0.1-0.021-0.188-0.032-0.265-0.032c-0.512,0-0.768,0.326-0.768,0.979
			c0,0.31,0.062,0.547,0.188,0.713c0.125,0.166,0.31,0.248,0.555,0.248c0.21,0,0.425-0.045,0.646-0.136v0.339
			C96.949,94.937,96.737,94.979,96.481,94.979z"/>
		<path d="M99.441,94.935v-1.631c0-0.205-0.046-0.357-0.14-0.46c-0.093-0.101-0.24-0.151-0.439-0.151
			c-0.266,0-0.459,0.072-0.581,0.217s-0.183,0.381-0.183,0.709v1.316h-0.382v-3.578h0.382v1.084c0,0.129-0.006,0.238-0.019,0.324
			h0.023c0.075-0.121,0.182-0.218,0.321-0.287s0.297-0.104,0.475-0.104c0.308,0,0.539,0.072,0.693,0.219s0.231,0.381,0.231,0.698
			v1.646h-0.381V94.935z"/>
		<path d="M102.332,94.935v-1.631c0-0.205-0.046-0.357-0.14-0.46c-0.093-0.101-0.24-0.151-0.439-0.151
			c-0.264,0-0.457,0.072-0.58,0.215s-0.184,0.378-0.184,0.705v1.322h-0.382v-2.521h0.311l0.062,0.345H101
			c0.078-0.124,0.188-0.22,0.329-0.287c0.141-0.068,0.298-0.104,0.472-0.104c0.303,0,0.532,0.072,0.685,0.22s0.229,0.38,0.229,0.702
			v1.645H102.332z"/>
		<path d="M105.673,93.672c0,0.411-0.104,0.731-0.311,0.963c-0.207,0.23-0.492,0.347-0.856,0.347c-0.227,0-0.426-0.054-0.601-0.158
			c-0.175-0.106-0.31-0.258-0.405-0.456c-0.095-0.197-0.143-0.429-0.143-0.694c0-0.41,0.104-0.73,0.309-0.96
			c0.204-0.229,0.49-0.344,0.854-0.344c0.354,0,0.632,0.116,0.841,0.353C105.569,92.954,105.673,93.271,105.673,93.672z
			 M103.754,93.672c0,0.322,0.063,0.567,0.192,0.736c0.129,0.168,0.317,0.253,0.567,0.253c0.251,0,0.439-0.084,0.569-0.252
			c0.131-0.168,0.194-0.414,0.194-0.737c0-0.319-0.063-0.563-0.194-0.729c-0.13-0.166-0.32-0.25-0.573-0.25
			c-0.25,0-0.438,0.082-0.565,0.246S103.754,93.347,103.754,93.672z"/>
		<path d="M106.724,94.935h-0.381v-3.578h0.381V94.935z"/>
		<path d="M109.71,93.672c0,0.411-0.104,0.731-0.312,0.963c-0.207,0.23-0.492,0.347-0.856,0.347c-0.227,0-0.427-0.054-0.602-0.158
			c-0.176-0.106-0.311-0.258-0.404-0.456c-0.096-0.197-0.143-0.429-0.143-0.694c0-0.41,0.103-0.73,0.308-0.96
			c0.206-0.229,0.491-0.344,0.854-0.344c0.354,0,0.634,0.116,0.842,0.353C109.605,92.956,109.71,93.271,109.71,93.672z
			 M107.789,93.672c0,0.322,0.064,0.567,0.193,0.736c0.129,0.168,0.317,0.253,0.567,0.253s0.439-0.084,0.568-0.252
			c0.131-0.168,0.194-0.414,0.194-0.737c0-0.319-0.063-0.563-0.194-0.729c-0.129-0.166-0.32-0.25-0.572-0.25
			c-0.25,0-0.438,0.082-0.566,0.246C107.853,93.103,107.789,93.347,107.789,93.672z"/>
		<path d="M112.442,92.414v0.241l-0.467,0.056c0.043,0.054,0.08,0.124,0.115,0.21c0.032,0.087,0.049,0.186,0.049,0.293
			c0,0.247-0.084,0.444-0.252,0.592c-0.168,0.146-0.399,0.221-0.694,0.221c-0.075,0-0.146-0.006-0.212-0.019
			c-0.162,0.086-0.243,0.194-0.243,0.324c0,0.069,0.028,0.12,0.085,0.153c0.057,0.031,0.154,0.049,0.292,0.049h0.446
			c0.271,0,0.482,0.058,0.629,0.173c0.146,0.114,0.22,0.282,0.22,0.501c0,0.279-0.112,0.492-0.336,0.639
			c-0.224,0.147-0.551,0.221-0.979,0.221c-0.33,0-0.584-0.062-0.762-0.186c-0.18-0.122-0.269-0.296-0.269-0.52
			c0-0.153,0.049-0.286,0.147-0.397c0.098-0.112,0.234-0.188,0.412-0.229c-0.062-0.027-0.117-0.073-0.162-0.135
			c-0.043-0.062-0.064-0.133-0.064-0.213c0-0.094,0.023-0.174,0.074-0.242c0.049-0.068,0.125-0.137,0.231-0.201
			c-0.131-0.053-0.237-0.145-0.319-0.272s-0.123-0.274-0.123-0.44c0-0.276,0.084-0.488,0.25-0.64
			c0.164-0.149,0.398-0.224,0.703-0.224c0.131,0,0.25,0.016,0.355,0.046H112.442z M110.433,95.356c0,0.138,0.058,0.24,0.172,0.312
			c0.115,0.069,0.279,0.106,0.494,0.106c0.32,0,0.559-0.049,0.712-0.146c0.153-0.096,0.231-0.226,0.231-0.39
			c0-0.137-0.043-0.23-0.127-0.284c-0.085-0.054-0.242-0.079-0.477-0.079h-0.458c-0.173,0-0.308,0.042-0.404,0.124
			C110.48,95.084,110.433,95.203,110.433,95.356z M110.64,93.222c0,0.176,0.05,0.311,0.148,0.399c0.1,0.091,0.238,0.136,0.416,0.136
			c0.372,0,0.559-0.181,0.559-0.543c0-0.378-0.188-0.566-0.564-0.566c-0.18,0-0.316,0.047-0.414,0.145
			C110.688,92.89,110.64,93.031,110.64,93.222z"/>
		<path d="M112.56,92.414h0.408l0.553,1.438c0.121,0.328,0.195,0.563,0.226,0.709h0.019c0.021-0.078,0.062-0.211,0.125-0.399
			c0.063-0.188,0.271-0.772,0.625-1.747h0.41l-1.084,2.87c-0.106,0.282-0.232,0.483-0.377,0.604
			c-0.143,0.118-0.318,0.178-0.526,0.178c-0.116,0-0.231-0.014-0.345-0.039v-0.307c0.084,0.02,0.179,0.028,0.281,0.028
			c0.264,0,0.449-0.147,0.562-0.44l0.141-0.359L112.56,92.414z"/>
		<path d="M116.613,94.935v-3.361h0.392v3.361H116.613z"/>
		<path d="M119.495,94.247c0,0.234-0.087,0.415-0.262,0.543c-0.176,0.127-0.42,0.189-0.736,0.189c-0.334,0-0.595-0.053-0.781-0.157
			v-0.354c0.121,0.062,0.252,0.109,0.391,0.145c0.139,0.037,0.271,0.054,0.4,0.054c0.199,0,0.354-0.031,0.461-0.095
			c0.106-0.064,0.16-0.161,0.16-0.291c0-0.1-0.043-0.184-0.127-0.252c-0.086-0.069-0.252-0.152-0.498-0.247
			c-0.234-0.089-0.401-0.164-0.5-0.229c-0.1-0.064-0.174-0.139-0.222-0.222c-0.049-0.083-0.071-0.183-0.071-0.297
			c0-0.205,0.082-0.367,0.25-0.486c0.166-0.118,0.396-0.178,0.688-0.178c0.271,0,0.537,0.055,0.796,0.165l-0.136,0.311
			c-0.254-0.104-0.481-0.156-0.688-0.156c-0.181,0-0.317,0.028-0.409,0.086c-0.092,0.057-0.138,0.135-0.138,0.234
			c0,0.067,0.017,0.124,0.052,0.172c0.034,0.049,0.09,0.094,0.166,0.137c0.077,0.043,0.225,0.104,0.442,0.187
			c0.299,0.108,0.501,0.22,0.604,0.329C119.443,93.94,119.495,94.08,119.495,94.247z"/>
		<path d="M79.076,97.226h0.95c0.446,0,0.769,0.065,0.968,0.199c0.199,0.133,0.299,0.344,0.299,0.633
			c0,0.199-0.056,0.363-0.167,0.493c-0.111,0.13-0.273,0.214-0.487,0.252v0.022c0.511,0.088,0.766,0.355,0.766,0.805
			c0,0.301-0.102,0.535-0.305,0.704c-0.203,0.169-0.487,0.253-0.852,0.253h-1.173L79.076,97.226L79.076,97.226z M79.467,98.664
			h0.644c0.276,0,0.475-0.043,0.596-0.13c0.121-0.087,0.182-0.232,0.182-0.438c0-0.189-0.067-0.326-0.202-0.408
			c-0.135-0.084-0.35-0.127-0.644-0.127h-0.576V98.664z M79.467,98.995v1.259h0.702c0.271,0,0.476-0.053,0.613-0.157
			c0.137-0.104,0.206-0.271,0.206-0.494c0-0.207-0.07-0.36-0.21-0.459c-0.141-0.099-0.354-0.147-0.641-0.147L79.467,98.995
			L79.467,98.995z"/>
		<path d="M82.429,98.065v1.636c0,0.206,0.046,0.358,0.14,0.46c0.094,0.102,0.24,0.152,0.439,0.152c0.264,0,0.457-0.072,0.578-0.217
			c0.122-0.145,0.183-0.38,0.183-0.707v-1.324h0.381v2.521h-0.313l-0.055-0.338h-0.021c-0.078,0.124-0.187,0.219-0.326,0.285
			c-0.139,0.064-0.297,0.099-0.475,0.099c-0.307,0-0.537-0.071-0.689-0.219c-0.152-0.146-0.229-0.378-0.229-0.699v-1.647h0.387
			V98.065z"/>
		<path d="M84.929,97.383c0-0.087,0.021-0.151,0.064-0.19c0.043-0.041,0.097-0.062,0.161-0.062c0.061,0,0.114,0.021,0.159,0.062
			c0.044,0.041,0.066,0.104,0.066,0.189c0,0.086-0.022,0.15-0.066,0.192c-0.045,0.042-0.098,0.063-0.159,0.063
			c-0.064,0-0.118-0.021-0.161-0.063S84.929,97.469,84.929,97.383z M85.343,100.587h-0.382v-2.521h0.382V100.587z"/>
		<path d="M86.534,100.587h-0.382v-3.578h0.382V100.587z"/>
		<path d="M89.061,100.249h-0.021c-0.176,0.256-0.44,0.384-0.791,0.384c-0.33,0-0.586-0.112-0.77-0.338
			c-0.183-0.226-0.274-0.546-0.274-0.961c0-0.416,0.092-0.737,0.276-0.969c0.184-0.229,0.44-0.345,0.768-0.345
			c0.342,0,0.604,0.123,0.787,0.371h0.03l-0.016-0.182l-0.009-0.177v-1.025h0.382v3.578h-0.311L89.061,100.249z M88.296,100.313
			c0.261,0,0.45-0.071,0.567-0.213c0.117-0.143,0.176-0.371,0.176-0.688v-0.08c0-0.357-0.06-0.611-0.178-0.766
			c-0.119-0.152-0.309-0.229-0.569-0.229c-0.224,0-0.395,0.087-0.514,0.261c-0.119,0.176-0.178,0.42-0.178,0.737
			c0,0.322,0.059,0.565,0.177,0.729C87.895,100.231,88.068,100.313,88.296,100.313z"/>
		<path d="M90.198,97.383c0-0.087,0.021-0.151,0.064-0.19c0.043-0.041,0.097-0.062,0.161-0.062c0.061,0,0.114,0.021,0.159,0.062
			c0.044,0.041,0.066,0.104,0.066,0.189c0,0.086-0.022,0.15-0.066,0.192c-0.045,0.042-0.098,0.063-0.159,0.063
			c-0.064,0-0.118-0.021-0.161-0.063S90.198,97.469,90.198,97.383z M90.612,100.587H90.23v-2.521h0.382V100.587z"/>
		<path d="M93.146,100.587v-1.631c0-0.205-0.046-0.357-0.14-0.46c-0.093-0.101-0.24-0.151-0.439-0.151
			c-0.264,0-0.457,0.071-0.58,0.215c-0.123,0.143-0.184,0.377-0.184,0.705v1.322h-0.382v-2.521h0.311l0.062,0.346h0.019
			c0.078-0.124,0.188-0.221,0.329-0.288c0.141-0.067,0.298-0.103,0.472-0.103c0.303,0,0.532,0.072,0.685,0.22s0.23,0.38,0.23,0.702
			v1.645H93.146z"/>
		<path d="M96.375,98.065v0.242l-0.467,0.055c0.043,0.055,0.081,0.125,0.115,0.211c0.034,0.087,0.051,0.185,0.051,0.293
			c0,0.246-0.084,0.443-0.253,0.592c-0.169,0.146-0.4,0.221-0.695,0.221c-0.075,0-0.146-0.006-0.211-0.019
			c-0.163,0.086-0.244,0.194-0.244,0.323c0,0.07,0.028,0.121,0.085,0.154c0.057,0.031,0.154,0.049,0.292,0.049h0.446
			c0.273,0,0.482,0.058,0.629,0.172c0.147,0.115,0.22,0.283,0.22,0.502c0,0.279-0.112,0.492-0.336,0.639s-0.55,0.22-0.979,0.22
			c-0.33,0-0.584-0.062-0.763-0.185c-0.178-0.122-0.268-0.297-0.268-0.52c0-0.154,0.049-0.287,0.147-0.397
			c0.098-0.112,0.236-0.188,0.414-0.229c-0.064-0.027-0.119-0.074-0.162-0.135c-0.044-0.062-0.065-0.133-0.065-0.214
			c0-0.093,0.024-0.173,0.073-0.242c0.049-0.067,0.126-0.136,0.232-0.2c-0.13-0.054-0.236-0.145-0.318-0.272
			s-0.123-0.275-0.123-0.441c0-0.276,0.083-0.487,0.248-0.639c0.166-0.149,0.4-0.224,0.704-0.224c0.132,0,0.25,0.016,0.356,0.045
			H96.375z M94.365,101.01c0,0.138,0.058,0.24,0.173,0.312c0.115,0.07,0.28,0.105,0.494,0.105c0.32,0,0.558-0.049,0.712-0.145
			c0.154-0.096,0.231-0.227,0.231-0.391c0-0.137-0.042-0.229-0.126-0.283c-0.084-0.053-0.243-0.08-0.476-0.08h-0.458
			c-0.173,0-0.308,0.043-0.405,0.125S94.365,100.854,94.365,101.01z M94.572,98.874c0,0.176,0.05,0.311,0.149,0.398
			c0.1,0.092,0.239,0.137,0.417,0.137c0.373,0,0.559-0.182,0.559-0.543c0-0.379-0.188-0.567-0.565-0.567
			c-0.18,0-0.317,0.048-0.414,0.146C94.621,98.541,94.572,98.685,94.572,98.874z"/>
		<path d="M100.292,99.324c0,0.411-0.104,0.731-0.311,0.963c-0.207,0.229-0.493,0.346-0.858,0.346c-0.226,0-0.425-0.053-0.6-0.157
			c-0.175-0.106-0.31-0.259-0.405-0.457c-0.095-0.197-0.143-0.429-0.143-0.693c0-0.411,0.103-0.73,0.308-0.96
			c0.205-0.23,0.491-0.345,0.855-0.345c0.353,0,0.633,0.117,0.84,0.353C100.188,98.606,100.292,98.924,100.292,99.324z
			 M98.372,99.324c0,0.321,0.064,0.567,0.193,0.735s0.318,0.254,0.568,0.254s0.439-0.084,0.569-0.252
			c0.13-0.168,0.194-0.414,0.194-0.737c0-0.32-0.064-0.563-0.194-0.73c-0.129-0.166-0.321-0.249-0.574-0.249
			c-0.25,0-0.438,0.082-0.565,0.246C98.436,98.755,98.372,98.999,98.372,99.324z"/>
		<path d="M102.687,100.587v-1.631c0-0.205-0.046-0.357-0.14-0.46c-0.094-0.101-0.241-0.151-0.439-0.151
			c-0.264,0-0.457,0.071-0.58,0.215c-0.123,0.143-0.184,0.377-0.184,0.705v1.322h-0.382v-2.521h0.311l0.062,0.346h0.019
			c0.078-0.124,0.188-0.221,0.329-0.288c0.141-0.067,0.298-0.103,0.472-0.103c0.303,0,0.532,0.072,0.686,0.22
			c0.152,0.147,0.229,0.38,0.229,0.702v1.645H102.687z"/>
		<path d="M108.052,98.901c0,0.537-0.138,0.961-0.408,1.27c-0.272,0.309-0.65,0.462-1.135,0.462c-0.496,0-0.879-0.151-1.146-0.454
			c-0.27-0.303-0.404-0.729-0.404-1.281c0-0.547,0.137-0.973,0.405-1.272c0.271-0.302,0.653-0.452,1.149-0.452
			c0.482,0,0.859,0.153,1.132,0.46C107.917,97.94,108.052,98.36,108.052,98.901z M105.372,98.901c0,0.455,0.098,0.801,0.291,1.035
			c0.194,0.235,0.477,0.354,0.846,0.354c0.373,0,0.653-0.117,0.845-0.352c0.19-0.235,0.284-0.58,0.284-1.037
			c0-0.452-0.094-0.797-0.283-1.029s-0.471-0.352-0.842-0.352s-0.654,0.117-0.85,0.354C105.47,98.108,105.372,98.452,105.372,98.901
			z"/>
		<path d="M109.103,98.065v1.636c0,0.206,0.047,0.358,0.141,0.46s0.239,0.152,0.438,0.152c0.265,0,0.457-0.072,0.58-0.217
			c0.121-0.145,0.183-0.38,0.183-0.707v-1.324h0.382v2.521h-0.314l-0.056-0.338h-0.021c-0.078,0.124-0.188,0.219-0.325,0.285
			c-0.14,0.064-0.297,0.099-0.476,0.099c-0.307,0-0.535-0.071-0.688-0.219c-0.152-0.146-0.229-0.378-0.229-0.699v-1.647h0.385
			V98.065z"/>
		<path d="M112.784,98.021c0.112,0,0.212,0.01,0.301,0.027l-0.053,0.354c-0.104-0.022-0.195-0.034-0.275-0.034
			c-0.203,0-0.379,0.083-0.522,0.249c-0.146,0.165-0.218,0.371-0.218,0.617v1.354h-0.383v-2.521h0.315l0.044,0.468h0.02
			c0.093-0.164,0.205-0.291,0.338-0.38C112.482,98.063,112.626,98.021,112.784,98.021z"/>
		<path d="M116.735,99.692c0,0.295-0.107,0.525-0.321,0.691c-0.215,0.165-0.507,0.248-0.874,0.248c-0.398,0-0.705-0.051-0.92-0.154
			v-0.377c0.139,0.06,0.288,0.104,0.45,0.139c0.163,0.033,0.323,0.051,0.483,0.051c0.261,0,0.457-0.049,0.588-0.148
			c0.133-0.099,0.197-0.235,0.197-0.412c0-0.117-0.022-0.211-0.069-0.287c-0.048-0.073-0.125-0.143-0.234-0.205
			c-0.108-0.062-0.276-0.135-0.5-0.213c-0.312-0.112-0.536-0.246-0.671-0.398c-0.134-0.152-0.201-0.354-0.201-0.6
			c0-0.26,0.098-0.467,0.292-0.619c0.195-0.153,0.453-0.229,0.773-0.229c0.334,0,0.642,0.061,0.922,0.184l-0.122,0.34
			c-0.277-0.116-0.547-0.174-0.811-0.174c-0.207,0-0.367,0.043-0.484,0.133c-0.116,0.089-0.176,0.213-0.176,0.37
			c0,0.116,0.021,0.212,0.064,0.286s0.115,0.143,0.219,0.205c0.102,0.062,0.258,0.131,0.467,0.205
			c0.354,0.127,0.597,0.262,0.729,0.404C116.669,99.274,116.735,99.462,116.735,99.692z"/>
		<path d="M118.431,100.633c-0.373,0-0.668-0.112-0.883-0.34s-0.322-0.542-0.322-0.944c0-0.406,0.1-0.729,0.3-0.97
			c0.2-0.239,0.469-0.358,0.808-0.358c0.314,0,0.564,0.104,0.748,0.312c0.186,0.208,0.276,0.48,0.276,0.822v0.24h-1.736
			c0.009,0.297,0.082,0.521,0.224,0.674c0.144,0.154,0.343,0.23,0.601,0.23c0.271,0,0.54-0.057,0.806-0.171v0.341
			c-0.136,0.059-0.264,0.1-0.384,0.125S118.601,100.633,118.431,100.633z M118.327,98.34c-0.201,0-0.363,0.066-0.484,0.198
			c-0.119,0.132-0.19,0.314-0.213,0.547h1.318c0-0.24-0.054-0.425-0.161-0.553C118.681,98.403,118.526,98.34,118.327,98.34z"/>
		<path d="M121.733,100.587v-1.631c0-0.205-0.047-0.357-0.141-0.46c-0.094-0.101-0.24-0.151-0.439-0.151
			c-0.264,0-0.457,0.071-0.579,0.215c-0.123,0.143-0.185,0.377-0.185,0.705v1.322h-0.383v-2.521h0.312l0.062,0.346h0.02
			c0.078-0.124,0.188-0.221,0.329-0.288c0.141-0.067,0.298-0.103,0.471-0.103c0.304,0,0.532,0.072,0.687,0.22
			c0.153,0.147,0.229,0.38,0.229,0.702v1.645H121.733z"/>
		<path d="M124.524,99.899c0,0.233-0.087,0.414-0.262,0.543c-0.176,0.127-0.42,0.189-0.736,0.189c-0.334,0-0.596-0.053-0.781-0.158
			v-0.354c0.121,0.062,0.251,0.109,0.391,0.145c0.139,0.036,0.271,0.053,0.4,0.053c0.199,0,0.354-0.03,0.46-0.094
			c0.107-0.064,0.161-0.162,0.161-0.291c0-0.1-0.043-0.184-0.128-0.252c-0.085-0.07-0.251-0.152-0.498-0.248
			c-0.233-0.088-0.401-0.164-0.5-0.229s-0.173-0.139-0.221-0.223c-0.05-0.082-0.072-0.182-0.072-0.297
			c0-0.205,0.083-0.367,0.25-0.485s0.396-0.179,0.688-0.179c0.271,0,0.537,0.056,0.795,0.166l-0.135,0.311
			c-0.254-0.104-0.481-0.156-0.688-0.156c-0.181,0-0.317,0.028-0.409,0.085c-0.092,0.058-0.138,0.136-0.138,0.235
			c0,0.066,0.017,0.124,0.052,0.172c0.034,0.048,0.09,0.093,0.166,0.136c0.077,0.044,0.225,0.105,0.441,0.188
			c0.3,0.108,0.502,0.219,0.605,0.329C124.472,99.594,124.524,99.731,124.524,99.899z"/>
		<path d="M126.212,100.633c-0.373,0-0.668-0.112-0.883-0.34c-0.216-0.228-0.322-0.542-0.322-0.944c0-0.406,0.1-0.729,0.299-0.97
			c0.201-0.239,0.47-0.358,0.808-0.358c0.315,0,0.565,0.104,0.749,0.312c0.186,0.208,0.275,0.48,0.275,0.822v0.24h-1.735
			c0.008,0.297,0.082,0.521,0.224,0.674c0.144,0.154,0.342,0.23,0.6,0.23c0.271,0,0.541-0.057,0.806-0.171v0.341
			c-0.135,0.059-0.263,0.1-0.383,0.125S126.382,100.633,126.212,100.633z M126.107,98.34c-0.202,0-0.364,0.066-0.483,0.198
			c-0.121,0.132-0.191,0.314-0.214,0.547h1.318c0-0.24-0.054-0.425-0.161-0.553C126.46,98.403,126.306,98.34,126.107,98.34z"/>
		<path d="M129.414,99.899c0,0.233-0.087,0.414-0.262,0.543c-0.175,0.127-0.42,0.189-0.735,0.189c-0.334,0-0.596-0.053-0.781-0.158
			v-0.354c0.121,0.062,0.25,0.109,0.39,0.145c0.139,0.036,0.272,0.053,0.401,0.053c0.199,0,0.353-0.03,0.459-0.094
			c0.107-0.064,0.162-0.162,0.162-0.291c0-0.1-0.043-0.184-0.129-0.252c-0.084-0.07-0.25-0.152-0.498-0.248
			c-0.233-0.088-0.4-0.164-0.5-0.229c-0.099-0.064-0.172-0.139-0.221-0.223c-0.049-0.082-0.072-0.182-0.072-0.297
			c0-0.205,0.084-0.367,0.25-0.485c0.168-0.118,0.396-0.179,0.688-0.179c0.271,0,0.537,0.056,0.796,0.166l-0.136,0.311
			c-0.253-0.104-0.481-0.156-0.688-0.156c-0.181,0-0.316,0.028-0.408,0.085c-0.093,0.058-0.139,0.136-0.139,0.235
			c0,0.066,0.018,0.124,0.053,0.172c0.033,0.048,0.09,0.093,0.166,0.136c0.076,0.044,0.225,0.105,0.441,0.188
			c0.299,0.108,0.501,0.219,0.605,0.329C129.362,99.594,129.414,99.731,129.414,99.899z"/>
	</g>
</g>
</svg>
