<svg version="1.1" id="Layer_1" xmlns="http://www.w3.org/2000/svg" xmlns:xlink="http://www.w3.org/1999/xlink" x="0px" y="0px"
	 width="203.625px" height="115.42px" viewBox="0 0 203.625 115.42" enable-background="new 0 0 203.625 115.42"
	 xml:space="preserve">
	<rect id="BG" y="-0.019" fill="#62D4B2" width="203.625" height="115.42"/>
	<g id="White_x5F_Lines">
		<g>
			<path fill="none" stroke="#79F2EC" stroke-width="0.5535" stroke-miterlimit="10" d="M57.695,31.201v-6.109
				c0-6.934-5.621-12.555-12.555-12.555h-1.217c-6.934,0-12.555-5.621-12.555-12.555"/>
			<path fill="none" stroke="#79F2EC" stroke-width="0.5535" stroke-miterlimit="10" d="M0,99.72h22.663
				c8.313,0,15.053-6.74,15.053-15.053V57.073c0-6.934,5.621-12.555,12.555-12.555h69.563v-26.27c0-5.21,4.188-9.51,9.398-9.521
				c5.223-0.011,9.461,4.22,9.461,9.441v5.38c0,6.892,5.586,12.478,12.479,12.478h20.07c4.393,0,7.953,3.561,7.953,7.954v0.965
				c0,4.393-3.562,7.954-7.953,7.954h-1.777c-4.393,0-7.955,3.561-7.955,7.954v54.547"/>
			<path fill="none" stroke="#79F2EC" stroke-width="0.5535" stroke-miterlimit="10" d="M0,50.685h2.561
				c9.934,0,17.986,8.052,17.986,17.986v20.096c0,10.512,8.521,19.033,19.033,19.033h15.093c4.198,0,7.602,3.402,7.602,7.6"/>
			<path fill="none" stroke="#79F2EC" stroke-width="0.5535" stroke-miterlimit="10" d="M146.591,115.399v-13.607
				c0-9.426,7.642-17.066,17.065-17.066h13.59c9.429,0,17.068-7.643,17.068-17.067V-0.018"/>
			<path fill="none" stroke="#79F2EC" stroke-width="0.5535" stroke-miterlimit="10" d="M0,6.804h80.491
				c4.197,0,7.599-3.402,7.599-7.599v-0.101"/>
			<path fill="none" stroke="#79F2EC" stroke-width="0.5535" stroke-miterlimit="10" d="M174.966-0.019v5.166
				c0,8.749,7.093,15.841,15.841,15.841h12.816"/>

				<line fill="none" stroke="#79F2EC" stroke-width="0.5535" stroke-miterlimit="10" x1="194.316" y1="69.124" x2="194.316" y2="115.399"/>
		</g>
		<g>

				<line fill="none" stroke="#79F2EC" stroke-width="0.5535" stroke-miterlimit="10" x1="125.572" y1="45.005" x2="167.609" y2="45.005"/>
			<path fill="#79F2EC" d="M102.143,44.806c0-0.702-0.569-1.271-1.271-1.271s-1.271,0.569-1.271,1.271
				c0,0.702,0.569,1.271,1.271,1.271S102.143,45.507,102.143,44.806"/>

				<line fill="none" stroke="#FFFFFF" stroke-width="0.5535" stroke-miterlimit="10" x1="125.376" y1="91.478" x2="156.846" y2="91.478"/>
			<path fill="#79F2EC" d="M102.143,18.389c0-0.702-0.569-1.271-1.271-1.271s-1.271,0.569-1.271,1.271
				c0,0.702,0.569,1.271,1.271,1.271S102.143,19.09,102.143,18.389"/>
			<path fill="#79F2EC" d="M58.965,44.52c0-0.702-0.569-1.271-1.271-1.271c-0.702,0-1.271,0.569-1.271,1.271s0.569,1.271,1.271,1.271
				C58.396,45.791,58.965,45.222,58.965,44.52"/>
			<path fill="#79F2EC" d="M58.965,56.597c0-0.702-0.569-1.271-1.271-1.271c-0.702,0-1.271,0.569-1.271,1.271
				c0,0.702,0.569,1.271,1.271,1.271C58.396,57.867,58.965,57.298,58.965,56.597"/>
			<path fill="#79F2EC" d="M39.041,56.597c0-0.702-0.569-1.271-1.271-1.271s-1.271,0.569-1.271,1.271
				c0,0.702,0.569,1.271,1.271,1.271C38.472,57.867,39.041,57.298,39.041,56.597"/>
			<path fill="#62D4B2" d="M196.988,29.974c0-1.477-1.195-2.674-2.674-2.674c-1.478,0-2.674,1.197-2.674,2.674
				s1.196,2.674,2.674,2.674C195.792,32.647,196.988,31.45,196.988,29.974"/>
			<circle fill="none" stroke="#79F2EC" stroke-width="0.5535" stroke-miterlimit="10" cx="194.316" cy="29.973" r="2.674"/>
			<path fill="#62D4B2" d="M164.184,63.354c0-1.478-1.197-2.674-2.675-2.674s-2.674,1.196-2.674,2.674
				c0,1.479,1.196,2.674,2.674,2.674S164.184,64.831,164.184,63.354"/>
			<circle fill="none" stroke="#79F2EC" stroke-width="0.5535" stroke-miterlimit="10" cx="161.509" cy="63.354" r="2.674"/>
			<path fill="#62D4B2" d="M196.988,99.278c0-1.478-1.195-2.674-2.674-2.674c-1.478,0-2.674,1.196-2.674,2.674
				c0,1.477,1.196,2.674,2.674,2.674S196.988,100.755,196.988,99.278"/>
			<circle fill="none" stroke="#79F2EC" stroke-width="0.5535" stroke-miterlimit="10" cx="194.316" cy="99.278" r="2.674"/>
			<path fill="#62D4B2" d="M63.678,6.804c0-1.477-1.197-2.674-2.674-2.674S58.33,5.327,58.33,6.804s1.197,2.674,2.674,2.674
				S63.678,8.28,63.678,6.804"/>
			<circle fill="none" stroke="#79F2EC" stroke-width="0.5535" stroke-miterlimit="10" cx="61.005" cy="6.803" r="2.674"/>
			<path fill="#62D4B2" d="M23.213,6.804c0-1.477-1.197-2.674-2.674-2.674s-2.674,1.197-2.674,2.674s1.197,2.674,2.674,2.674
				S23.213,8.28,23.213,6.804"/>
			<circle fill="none" stroke="#79F2EC" stroke-width="0.5535" stroke-miterlimit="10" cx="20.539" cy="6.803" r="2.674"/>
			<path fill="#62D4B2" d="M50.389,107.755c0-1.477-1.197-2.674-2.674-2.674s-2.674,1.197-2.674,2.674
				c0,1.479,1.197,2.676,2.674,2.676C49.192,110.429,50.389,109.231,50.389,107.755"/>
			<circle fill="none" stroke="#79F2EC" stroke-width="0.5535" stroke-miterlimit="10" cx="47.715" cy="107.755" r="2.674"/>
			<path fill="#62D4B2" d="M40.365,84.286c0-1.479-1.197-2.676-2.674-2.676s-2.674,1.197-2.674,2.676s1.197,2.674,2.674,2.674
				S40.365,85.763,40.365,84.286"/>
			<circle fill="none" stroke="#79F2EC" stroke-width="0.5535" stroke-miterlimit="10" cx="37.691" cy="84.286" r="2.674"/>
			<path fill="#79F2EC" d="M195.587,64.626c0-0.701-0.569-1.271-1.271-1.271s-1.271,0.568-1.271,1.271
				c0,0.701,0.57,1.271,1.271,1.271C195.018,65.896,195.587,65.327,195.587,64.626"/>
			<path fill="#79F2EC" d="M8.421,99.72c0-0.701-0.569-1.271-1.271-1.271c-0.702,0-1.271,0.569-1.271,1.271s0.569,1.271,1.271,1.271
				C7.852,100.991,8.421,100.421,8.421,99.72"/>
			<path fill="#79F2EC" d="M6.048,50.78c0-0.702-0.569-1.271-1.271-1.271c-0.702,0-1.271,0.569-1.271,1.271
				c0,0.702,0.569,1.271,1.271,1.271C5.479,52.051,6.048,51.481,6.048,50.78"/>
			<path fill="#79F2EC" d="M34.681,6.804c0-0.702-0.569-1.271-1.271-1.271c-0.702,0-1.271,0.569-1.271,1.271
				c0,0.702,0.569,1.271,1.271,1.271C34.112,8.075,34.681,7.505,34.681,6.804"/>
			<path fill="#79F2EC" d="M7.965,6.804c0-0.702-0.569-1.271-1.271-1.271c-0.702,0-1.271,0.569-1.271,1.271
				c0,0.702,0.569,1.271,1.271,1.271C7.396,8.073,7.965,7.505,7.965,6.804"/>
			<path fill="#62D4B2" d="M139.65,12.537c0-1.5-1.219-2.716-2.719-2.716s-2.715,1.216-2.715,2.716s1.215,2.716,2.715,2.716
				S139.65,14.037,139.65,12.537"/>
			<circle fill="none" stroke="#79F2EC" stroke-width="0.5535" stroke-miterlimit="10" cx="136.934" cy="12.536" r="2.716"/>
			<path fill="#79F2EC" d="M195.587,20.988c0-0.702-0.569-1.271-1.271-1.271s-1.271,0.569-1.271,1.271
				c0,0.702,0.57,1.271,1.271,1.271C195.018,22.26,195.587,21.69,195.587,20.988"/>
			<path fill="#79F2EC" d="M158.708,35.845c0-0.702-0.567-1.271-1.271-1.271s-1.271,0.569-1.271,1.271
				c0,0.702,0.566,1.271,1.271,1.271C158.141,37.114,158.708,36.546,158.708,35.845"/>
			<path fill="#79F2EC" d="M147.861,109.849c0-0.701-0.567-1.271-1.271-1.271c-0.703,0-1.271,0.569-1.271,1.271
				s0.566,1.271,1.271,1.271C147.292,111.118,147.861,110.551,147.861,109.849"/>
			<path fill="#79F2EC" d="M25.241,99.72c0-0.701-0.569-1.271-1.271-1.271c-0.702,0-1.271,0.569-1.271,1.271s0.569,1.271,1.271,1.271
				C24.672,100.991,25.241,100.421,25.241,99.72"/>
			<path fill="#79F2EC" d="M58.965,32.472c0-0.702-0.569-1.271-1.271-1.271c-0.702,0-1.271,0.569-1.271,1.271
				c0,0.702,0.569,1.271,1.271,1.271C58.396,33.742,58.965,33.173,58.965,32.472"/>
			<path fill="#79F2EC" d="M92.304,68.928c0-0.7-0.569-1.271-1.271-1.271c-0.702,0-1.271,0.568-1.271,1.271s0.569,1.271,1.271,1.271
				C91.736,70.198,92.304,69.63,92.304,68.928"/>
			<path fill="#79F2EC" d="M72.642,56.597c0-0.702-0.569-1.271-1.271-1.271S70.1,55.895,70.1,56.597c0,0.702,0.569,1.271,1.271,1.271
				C72.073,57.867,72.642,57.298,72.642,56.597"/>
			<path fill="#FFFFFF" d="M126.646,68.928c0-0.7-0.568-1.271-1.271-1.271s-1.271,0.568-1.271,1.271s0.566,1.271,1.271,1.271
				C126.076,70.198,126.646,69.63,126.646,68.928"/>
			<path fill="#79F2EC" d="M126.646,91.478c0-0.701-0.568-1.271-1.271-1.271s-1.271,0.569-1.271,1.271s0.566,1.271,1.271,1.271
				C126.076,92.749,126.646,92.179,126.646,91.478"/>
			<path fill="#79F2EC" d="M78.919,88.864c0-0.701-0.569-1.271-1.271-1.271s-1.271,0.569-1.271,1.271
				c0,0.701,0.569,1.271,1.271,1.271C78.35,90.136,78.919,89.565,78.919,88.864"/>
			<path fill="#79F2EC" d="M126.646,45.012c0-0.702-0.568-1.271-1.271-1.271s-1.271,0.569-1.271,1.271
				c0,0.702,0.566,1.271,1.271,1.271C126.076,46.281,126.646,45.713,126.646,45.012"/>
			<path fill="#79F2EC" d="M106.885,68.928c0-0.7-0.568-1.271-1.27-1.271c-0.703,0-1.271,0.568-1.271,1.271s0.568,1.271,1.271,1.271
				C106.316,70.198,106.885,69.63,106.885,68.928"/>
			<path fill="#79F2EC" d="M106.885,81.226c0-0.703-0.568-1.271-1.27-1.271c-0.703,0-1.271,0.567-1.271,1.271
				c0,0.701,0.568,1.271,1.271,1.271C106.316,82.495,106.885,81.927,106.885,81.226"/>
			<path fill="#79F2EC" d="M58.965,68.928c0-0.7-0.569-1.271-1.271-1.271c-0.702,0-1.271,0.568-1.271,1.271s0.569,1.271,1.271,1.271
				C58.396,70.199,58.965,69.63,58.965,68.928"/>

				<line fill="none" stroke="#79F2EC" stroke-width="0.5535" stroke-miterlimit="10" x1="32.955" y1="68.928" x2="125.376" y2="68.928"/>

				<line fill="none" stroke="#79F2EC" stroke-width="0.5535" stroke-miterlimit="10" x1="57.695" y1="44.52" x2="100.872" y2="44.52"/>

				<line fill="none" stroke="#79F2EC" stroke-width="0.5535" stroke-miterlimit="10" x1="52.275" y1="32.472" x2="57.823" y2="32.472"/>

				<line fill="none" stroke="#79F2EC" stroke-width="0.5535" stroke-miterlimit="10" x1="100.872" y1="44.806" x2="100.872" y2="18.389"/>

				<line fill="none" stroke="#79F2EC" stroke-width="0.5535" stroke-miterlimit="10" x1="125.376" y1="44.806" x2="125.376" y2="91.478"/>

				<line fill="none" stroke="#79F2EC" stroke-width="0.5535" stroke-miterlimit="10" x1="105.615" y1="68.928" x2="105.615" y2="81.015"/>

				<line fill="none" stroke="#79F2EC" stroke-width="0.5535" stroke-miterlimit="10" x1="71.371" y1="56.597" x2="57.695" y2="56.597"/>

				<line fill="none" stroke="#79F2EC" stroke-width="0.5535" stroke-miterlimit="10" x1="105.615" y1="116.317" x2="105.615" y2="80.885"/>

				<line fill="none" stroke="#79F2EC" stroke-width="0.5535" stroke-miterlimit="10" x1="125.376" y1="91.478" x2="142.234" y2="91.478"/>

				<line fill="none" stroke="#79F2EC" stroke-width="0.5535" stroke-miterlimit="10" x1="144.152" y1="18.389" x2="100.872" y2="18.389"/>

				<line fill="none" stroke="#79F2EC" stroke-width="0.5535" stroke-miterlimit="10" x1="57.695" y1="32.472" x2="100.872" y2="18.389"/>

				<line fill="none" stroke="#79F2EC" stroke-width="0.5535" stroke-miterlimit="10" x1="105.586" y1="88.864" x2="76.377" y2="88.864"/>

				<line fill="none" stroke="#79F2EC" stroke-width="0.5535" stroke-miterlimit="10" x1="57.695" y1="68.897" x2="77.648" y2="88.864"/>

				<line fill="none" stroke="#79F2EC" stroke-width="0.5535" stroke-miterlimit="10" x1="57.695" y1="68.897" x2="57.695" y2="32.472"/>
			<path fill="none" stroke="#79F2EC" stroke-width="0.5535" stroke-miterlimit="10" d="M0,19.659h0.78
				c3.266,0,5.914-2.647,5.914-5.914V-0.02"/>
			<rect x="142.234" y="73.286" fill="#62D4B2" width="3.303" height="14.318"/>
		</g>
	</g>
	<g id="Head">

			<line fill="none" stroke="#1D1D1B" stroke-width="0.5535" stroke-miterlimit="10" x1="118.703" y1="41.851" x2="128.464" y2="41.851"/>
		<path fill="#FFFFFF" d="M151.955,70.897h-9.719v35.881h-20.24v9.369H74.007v-13.439c-4.96-2.18-9.48-5.17-13.4-8.811
			c-9.51-8.812-15.46-21.392-15.46-35.381c0-9.37,2.67-18.108,7.29-25.51c8.52-13.67,23.69-22.76,40.98-22.76
			c8,0,15.53,1.94,22.17,5.39c10.608,5.49,18.92,14.81,23.108,26.13L151.955,70.897z"/>
		<path fill="#EFEFEF" d="M82.67,55.458c0-5.108-4.142-9.25-9.25-9.25s-9.25,4.141-9.25,9.25c0,5.109,4.141,9.25,9.25,9.25
			S82.67,60.565,82.67,55.458"/>
		<g>
			<path fill="#FAB88B" d="M93.417,10.248c-17.29,0-32.46,9.09-40.98,22.76c-4.62,7.4-7.29,16.14-7.29,25.511
				c0,10.25,3.19,19.729,8.63,27.541c-3.46,0.721-6.06,3.777-6.06,7.447h12.48h13.36v-7.6v-53.04h17.98
				c11.17,0,20.65-7.21,24.05-17.23C108.947,12.188,101.417,10.248,93.417,10.248z"/>

				<linearGradient id="SVGID_1_" gradientUnits="userSpaceOnUse" x1="89.6445" y1="-391.4512" x2="80.4771" y2="-411.2853" gradientTransform="matrix(1 0 0 -1 0 -379.1602)">
				<stop  offset="0.043" style="stop-color:#FBB88B"/>
				<stop  offset="1" style="stop-color:#DCA17A"/>
			</linearGradient>
			<path fill="url(#SVGID_1_)" d="M116.216,13.498c0,0.97-0.299,1.87-0.81,2.62c-3.529,9.77-12.879,16.75-23.872,16.75h-17.98v0.14
				h-21.12c8.52-13.67,23.69-22.76,40.98-22.76c4.76,0,9.361,0.69,13.701,1.98c0.549-1.94,2.34-3.37,4.459-3.37
				C114.137,8.857,116.216,10.938,116.216,13.498z"/>
		</g>
		<path fill="#1D1D1B" d="M128.755,45.144c0-1.866-1.515-3.379-3.379-3.379c-1.867,0-3.38,1.513-3.38,3.379
			c0,1.866,1.513,3.378,3.38,3.378C127.24,48.521,128.755,47.01,128.755,45.144"/>

			<line fill="none" stroke="#1D1D1B" stroke-width="0.6326" stroke-miterlimit="10" x1="121.27" y1="36.145" x2="129.093" y2="36.145"/>
		<path fill="none" stroke="#1D1D1B" stroke-width="0.5535" stroke-miterlimit="10" d="M142.949,66.167
			c-1.705,0-3.088,1.383-3.088,3.088"/>
	</g>
	<g id="Head_x5F_icon">
		<path fill="#1D1D1B" d="M180.016,90.571c0-6.398-5.188-11.584-11.586-11.584c-6.398,0-11.584,5.186-11.584,11.584
			c0,6.397,5.187,11.586,11.584,11.586C174.826,102.157,180.016,96.97,180.016,90.571"/>
		<path fill="none" stroke="#FFFFFF" stroke-width="0.5535" stroke-miterlimit="10" d="M174.966,100.122l-1.465-0.176
			c-0.746-0.09-1.308-0.723-1.308-1.475v-2.58"/>
		<path fill="none" stroke="#FFFFFF" stroke-width="0.5535" stroke-miterlimit="10" d="M164.662,95.892v2.58
			c0,0.752-0.562,1.385-1.307,1.476l-1.607,0.192"/>
		<path fill="none" stroke="#FFFFFF" stroke-width="0.5535" stroke-miterlimit="10" d="M174.369,88.515
			c-0.188-3.945-2.771-6.127-5.939-6.127s-5.757,2.182-5.941,6.127c-0.602,0.131-1.027,0.834-0.973,1.65
			c0.06,0.875,0.653,1.549,1.327,1.504c0,0,0,0,0.003,0c0,2.244,1.484,4.074,2.67,4.987c0.764,0.591,1.689,1.146,2.657,1.159
			l0.366,0.004c1.003,0.016,1.975-0.545,2.77-1.154c1.205-0.93,2.707-2.768,2.707-4.996l0,0c0.674,0.045,1.271-0.629,1.327-1.504
			C175.4,89.349,174.973,88.646,174.369,88.515z"/>
		<path fill="#4CA0FF" d="M164.994,86.493c-0.188,0-0.334,0.15-0.334,0.334c0,0.188,0.146,0.334,0.334,0.334
			c0.186,0,0.334-0.146,0.334-0.334C165.328,86.644,165.18,86.493,164.994,86.493"/>
		<path fill="#4CA0FF" d="M169.572,86.493c-0.186,0-0.334,0.15-0.334,0.334c0,0.188,0.148,0.334,0.334,0.334
			c0.187,0,0.334-0.146,0.334-0.334C169.906,86.644,169.759,86.493,169.572,86.493"/>
		<path fill="#FFFFFF" d="M167.283,86.493c-0.188,0-0.334,0.15-0.334,0.334c0,0.188,0.146,0.334,0.334,0.334
			c0.185,0,0.334-0.146,0.334-0.334C167.617,86.644,167.468,86.493,167.283,86.493"/>
		<path fill="#FFFFFF" d="M171.863,86.493c-0.187,0-0.334,0.15-0.334,0.334c0,0.188,0.147,0.334,0.334,0.334
			c0.186,0,0.336-0.146,0.336-0.334C172.197,86.644,172.048,86.493,171.863,86.493"/>
		<path fill="#FFFFFF" d="M169.572,84.548c-0.186,0-0.334,0.15-0.334,0.337c0,0.185,0.148,0.334,0.334,0.334
			c0.187,0,0.334-0.149,0.334-0.334C169.906,84.698,169.759,84.548,169.572,84.548"/>
		<path fill="#4CA0FF" d="M167.283,84.548c-0.188,0-0.334,0.15-0.334,0.337c0,0.185,0.146,0.334,0.334,0.334
			c0.185,0,0.334-0.149,0.334-0.334C167.617,84.698,167.468,84.548,167.283,84.548"/>
		<path fill="#FFFFFF" d="M164.994,88.438c-0.188,0-0.334,0.147-0.334,0.334c0,0.184,0.146,0.334,0.334,0.334
			c0.186,0,0.334-0.15,0.334-0.334C165.328,88.587,165.18,88.438,164.994,88.438"/>
		<path fill="#FFFFFF" d="M169.572,88.438c-0.186,0-0.334,0.147-0.334,0.334c0,0.184,0.148,0.334,0.334,0.334
			c0.187,0,0.334-0.15,0.334-0.334C169.906,88.587,169.759,88.438,169.572,88.438"/>
		<path fill="#4CA0FF" d="M167.283,88.438c-0.188,0-0.334,0.147-0.334,0.334c0,0.184,0.146,0.334,0.334,0.334
			c0.185,0,0.334-0.15,0.334-0.334C167.617,88.587,167.468,88.438,167.283,88.438"/>
		<path fill="#4CA0FF" d="M171.863,88.438c-0.187,0-0.334,0.147-0.334,0.334c0,0.184,0.147,0.334,0.334,0.334
			c0.186,0,0.336-0.15,0.336-0.334C172.197,88.587,172.048,88.438,171.863,88.438"/>
		<path fill="#4CA0FF" d="M164.994,90.382c-0.188,0-0.334,0.15-0.334,0.337c0,0.185,0.146,0.334,0.334,0.334
			c0.186,0,0.334-0.149,0.334-0.334C165.328,90.532,165.18,90.382,164.994,90.382"/>
		<path fill="#4CA0FF" d="M169.572,90.382c-0.186,0-0.334,0.15-0.334,0.337c0,0.185,0.148,0.334,0.334,0.334
			c0.187,0,0.334-0.149,0.334-0.334C169.906,90.532,169.759,90.382,169.572,90.382"/>
		<path fill="#FFFFFF" d="M167.283,90.382c-0.188,0-0.334,0.15-0.334,0.337c0,0.185,0.146,0.334,0.334,0.334
			c0.185,0,0.334-0.149,0.334-0.334C167.617,90.532,167.468,90.382,167.283,90.382"/>
		<path fill="#FFFFFF" d="M171.863,90.382c-0.187,0-0.334,0.15-0.334,0.337c0,0.185,0.147,0.334,0.334,0.334
			c0.186,0,0.336-0.149,0.336-0.334C172.197,90.532,172.048,90.382,171.863,90.382"/>
		<path fill="#FFFFFF" d="M164.994,92.327c-0.188,0-0.334,0.15-0.334,0.334c0,0.188,0.146,0.334,0.334,0.334
			c0.186,0,0.334-0.146,0.334-0.334C165.328,92.478,165.18,92.327,164.994,92.327"/>
		<path fill="#FFFFFF" d="M169.572,92.327c-0.186,0-0.334,0.15-0.334,0.334c0,0.188,0.148,0.334,0.334,0.334
			c0.187,0,0.334-0.146,0.334-0.334C169.906,92.478,169.759,92.327,169.572,92.327"/>
		<path fill="#4CA0FF" d="M167.283,92.327c-0.188,0-0.334,0.15-0.334,0.334c0,0.188,0.146,0.334,0.334,0.334
			c0.185,0,0.334-0.146,0.334-0.334C167.617,92.478,167.468,92.327,167.283,92.327"/>
		<path fill="#4CA0FF" d="M171.863,92.327c-0.187,0-0.334,0.15-0.334,0.334c0,0.188,0.147,0.334,0.334,0.334
			c0.186,0,0.336-0.146,0.336-0.334C172.197,92.478,172.048,92.327,171.863,92.327"/>
		<path fill="#4CA0FF" d="M169.572,94.272c-0.186,0-0.334,0.147-0.334,0.334c0,0.184,0.148,0.334,0.334,0.334
			c0.187,0,0.334-0.15,0.334-0.334C169.906,94.421,169.759,94.272,169.572,94.272"/>
		<path fill="#FFFFFF" d="M167.283,94.272c-0.188,0-0.334,0.147-0.334,0.334c0,0.184,0.146,0.334,0.334,0.334
			c0.185,0,0.334-0.15,0.334-0.334C167.617,94.421,167.468,94.272,167.283,94.272"/>
	</g>
	<g id="Signal_x5F_Icon2">
		<path fill="#1D1D1B" d="M167.322,18.389c0-6.398-5.188-11.585-11.586-11.585c-6.398,0-11.584,5.187-11.584,11.585
			s5.187,11.585,11.584,11.585C162.135,29.974,167.322,24.787,167.322,18.389"/>
		<circle fill="none" stroke="#8C80FF" stroke-width="0.5535" stroke-miterlimit="10" cx="153.005" cy="13.114" r="0.256"/>
		<circle fill="none" stroke="#8C80FF" stroke-width="0.5535" stroke-miterlimit="10" cx="149.477" cy="18.21" r="0.257"/>
		<circle fill="none" stroke="#8C80FF" stroke-width="0.5535" stroke-miterlimit="10" cx="161.998" cy="18.21" r="0.257"/>
		<circle fill="none" stroke="#8C80FF" stroke-width="0.5535" stroke-miterlimit="10" cx="153.879" cy="23.662" r="0.257"/>
		<circle fill="none" stroke="#8C80FF" stroke-width="0.5535" stroke-miterlimit="10" cx="158.389" cy="13.114" r="0.256"/>
		<circle fill="none" stroke="#8C80FF" stroke-width="0.5535" stroke-miterlimit="10" cx="159.257" cy="23.662" r="0.256"/>
		<polyline fill="none" stroke="#8C80FF" stroke-width="0.5535" stroke-miterlimit="10" points="149.479,18.209 151.542,18.209
			152.93,13.897 153.932,22.58 154.996,18.238 156.531,18.238 	"/>
		<polyline fill="none" stroke="#8C80FF" stroke-width="0.5535" stroke-miterlimit="10" points="155.927,18.238 156.902,18.238
			158.289,13.928 159.289,22.609 160.357,18.269 161.893,18.269 	"/>
	</g>
	<g id="Heart_x5F_Icon">
		<path fill="#1D1D1B" d="M29.508,32.472c0-6.122-4.963-11.085-11.084-11.085c-6.122,0-11.085,4.963-11.085,11.085
			c0,6.122,4.963,11.084,11.085,11.084C24.545,43.556,29.508,38.594,29.508,32.472"/>
		<path fill="none" stroke="#4CA0FF" stroke-width="0.5535" stroke-miterlimit="10" d="M12.939,34.099l-0.056-0.063
			c-0.729-0.826-1.13-1.888-1.13-2.989c0-2.493,2.028-4.521,4.521-4.521c0.778,0,1.51,0.194,2.149,0.538
			c0.639-0.344,1.371-0.538,2.148-0.538c2.493,0,4.521,2.028,4.521,4.521c0,1.102-0.401,2.163-1.13,2.989l-0.056,0.063l-5.483,5.386
			L12.939,34.099z"/>
		<path fill="none" stroke="#FFFFFF" stroke-width="0.5535" stroke-miterlimit="10" d="M22.722,31.045
			c0-1.188-0.963-2.151-2.151-2.151c-1.159,0-2.104,0.917-2.148,2.066c-0.044-1.148-0.989-2.066-2.149-2.066
			c-1.188,0-2.15,0.963-2.15,2.151c0,0.545,0.203,1.042,0.537,1.421l3.762,3.695l3.762-3.695
			C22.519,32.088,22.722,31.59,22.722,31.045z"/>
	</g>
	<g id="Eye_x5F_icon">
		<path fill="#1D1D1B" d="M190.779,45.012c0-6.398-5.188-11.585-11.584-11.585c-6.397,0-11.586,5.188-11.586,11.585
			s5.188,11.585,11.586,11.585C185.593,56.597,190.779,51.41,190.779,45.012"/>

			<line fill="none" stroke="#79F2EC" stroke-width="0.5535" stroke-miterlimit="10" x1="173.496" y1="46.854" x2="173.496" y2="42.878"/>
		<circle fill="none" stroke="#79F2EC" stroke-width="0.5535" stroke-miterlimit="10" cx="173.498" cy="43.023" r="0.257"/>
		<circle fill="none" stroke="#79F2EC" stroke-width="0.5535" stroke-miterlimit="10" cx="173.498" cy="46.854" r="0.257"/>

			<line fill="none" stroke="#79F2EC" stroke-width="0.5535" stroke-miterlimit="10" x1="175.809" y1="47.645" x2="175.809" y2="42.087"/>
		<circle fill="none" stroke="#79F2EC" stroke-width="0.5535" stroke-miterlimit="10" cx="175.809" cy="42.233" r="0.256"/>
		<circle fill="none" stroke="#79F2EC" stroke-width="0.5535" stroke-miterlimit="10" cx="175.809" cy="47.645" r="0.256"/>

			<line fill="none" stroke="#79F2EC" stroke-width="0.5535" stroke-miterlimit="10" x1="178.117" y1="48.436" x2="178.117" y2="41.296"/>
		<circle fill="none" stroke="#79F2EC" stroke-width="0.5535" stroke-miterlimit="10" cx="178.117" cy="41.442" r="0.256"/>
		<circle fill="none" stroke="#79F2EC" stroke-width="0.5535" stroke-miterlimit="10" cx="178.117" cy="48.436" r="0.256"/>

			<line fill="none" stroke="#79F2EC" stroke-width="0.5535" stroke-miterlimit="10" x1="180.43" y1="48.436" x2="180.43" y2="41.296"/>
		<circle fill="none" stroke="#79F2EC" stroke-width="0.5535" stroke-miterlimit="10" cx="180.43" cy="44.938" r="0.256"/>
		<circle fill="none" stroke="#79F2EC" stroke-width="0.5535" stroke-miterlimit="10" cx="180.43" cy="41.442" r="0.256"/>
		<circle fill="none" stroke="#79F2EC" stroke-width="0.5535" stroke-miterlimit="10" cx="180.43" cy="43.19" r="0.256"/>
		<circle fill="none" stroke="#79F2EC" stroke-width="0.5535" stroke-miterlimit="10" cx="180.43" cy="46.687" r="0.256"/>
		<circle fill="none" stroke="#79F2EC" stroke-width="0.5535" stroke-miterlimit="10" cx="180.43" cy="48.436" r="0.256"/>

			<line fill="none" stroke="#79F2EC" stroke-width="0.5535" stroke-miterlimit="10" x1="182.738" y1="47.645" x2="182.738" y2="42.087"/>
		<circle fill="none" stroke="#79F2EC" stroke-width="0.5535" stroke-miterlimit="10" cx="182.738" cy="42.234" r="0.257"/>
		<circle fill="none" stroke="#79F2EC" stroke-width="0.5535" stroke-miterlimit="10" cx="182.738" cy="47.645" r="0.257"/>

			<line fill="none" stroke="#79F2EC" stroke-width="0.5535" stroke-miterlimit="10" x1="185.048" y1="46.854" x2="185.048" y2="42.878"/>
		<circle fill="none" stroke="#79F2EC" stroke-width="0.5535" stroke-miterlimit="10" cx="185.049" cy="43.023" r="0.257"/>
		<circle fill="none" stroke="#79F2EC" stroke-width="0.5535" stroke-miterlimit="10" cx="185.049" cy="46.854" r="0.257"/>
		<circle fill="none" stroke="#79F2EC" stroke-width="0.5535" stroke-miterlimit="10" cx="173.498" cy="44.947" r="0.257"/>
		<circle fill="none" stroke="#79F2EC" stroke-width="0.5535" stroke-miterlimit="10" cx="175.809" cy="44.947" r="0.256"/>
		<circle fill="none" stroke="#79F2EC" stroke-width="0.5535" stroke-miterlimit="10" cx="178.117" cy="44.947" r="0.256"/>
		<circle fill="none" stroke="#79F2EC" stroke-width="0.5535" stroke-miterlimit="10" cx="182.738" cy="44.947" r="0.257"/>
		<circle fill="none" stroke="#79F2EC" stroke-width="0.5535" stroke-miterlimit="10" cx="185.049" cy="44.947" r="0.257"/>
		<circle fill="none" stroke="#79F2EC" stroke-width="0.5535" stroke-miterlimit="10" cx="186.887" cy="44.947" r="0.256"/>
		<circle fill="none" stroke="#79F2EC" stroke-width="0.5535" stroke-miterlimit="10" cx="171.188" cy="44.947" r="0.257"/>
		<circle fill="none" stroke="#79F2EC" stroke-width="0.5535" stroke-miterlimit="10" cx="178.117" cy="43.19" r="0.256"/>
		<circle fill="none" stroke="#79F2EC" stroke-width="0.5535" stroke-miterlimit="10" cx="178.117" cy="46.687" r="0.256"/>
		<path fill="none" stroke="#FFFFFF" stroke-width="0.5535" stroke-miterlimit="10" d="M179.195,40.378
			c-4.033,0-7.625,1.886-9.944,4.824c2.319,2.938,5.911,4.824,9.944,4.824s7.625-1.886,9.943-4.824
			C186.82,42.265,183.229,40.378,179.195,40.378z"/>
	</g>
	<g id="Signal_x5F_icon">
		<path fill="#1D1D1B" d="M32.77,68.897c0-6.142-4.979-11.121-11.121-11.121s-11.121,4.979-11.121,11.121
			c0,6.143,4.979,11.123,11.121,11.123S32.77,75.04,32.77,68.897"/>
		<path fill="none" stroke="#8C80FF" stroke-width="0.5535" stroke-miterlimit="10" d="M28.679,67.206
			c-0.479,0.434-0.754,1.049-0.754,1.691c0,0.642,0.275,1.26,0.754,1.69"/>
		<path fill="none" stroke="#8C80FF" stroke-width="0.5535" stroke-miterlimit="10" d="M26.822,65.146
			c-1.062,0.957-1.672,2.326-1.672,3.754c0,1.429,0.609,2.795,1.672,3.752"/>
		<path fill="none" stroke="#8C80FF" stroke-width="0.5535" stroke-miterlimit="10" d="M23.106,76.774
			c-2.229-2.008-3.507-4.879-3.507-7.877s1.278-5.869,3.507-7.877"/>
		<path fill="none" stroke="#8C80FF" stroke-width="0.5535" stroke-miterlimit="10" d="M24.964,74.712
			c-1.59-1.432-2.589-3.506-2.589-5.812c0-2.308,1-4.383,2.589-5.815"/>
		<path fill="none" stroke="#FFFFFF" stroke-width="0.5535" stroke-miterlimit="10" d="M14.234,70.589
			c0.479-0.432,0.754-1.049,0.754-1.689c0-0.642-0.275-1.26-0.754-1.69"/>
		<path fill="none" stroke="#FFFFFF" stroke-width="0.5535" stroke-miterlimit="10" d="M16.092,72.651
			c1.062-0.957,1.672-2.324,1.672-3.754c0-1.428-0.609-2.795-1.672-3.752"/>
		<path fill="none" stroke="#FFFFFF" stroke-width="0.5535" stroke-miterlimit="10" d="M19.807,61.021
			c2.229,2.008,3.507,4.879,3.507,7.877s-1.278,5.869-3.507,7.877"/>
		<path fill="none" stroke="#FFFFFF" stroke-width="0.5535" stroke-miterlimit="10" d="M17.949,63.083
			c1.589,1.434,2.589,3.506,2.589,5.814c0,2.308-1,4.383-2.589,5.813"/>
	</g>
	<g id="Black_x5F_lines">
		<g>

				<line fill="none" stroke="#1D1D1B" stroke-width="0.5535" stroke-miterlimit="10" x1="140.229" y1="45.005" x2="167.609" y2="45.005"/>
		</g>
		<g>

				<line fill="none" stroke="#1D1D1B" stroke-width="0.5535" stroke-miterlimit="10" x1="31.758" y1="68.928" x2="46.613" y2="68.928"/>
		</g>
		<g>

				<line fill="none" stroke="#1D1D1B" stroke-width="0.5535" stroke-miterlimit="10" x1="27.925" y1="32.472" x2="52.599" y2="32.472"/>
		</g>
		<g>

				<line fill="none" stroke="#1D1D1B" stroke-width="0.5535" stroke-miterlimit="10" x1="144.152" y1="18.389" x2="119.83" y2="18.389"/>
		</g>
		<g>

				<line fill="none" stroke="#1D1D1B" stroke-width="0.5535" stroke-miterlimit="10" x1="142.234" y1="91.478" x2="156.846" y2="91.478"/>
		</g>
	</g>
	<g>
		<g>
			<g>
				<g>
					<defs>
						<polygon id="SVGID_2_" points="74.016,102.7 101.723,115.286 73.916,115.286 					"/>
					</defs>
					<clipPath id="SVGID_3_">
						<use xlink:href="#SVGID_2_"  overflow="visible"/>
					</clipPath>

						<linearGradient id="SVGID_4_" gradientUnits="userSpaceOnUse" x1="-2062.3257" y1="-454.6118" x2="-2062.2466" y2="-454.6118" gradientTransform="matrix(351.6522 0 0 351.6522 725295.4375 159974.2188)">
						<stop  offset="0" style="stop-color:#79F2EC"/>
						<stop  offset="1" style="stop-color:#231F20"/>
					</linearGradient>

						<rect x="73.916" y="102.136" opacity="0.2" clip-path="url(#SVGID_3_)" fill="url(#SVGID_4_)" enable-background="new    " width="27.807" height="13.799"/>
				</g>
			</g>
		</g>
	</g>
	<g id="Text">
		<polygon fill="#1D1D1B" points="79.415,95.226 79.021,95.226 79.021,93.632 77.237,93.632 77.237,95.226 76.843,95.226
			76.843,91.839 77.237,91.839 77.237,93.28 79.021,93.28 79.021,91.839 79.415,91.839 	"/>
		<path fill="#1D1D1B" d="M82.477,93.954c0,0.414-0.104,0.736-0.312,0.969c-0.209,0.232-0.497,0.352-0.864,0.352
			c-0.228,0-0.429-0.056-0.604-0.16c-0.177-0.106-0.312-0.26-0.408-0.459c-0.096-0.198-0.144-0.432-0.144-0.698
			c0-0.414,0.104-0.735,0.311-0.968c0.207-0.231,0.494-0.348,0.862-0.348c0.355,0,0.637,0.118,0.847,0.354
			C82.375,93.231,82.477,93.551,82.477,93.954 M80.543,93.954c0,0.324,0.065,0.57,0.195,0.74c0.129,0.17,0.32,0.256,0.572,0.256
			s0.443-0.084,0.574-0.254c0.131-0.17,0.196-0.416,0.196-0.742c0-0.322-0.065-0.566-0.196-0.735
			c-0.131-0.168-0.323-0.253-0.578-0.253c-0.251,0-0.442,0.085-0.57,0.248C80.607,93.38,80.543,93.626,80.543,93.954"/>
		<path fill="#1D1D1B" d="M85.225,95.226l-0.465-1.49c-0.03-0.09-0.084-0.297-0.165-0.62h-0.018
			c-0.062,0.271-0.116,0.479-0.163,0.627l-0.479,1.483h-0.444l-0.693-2.539h0.403c0.164,0.64,0.289,1.123,0.374,1.457
			c0.086,0.334,0.135,0.56,0.147,0.674h0.019c0.017-0.088,0.044-0.2,0.082-0.342c0.038-0.139,0.071-0.25,0.099-0.332l0.466-1.457
			h0.417l0.454,1.457c0.086,0.267,0.145,0.488,0.176,0.67h0.019c0.006-0.057,0.023-0.143,0.05-0.258
			c0.027-0.115,0.188-0.738,0.483-1.869h0.399l-0.702,2.539H85.225z"/>
		<path fill="#1D1D1B" d="M88.895,94.954c0.068,0,0.133-0.004,0.197-0.014c0.063-0.013,0.113-0.021,0.15-0.033v0.295
			c-0.042,0.021-0.103,0.037-0.184,0.051s-0.154,0.021-0.219,0.021c-0.491,0-0.737-0.26-0.737-0.776v-1.511h-0.364v-0.187
			l0.364-0.159l0.162-0.541h0.223v0.588h0.736v0.299h-0.736v1.494c0,0.15,0.036,0.271,0.109,0.353
			C88.669,94.915,88.768,94.954,88.895,94.954"/>
		<path fill="#1D1D1B" d="M90.822,95.272c-0.375,0-0.671-0.115-0.888-0.345c-0.217-0.229-0.326-0.545-0.326-0.95
			c0-0.41,0.101-0.734,0.302-0.978c0.202-0.24,0.472-0.36,0.812-0.36c0.318,0,0.57,0.104,0.755,0.313s0.278,0.483,0.278,0.827v0.244
			h-1.749c0.008,0.297,0.083,0.521,0.226,0.679c0.143,0.153,0.344,0.231,0.604,0.231c0.273,0,0.543-0.061,0.811-0.172v0.342
			c-0.136,0.062-0.265,0.103-0.386,0.127C91.14,95.26,90.994,95.272,90.822,95.272 M90.718,92.962c-0.204,0-0.367,0.066-0.488,0.199
			s-0.192,0.316-0.214,0.551h1.328c0-0.24-0.054-0.428-0.162-0.557C91.073,93.026,90.919,92.962,90.718,92.962"/>
		<path fill="#1D1D1B" d="M93.426,95.272c-0.368,0-0.652-0.113-0.854-0.34c-0.202-0.228-0.302-0.548-0.302-0.961
			c0-0.425,0.102-0.753,0.307-0.984c0.205-0.23,0.496-0.348,0.875-0.348c0.122,0,0.244,0.014,0.366,0.038
			c0.122,0.027,0.218,0.06,0.288,0.095l-0.118,0.326c-0.085-0.033-0.178-0.062-0.278-0.084c-0.101-0.023-0.189-0.033-0.267-0.033
			c-0.516,0-0.773,0.328-0.773,0.985c0,0.312,0.063,0.552,0.188,0.72c0.126,0.166,0.312,0.25,0.56,0.25
			c0.212,0,0.429-0.047,0.651-0.138v0.341C93.898,95.228,93.684,95.272,93.426,95.272"/>
		<path fill="#1D1D1B" d="M96.408,95.226v-1.643c0-0.207-0.047-0.361-0.142-0.463c-0.095-0.104-0.242-0.154-0.442-0.154
			c-0.267,0-0.462,0.074-0.585,0.219c-0.123,0.146-0.184,0.383-0.184,0.713v1.328H94.67V91.62h0.385v1.092
			c0,0.132-0.006,0.24-0.019,0.326h0.023c0.076-0.121,0.184-0.217,0.323-0.287c0.139-0.068,0.299-0.104,0.479-0.104
			c0.311,0,0.543,0.071,0.698,0.222c0.155,0.146,0.233,0.381,0.233,0.702v1.656L96.408,95.226L96.408,95.226z"/>
		<path fill="#1D1D1B" d="M99.32,95.226v-1.643c0-0.207-0.047-0.361-0.142-0.463c-0.094-0.104-0.242-0.154-0.442-0.154
			c-0.266,0-0.46,0.072-0.584,0.217c-0.124,0.144-0.185,0.381-0.185,0.711v1.332h-0.385v-2.539h0.313l0.062,0.349h0.019
			c0.079-0.125,0.189-0.224,0.331-0.291s0.301-0.104,0.475-0.104c0.306,0,0.536,0.074,0.69,0.224
			c0.154,0.146,0.232,0.383,0.232,0.706v1.656H99.32z"/>
		<path fill="#1D1D1B" d="M102.686,93.954c0,0.414-0.104,0.736-0.312,0.969c-0.209,0.232-0.497,0.352-0.864,0.352
			c-0.228,0-0.429-0.056-0.605-0.16c-0.176-0.106-0.312-0.26-0.408-0.459c-0.096-0.198-0.144-0.432-0.144-0.698
			c0-0.414,0.104-0.735,0.311-0.968c0.207-0.231,0.494-0.348,0.861-0.348c0.355,0,0.638,0.118,0.846,0.354
			C102.582,93.231,102.686,93.551,102.686,93.954 M100.752,93.954c0,0.324,0.065,0.57,0.194,0.74c0.13,0.17,0.321,0.256,0.572,0.256
			c0.252,0,0.443-0.084,0.573-0.254c0.131-0.17,0.196-0.416,0.196-0.742c0-0.322-0.065-0.566-0.196-0.735
			c-0.13-0.168-0.323-0.253-0.577-0.253c-0.252,0-0.442,0.085-0.57,0.248C100.816,93.38,100.752,93.626,100.752,93.954"/>
		<rect x="103.359" y="91.62" fill="#1D1D1B" width="0.385" height="3.605"/>
		<path fill="#1D1D1B" d="M106.752,93.954c0,0.414-0.104,0.736-0.312,0.969c-0.207,0.233-0.496,0.352-0.864,0.352
			c-0.228,0-0.429-0.056-0.604-0.16c-0.176-0.106-0.312-0.26-0.408-0.459c-0.096-0.198-0.145-0.432-0.145-0.698
			c0-0.414,0.104-0.735,0.311-0.968s0.494-0.348,0.863-0.348c0.355,0,0.637,0.118,0.846,0.354
			C106.646,93.231,106.752,93.551,106.752,93.954 M104.816,93.954c0,0.324,0.065,0.57,0.195,0.74c0.131,0.17,0.319,0.256,0.571,0.256
			s0.442-0.084,0.574-0.254c0.131-0.17,0.192-0.416,0.192-0.742c0-0.322-0.062-0.566-0.192-0.735
			c-0.132-0.168-0.324-0.253-0.578-0.253c-0.252,0-0.44,0.085-0.57,0.248C104.881,93.38,104.816,93.626,104.816,93.954"/>
		<path fill="#1D1D1B" d="M109.504,92.687v0.242l-0.471,0.057c0.043,0.056,0.082,0.125,0.117,0.214
			c0.031,0.086,0.051,0.188,0.051,0.295c0,0.248-0.086,0.446-0.256,0.596c-0.17,0.146-0.402,0.222-0.699,0.222
			c-0.076,0-0.146-0.006-0.213-0.019c-0.164,0.086-0.246,0.194-0.246,0.326c0,0.069,0.029,0.121,0.086,0.153
			c0.057,0.033,0.156,0.052,0.295,0.052h0.449c0.273,0,0.484,0.057,0.633,0.174c0.148,0.114,0.223,0.283,0.223,0.504
			c0,0.281-0.113,0.496-0.34,0.644c-0.225,0.147-0.555,0.225-0.986,0.225c-0.332,0-0.588-0.062-0.768-0.188s-0.27-0.3-0.27-0.521
			c0-0.154,0.049-0.289,0.146-0.402c0.101-0.111,0.234-0.188,0.416-0.229c-0.062-0.028-0.118-0.073-0.164-0.137
			c-0.043-0.062-0.062-0.135-0.062-0.216c0-0.095,0.021-0.175,0.072-0.243c0.051-0.068,0.129-0.139,0.231-0.201
			c-0.133-0.056-0.237-0.146-0.319-0.274c-0.082-0.131-0.123-0.278-0.123-0.444c0-0.277,0.082-0.492,0.25-0.644
			c0.166-0.149,0.401-0.228,0.709-0.228c0.135,0,0.252,0.016,0.358,0.047L109.504,92.687L109.504,92.687z M107.479,95.651
			c0,0.139,0.06,0.242,0.174,0.312c0.117,0.072,0.283,0.106,0.498,0.106c0.324,0,0.562-0.049,0.718-0.146
			c0.155-0.099,0.233-0.229,0.233-0.394c0-0.139-0.043-0.231-0.129-0.287c-0.084-0.053-0.244-0.08-0.479-0.08h-0.461
			c-0.174,0-0.312,0.043-0.408,0.125C107.527,95.376,107.479,95.495,107.479,95.651 M107.688,93.499c0,0.179,0.051,0.312,0.15,0.404
			c0.102,0.09,0.24,0.137,0.42,0.137c0.375,0,0.562-0.184,0.562-0.547c0-0.383-0.189-0.572-0.57-0.572
			c-0.18,0-0.318,0.051-0.416,0.146S107.688,93.308,107.688,93.499"/>
		<path fill="#1D1D1B" d="M109.623,92.687h0.412l0.555,1.447c0.123,0.332,0.199,0.57,0.229,0.717h0.021
			c0.021-0.078,0.062-0.213,0.127-0.403c0.065-0.191,0.271-0.777,0.63-1.761h0.411l-1.094,2.892
			c-0.104,0.287-0.231,0.487-0.379,0.608c-0.146,0.119-0.318,0.181-0.529,0.181c-0.116,0-0.229-0.015-0.351-0.041v-0.308
			c0.087,0.019,0.183,0.027,0.285,0.027c0.265,0,0.453-0.148,0.566-0.445l0.141-0.36L109.623,92.687z"/>
		<path fill="#1D1D1B" d="M113.617,91.999c0-0.088,0.021-0.15,0.062-0.191s0.1-0.062,0.161-0.062s0.115,0.021,0.16,0.062
			c0.045,0.043,0.063,0.104,0.063,0.191c0,0.086-0.021,0.15-0.063,0.193c-0.045,0.041-0.103,0.062-0.16,0.062
			c-0.062,0-0.118-0.021-0.161-0.062C113.639,92.149,113.617,92.085,113.617,91.999 M114.033,95.226h-0.385v-2.539h0.385V95.226z"/>
		<path fill="#1D1D1B" d="M116.488,94.532c0,0.236-0.088,0.42-0.266,0.547c-0.178,0.129-0.424,0.193-0.74,0.193
			c-0.336,0-0.602-0.056-0.787-0.16v-0.357c0.121,0.062,0.252,0.111,0.394,0.146c0.14,0.035,0.272,0.053,0.403,0.053
			c0.201,0,0.354-0.031,0.463-0.096c0.107-0.064,0.162-0.162,0.162-0.293c0-0.101-0.043-0.185-0.129-0.254
			c-0.086-0.07-0.252-0.152-0.502-0.248c-0.235-0.09-0.403-0.166-0.504-0.23c-0.102-0.064-0.176-0.141-0.225-0.225
			c-0.047-0.084-0.07-0.185-0.07-0.299c0-0.207,0.084-0.371,0.252-0.49c0.17-0.119,0.398-0.18,0.691-0.18
			c0.271,0,0.541,0.057,0.803,0.168l-0.137,0.312c-0.256-0.104-0.484-0.158-0.691-0.158c-0.184,0-0.32,0.029-0.412,0.086
			c-0.096,0.058-0.141,0.138-0.141,0.236c0,0.067,0.018,0.125,0.053,0.174c0.033,0.047,0.092,0.094,0.168,0.137
			s0.228,0.105,0.443,0.188c0.301,0.109,0.504,0.221,0.61,0.332S116.488,94.364,116.488,94.532"/>
		<path fill="#1D1D1B" d="M76.843,96.821H77.8c0.45,0,0.775,0.066,0.976,0.201c0.201,0.135,0.301,0.346,0.301,0.637
			c0,0.201-0.056,0.367-0.168,0.496c-0.112,0.131-0.275,0.215-0.49,0.254v0.023c0.514,0.088,0.771,0.358,0.771,0.811
			c0,0.303-0.102,0.539-0.307,0.709c-0.204,0.17-0.49,0.256-0.858,0.256h-1.181L76.843,96.821L76.843,96.821z M77.237,98.271h0.648
			c0.278,0,0.478-0.043,0.6-0.131s0.183-0.233,0.183-0.44c0-0.188-0.068-0.326-0.204-0.41c-0.136-0.086-0.352-0.127-0.648-0.127
			h-0.579V98.271z M77.237,98.604v1.268h0.707c0.273,0,0.479-0.053,0.617-0.158s0.208-0.271,0.208-0.498
			c0-0.209-0.071-0.363-0.212-0.463c-0.142-0.1-0.356-0.146-0.646-0.146L77.237,98.604L77.237,98.604z"/>
		<path fill="#1D1D1B" d="M80.22,97.669v1.646c0,0.207,0.047,0.36,0.142,0.463c0.095,0.102,0.242,0.154,0.442,0.154
			c0.266,0,0.46-0.074,0.583-0.22c0.123-0.146,0.184-0.383,0.184-0.711v-1.334h0.384v2.539h-0.317l-0.056-0.342h-0.021
			c-0.079,0.125-0.188,0.221-0.328,0.286s-0.299,0.101-0.478,0.101c-0.309,0-0.541-0.071-0.694-0.219
			c-0.154-0.146-0.23-0.384-0.23-0.705v-1.66L80.22,97.669L80.22,97.669z"/>
		<path fill="#1D1D1B" d="M82.739,96.979c0-0.088,0.021-0.152,0.065-0.193c0.044-0.041,0.097-0.061,0.162-0.061
			c0.062,0,0.115,0.021,0.16,0.062s0.067,0.104,0.067,0.19c0,0.088-0.022,0.15-0.067,0.191c-0.044,0.043-0.098,0.064-0.16,0.064
			c-0.065,0-0.119-0.021-0.162-0.064C82.76,97.132,82.739,97.067,82.739,96.979 M83.156,100.208h-0.385v-2.539h0.385V100.208z"/>
		<rect x="83.971" y="96.603" fill="#1D1D1B" width="0.385" height="3.605"/>
		<path fill="#1D1D1B" d="M86.9,99.866h-0.021c-0.178,0.258-0.443,0.387-0.797,0.387c-0.333,0-0.591-0.111-0.775-0.34
			c-0.185-0.227-0.277-0.549-0.277-0.969c0-0.418,0.093-0.742,0.278-0.976s0.443-0.348,0.774-0.348c0.344,0,0.608,0.125,0.792,0.375
			h0.03l-0.016-0.185l-0.009-0.179v-1.032h0.384v3.604h-0.312L86.9,99.866z M86.131,99.933c0.263,0,0.453-0.072,0.571-0.215
			c0.118-0.143,0.177-0.373,0.177-0.691v-0.082c0-0.358-0.06-0.614-0.18-0.77c-0.12-0.154-0.311-0.23-0.573-0.23
			c-0.226,0-0.398,0.089-0.518,0.263c-0.12,0.176-0.18,0.424-0.18,0.744c0,0.323,0.06,0.567,0.179,0.733
			C85.726,99.849,85.901,99.933,86.131,99.933"/>
		<path fill="#1D1D1B" d="M88.047,96.979c0-0.088,0.021-0.152,0.065-0.193s0.097-0.061,0.162-0.061c0.062,0,0.115,0.021,0.16,0.062
			c0.044,0.041,0.067,0.104,0.067,0.19c0,0.088-0.022,0.15-0.067,0.191c-0.045,0.043-0.098,0.064-0.16,0.064
			c-0.065,0-0.119-0.021-0.162-0.064C88.068,97.132,88.047,97.067,88.047,96.979 M88.464,100.208H88.08v-2.539h0.384V100.208z"/>
		<path fill="#1D1D1B" d="M91.017,100.208v-1.643c0-0.207-0.047-0.361-0.141-0.463c-0.095-0.104-0.242-0.154-0.443-0.154
			c-0.266,0-0.46,0.072-0.583,0.217c-0.124,0.145-0.186,0.379-0.186,0.711v1.332h-0.385v-2.539h0.313l0.062,0.35h0.019
			c0.079-0.125,0.189-0.225,0.332-0.291c0.142-0.067,0.3-0.104,0.475-0.104c0.306,0,0.536,0.074,0.69,0.222
			c0.154,0.147,0.231,0.385,0.231,0.709v1.655L91.017,100.208L91.017,100.208z"/>
		<path fill="#1D1D1B" d="M94.269,97.669v0.242l-0.47,0.058c0.043,0.054,0.082,0.125,0.116,0.212
			c0.034,0.088,0.051,0.187,0.051,0.295c0,0.25-0.085,0.445-0.255,0.596s-0.403,0.224-0.7,0.224c-0.076,0-0.146-0.006-0.213-0.019
			c-0.164,0.086-0.246,0.195-0.246,0.326c0,0.068,0.028,0.121,0.085,0.152c0.057,0.033,0.155,0.051,0.294,0.051h0.449
			c0.275,0,0.486,0.059,0.634,0.174c0.147,0.117,0.221,0.285,0.221,0.506c0,0.281-0.113,0.496-0.338,0.644s-0.554,0.222-0.987,0.222
			c-0.332,0-0.588-0.062-0.768-0.187c-0.18-0.123-0.27-0.297-0.27-0.522c0-0.154,0.05-0.287,0.148-0.4s0.238-0.188,0.417-0.229
			c-0.065-0.029-0.119-0.076-0.163-0.138s-0.066-0.136-0.066-0.218c0-0.092,0.025-0.174,0.074-0.241
			c0.05-0.069,0.127-0.138,0.234-0.201c-0.132-0.055-0.238-0.146-0.321-0.274c-0.083-0.131-0.124-0.279-0.124-0.445
			c0-0.279,0.083-0.492,0.25-0.643c0.167-0.151,0.403-0.228,0.709-0.228c0.133,0,0.252,0.017,0.359,0.047L94.269,97.669
			L94.269,97.669z M92.245,100.635c0,0.138,0.058,0.241,0.174,0.312c0.115,0.07,0.281,0.107,0.498,0.107
			c0.322,0,0.562-0.049,0.717-0.145c0.155-0.1,0.233-0.229,0.233-0.396c0-0.138-0.042-0.231-0.127-0.285
			c-0.085-0.053-0.245-0.08-0.479-0.08H92.8c-0.175,0-0.311,0.041-0.408,0.125C92.293,100.358,92.245,100.478,92.245,100.635
			 M92.453,98.481c0,0.178,0.05,0.312,0.151,0.401c0.101,0.093,0.24,0.138,0.419,0.138c0.375,0,0.563-0.183,0.563-0.547
			c0-0.382-0.19-0.572-0.57-0.572c-0.181,0-0.32,0.049-0.417,0.146C92.502,98.146,92.453,98.29,92.453,98.481"/>
		<path fill="#1D1D1B" d="M98.215,98.937c0,0.412-0.104,0.736-0.312,0.97s-0.497,0.348-0.864,0.348c-0.227,0-0.429-0.053-0.604-0.157
			c-0.176-0.106-0.312-0.261-0.408-0.459c-0.096-0.199-0.144-0.435-0.144-0.699c0-0.414,0.103-0.736,0.31-0.969
			s0.495-0.347,0.862-0.347c0.355,0,0.637,0.117,0.847,0.354C98.11,98.212,98.215,98.532,98.215,98.937 M96.28,98.937
			c0,0.324,0.065,0.57,0.194,0.74c0.13,0.17,0.321,0.256,0.572,0.256c0.252,0,0.443-0.086,0.574-0.254
			c0.13-0.17,0.196-0.418,0.196-0.742s-0.065-0.567-0.196-0.735c-0.131-0.168-0.323-0.252-0.578-0.252
			c-0.252,0-0.442,0.084-0.57,0.248C96.344,98.362,96.28,98.608,96.28,98.937"/>
		<path fill="#1D1D1B" d="M100.627,100.208v-1.643c0-0.207-0.047-0.361-0.142-0.463c-0.094-0.104-0.242-0.154-0.442-0.154
			c-0.266,0-0.46,0.072-0.584,0.217s-0.185,0.379-0.185,0.711v1.332h-0.385v-2.539h0.313l0.062,0.35h0.019
			c0.079-0.125,0.189-0.225,0.331-0.291c0.142-0.067,0.301-0.104,0.475-0.104c0.306,0,0.536,0.074,0.69,0.222
			c0.154,0.148,0.232,0.385,0.232,0.709v1.655L100.627,100.208L100.627,100.208z"/>
		<path fill="#1D1D1B" d="M106.031,98.51c0,0.543-0.139,0.97-0.41,1.278c-0.275,0.312-0.656,0.465-1.146,0.465
			c-0.498,0-0.883-0.15-1.152-0.457c-0.271-0.305-0.407-0.732-0.407-1.291c0-0.551,0.136-0.979,0.407-1.281
			c0.271-0.305,0.658-0.455,1.158-0.455c0.486,0,0.865,0.152,1.142,0.465C105.895,97.54,106.031,97.966,106.031,98.51 M103.332,98.51
			c0,0.459,0.098,0.808,0.293,1.046c0.195,0.234,0.48,0.354,0.852,0.354c0.375,0,0.658-0.119,0.851-0.354
			c0.192-0.236,0.289-0.584,0.289-1.046c0-0.454-0.097-0.802-0.287-1.036c-0.188-0.234-0.474-0.354-0.849-0.354
			s-0.66,0.117-0.854,0.355C103.43,97.712,103.332,98.058,103.332,98.51"/>
		<path fill="#1D1D1B" d="M107.09,97.669v1.646c0,0.207,0.047,0.36,0.141,0.463c0.097,0.102,0.242,0.154,0.443,0.154
			c0.266,0,0.459-0.074,0.582-0.22s0.186-0.383,0.186-0.711v-1.334h0.386v2.539h-0.315l-0.058-0.342h-0.021
			c-0.078,0.125-0.188,0.221-0.328,0.286c-0.141,0.065-0.299,0.101-0.479,0.101c-0.311,0-0.539-0.071-0.693-0.219
			c-0.151-0.147-0.229-0.384-0.229-0.705v-1.66L107.09,97.669L107.09,97.669z"/>
		<path fill="#1D1D1B" d="M110.799,97.622c0.113,0,0.215,0.01,0.305,0.027l-0.055,0.356c-0.104-0.022-0.197-0.034-0.277-0.034
			c-0.205,0-0.381,0.084-0.526,0.25c-0.146,0.168-0.22,0.375-0.22,0.622v1.363h-0.385v-2.539h0.318l0.043,0.47h0.02
			c0.095-0.164,0.207-0.291,0.34-0.382C110.495,97.666,110.641,97.622,110.799,97.622"/>
		<path fill="#1D1D1B" d="M114.779,99.306c0,0.299-0.107,0.531-0.324,0.697c-0.217,0.168-0.51,0.25-0.881,0.25
			c-0.399,0-0.711-0.051-0.926-0.154v-0.381c0.139,0.061,0.289,0.104,0.451,0.141c0.164,0.033,0.326,0.052,0.486,0.052
			c0.264,0,0.461-0.052,0.594-0.149c0.135-0.101,0.2-0.238,0.2-0.416c0-0.117-0.024-0.214-0.071-0.287
			c-0.047-0.076-0.127-0.146-0.234-0.209c-0.11-0.062-0.278-0.136-0.504-0.216c-0.313-0.112-0.541-0.245-0.678-0.399
			c-0.135-0.152-0.201-0.354-0.201-0.604c0-0.26,0.101-0.469,0.295-0.623c0.193-0.154,0.455-0.23,0.775-0.23
			c0.338,0,0.647,0.062,0.932,0.187l-0.123,0.343c-0.278-0.117-0.553-0.177-0.813-0.177c-0.209,0-0.37,0.045-0.489,0.136
			c-0.117,0.09-0.177,0.213-0.177,0.373c0,0.116,0.021,0.213,0.065,0.286c0.043,0.076,0.115,0.146,0.22,0.207
			c0.103,0.062,0.261,0.132,0.472,0.207c0.354,0.127,0.603,0.265,0.73,0.408C114.711,98.888,114.779,99.075,114.779,99.306"/>
		<path fill="#1D1D1B" d="M116.488,100.253c-0.375,0-0.672-0.111-0.891-0.342c-0.217-0.229-0.324-0.547-0.324-0.953
			c0-0.407,0.103-0.732,0.303-0.975c0.201-0.24,0.474-0.361,0.812-0.361c0.315,0,0.569,0.105,0.754,0.314
			c0.188,0.209,0.278,0.483,0.278,0.828v0.241h-1.75c0.009,0.3,0.084,0.524,0.229,0.681c0.143,0.153,0.344,0.229,0.604,0.229
			c0.273,0,0.543-0.058,0.811-0.17v0.342c-0.137,0.06-0.264,0.103-0.385,0.127C116.805,100.241,116.658,100.253,116.488,100.253
			 M116.382,97.944c-0.202,0-0.364,0.065-0.485,0.199c-0.121,0.133-0.192,0.315-0.215,0.551h1.327c0-0.242-0.056-0.428-0.161-0.557
			C116.738,98.01,116.583,97.944,116.382,97.944"/>
		<path fill="#1D1D1B" d="M119.814,100.208v-1.643c0-0.207-0.049-0.361-0.143-0.463c-0.095-0.104-0.242-0.154-0.441-0.154
			c-0.268,0-0.459,0.072-0.584,0.217c-0.123,0.145-0.188,0.379-0.188,0.711v1.332h-0.384v-2.539h0.312l0.062,0.35h0.019
			c0.078-0.125,0.188-0.225,0.332-0.291c0.144-0.067,0.302-0.104,0.476-0.104c0.309,0,0.535,0.074,0.688,0.222
			c0.155,0.147,0.231,0.385,0.231,0.709v1.655L119.814,100.208L119.814,100.208z"/>
		<path fill="#1D1D1B" d="M122.626,99.515c0,0.236-0.089,0.418-0.265,0.547c-0.178,0.129-0.424,0.191-0.742,0.191
			c-0.336,0-0.598-0.053-0.786-0.158v-0.357c0.122,0.062,0.254,0.109,0.394,0.146c0.142,0.035,0.274,0.053,0.403,0.053
			c0.2,0,0.354-0.03,0.463-0.096c0.109-0.064,0.162-0.162,0.162-0.293c0-0.101-0.043-0.185-0.127-0.254
			c-0.086-0.07-0.254-0.154-0.502-0.25c-0.235-0.088-0.403-0.164-0.505-0.23c-0.1-0.063-0.174-0.141-0.223-0.223
			c-0.051-0.084-0.072-0.185-0.072-0.299c0-0.207,0.084-0.371,0.252-0.49s0.396-0.18,0.689-0.18c0.273,0,0.541,0.055,0.805,0.166
			l-0.139,0.312c-0.256-0.104-0.484-0.158-0.691-0.158c-0.184,0-0.317,0.027-0.412,0.086c-0.092,0.059-0.139,0.137-0.139,0.236
			c0,0.067,0.019,0.125,0.053,0.174c0.033,0.047,0.091,0.096,0.168,0.139c0.076,0.043,0.227,0.104,0.443,0.188
			c0.303,0.109,0.506,0.219,0.609,0.33C122.572,99.206,122.626,99.347,122.626,99.515"/>
		<path fill="#1D1D1B" d="M124.324,100.253c-0.377,0-0.672-0.111-0.891-0.342c-0.217-0.229-0.324-0.547-0.324-0.953
			c0-0.407,0.103-0.732,0.303-0.975c0.201-0.24,0.475-0.361,0.812-0.361c0.317,0,0.567,0.105,0.754,0.314s0.278,0.483,0.278,0.828
			v0.241h-1.75c0.009,0.3,0.084,0.524,0.228,0.681c0.145,0.153,0.345,0.229,0.604,0.229c0.271,0,0.543-0.058,0.812-0.17v0.342
			c-0.139,0.06-0.268,0.103-0.389,0.127C124.643,100.241,124.494,100.253,124.324,100.253 M124.221,97.944
			c-0.203,0-0.365,0.065-0.486,0.199c-0.123,0.133-0.191,0.315-0.215,0.551h1.328c0-0.242-0.056-0.428-0.164-0.557
			C124.574,98.01,124.421,97.944,124.221,97.944"/>
		<path fill="#1D1D1B" d="M127.552,99.515c0,0.236-0.088,0.418-0.265,0.547c-0.176,0.129-0.424,0.191-0.741,0.191
			c-0.336,0-0.601-0.053-0.787-0.158v-0.357c0.121,0.062,0.253,0.109,0.394,0.146c0.143,0.035,0.272,0.053,0.404,0.053
			c0.2,0,0.354-0.03,0.463-0.096c0.108-0.064,0.162-0.162,0.162-0.293c0-0.101-0.043-0.185-0.13-0.254
			c-0.086-0.07-0.252-0.154-0.5-0.25c-0.235-0.088-0.403-0.164-0.504-0.23c-0.101-0.063-0.174-0.141-0.224-0.223
			c-0.049-0.084-0.073-0.185-0.073-0.299c0-0.207,0.084-0.371,0.254-0.49c0.168-0.119,0.397-0.18,0.69-0.18
			c0.271,0,0.541,0.055,0.804,0.166l-0.138,0.312c-0.256-0.104-0.485-0.158-0.692-0.158c-0.183,0-0.319,0.027-0.412,0.086
			c-0.095,0.059-0.14,0.137-0.14,0.236c0,0.067,0.02,0.125,0.052,0.174c0.034,0.047,0.093,0.096,0.168,0.139
			c0.077,0.043,0.228,0.104,0.444,0.188c0.302,0.109,0.506,0.219,0.609,0.33C127.498,99.206,127.552,99.347,127.552,99.515"/>
		<polygon fill="#1D1D1B" points="85.38,40.525 85.38,42.325 81.124,42.325 81.124,44.308 85.17,44.308 85.17,46.107 81.124,46.107
			81.124,49.706 79.075,49.706 79.075,40.525 	"/>
		<path fill="#1D1D1B" d="M94.561,43.572c0,1.471-0.583,2.421-1.747,2.851l2.325,3.283h-2.522l-2.036-2.929h-1.418v2.929h-2.049
			v-9.181h3.481c1.427,0,2.445,0.241,3.054,0.722C94.257,41.729,94.561,42.504,94.561,43.572 M92.092,44.663
			c0.254-0.228,0.381-0.589,0.381-1.083s-0.131-0.834-0.394-1.018c-0.263-0.184-0.722-0.276-1.379-0.276h-1.537v2.719h1.497
			C91.36,45.003,91.838,44.891,92.092,44.663"/>
		<path fill="#1D1D1B" d="M104.293,48.438c-0.928,0.906-2.071,1.359-3.428,1.359c-1.357,0-2.5-0.454-3.428-1.359
			c-0.928-0.907-1.392-2.034-1.392-3.382c0-1.348,0.464-2.476,1.392-3.382c0.928-0.906,2.071-1.359,3.428-1.359
			c1.357,0,2.5,0.453,3.428,1.359c0.928,0.906,1.393,2.034,1.393,3.382C105.686,46.404,105.221,47.531,104.293,48.438
			 M103.598,45.062c0-0.818-0.264-1.517-0.789-2.095c-0.524-0.578-1.17-0.867-1.937-0.867c-0.767,0-1.412,0.289-1.938,0.867
			c-0.525,0.578-0.788,1.276-0.788,2.095s0.263,1.515,0.788,2.088c0.525,0.574,1.171,0.86,1.938,0.86c0.766,0,1.412-0.287,1.937-0.86
			C103.334,46.578,103.598,45.881,103.598,45.062"/>
		<polygon fill="#1D1D1B" points="115.643,43.927 113.16,48.944 111.938,48.944 109.469,43.927 109.469,49.706 107.42,49.706
			107.42,40.524 110.191,40.524 112.555,45.568 114.934,40.524 117.691,40.524 117.691,49.706 115.643,49.706 	"/>
		<polygon fill="#1D1D1B" points="87.298,56.011 84.815,61.028 83.593,61.028 81.124,56.011 81.124,61.79 79.075,61.79
			79.075,52.608 81.846,52.608 84.211,57.652 86.588,52.608 89.346,52.608 89.346,61.79 87.298,61.79 	"/>
		<path fill="#1D1D1B" d="M98.147,61.79l-0.854-1.982h-3.848l-0.854,1.982h-2.18l3.967-9.182h1.983l3.967,9.182H98.147z
			 M95.375,55.34l-1.156,2.667h2.299L95.375,55.34z"/>
		<polygon fill="#1D1D1B" points="107.814,52.608 109.863,52.608 109.863,61.79 107.814,61.79 103.439,56.037 103.439,61.79
			101.391,61.79 101.391,52.608 103.309,52.608 107.814,58.521 	"/>
		<polygon fill="#1D1D1B" points="82.963,66.466 82.963,73.874 80.914,73.874 80.914,66.466 78.313,66.466 78.313,64.692
			85.564,64.692 85.564,66.466 	"/>
		<path fill="#1D1D1B" d="M94.534,72.606c-0.928,0.906-2.071,1.358-3.428,1.358s-2.5-0.452-3.428-1.358
			c-0.929-0.906-1.393-2.033-1.393-3.383c0-1.349,0.464-2.478,1.393-3.384c0.928-0.905,2.071-1.358,3.428-1.358
			s2.5,0.453,3.428,1.358c0.928,0.906,1.393,2.035,1.393,3.384C95.927,70.573,95.463,71.7,94.534,72.606 M93.839,69.229
			c0-0.816-0.263-1.517-0.788-2.095c-0.525-0.577-1.171-0.866-1.938-0.866c-0.767,0-1.412,0.289-1.938,0.866
			c-0.526,0.578-0.788,1.275-0.788,2.095c0,0.82,0.263,1.518,0.788,2.09c0.525,0.572,1.171,0.859,1.938,0.859
			c0.766,0,1.412-0.287,1.938-0.859C93.577,70.747,93.839,70.05,93.839,69.229"/>
		<polygon fill="#1D1D1B" points="87.298,80.179 84.815,85.196 83.593,85.196 81.124,80.179 81.124,85.958 79.075,85.958
			79.075,76.776 81.846,76.776 84.211,81.819 86.588,76.776 89.346,76.776 89.346,85.958 87.298,85.958 	"/>
		<path fill="#1D1D1B" d="M98.147,85.958l-0.854-1.982h-3.848l-0.854,1.982h-2.18l3.967-9.182h1.983l3.967,9.182H98.147z
			 M95.375,79.509l-1.156,2.667h2.299L95.375,79.509z"/>
		<path fill="#1D1D1B" d="M105.607,84.146c1.006,0,1.83-0.397,2.469-1.194l1.314,1.353c-1.043,1.174-2.271,1.762-3.687,1.762
			c-1.416,0-2.578-0.445-3.494-1.34c-0.915-0.896-1.373-2.021-1.373-3.384c0-1.36,0.466-2.497,1.399-3.407
			c0.932-0.91,2.073-1.367,3.421-1.367c1.506,0,2.767,0.574,3.78,1.723l-1.271,1.443c-0.648-0.806-1.453-1.209-2.416-1.209
			c-0.771,0-1.432,0.252-1.979,0.757c-0.549,0.503-0.821,1.181-0.821,2.034c0,0.854,0.257,1.539,0.774,2.059
			C104.246,83.886,104.871,84.146,105.607,84.146"/>
		<polygon fill="#1D1D1B" points="116.705,76.776 118.755,76.776 118.755,85.958 116.705,85.958 116.705,82.345 113.055,82.345
			113.055,85.958 111.006,85.958 111.006,76.776 113.055,76.776 113.055,80.612 116.705,80.612 	"/>
		<rect x="121.016" y="76.776" fill="#1D1D1B" width="2.049" height="9.182"/>
		<polygon fill="#1D1D1B" points="131.744,76.776 133.794,76.776 133.794,85.958 131.744,85.958 127.369,80.204 127.369,85.958
			125.322,85.958 125.322,76.776 127.238,76.776 131.744,82.687 	"/>
		<polygon fill="#1D1D1B" points="142.673,76.776 142.673,78.603 138.104,78.603 138.104,80.493 142.212,80.493 142.212,82.239
			138.104,82.239 138.104,84.146 142.818,84.146 142.818,85.958 136.052,85.958 136.052,76.776 	"/>
	</g>
</svg>
