<?xml version="1.0" encoding="utf-8"?>
<!-- Generator: Adobe Illustrator 16.0.0, SVG Export Plug-In . SVG Version: 6.00 Build 0)  -->
<!DOCTYPE svg PUBLIC "-//W3C//DTD SVG 1.1//EN" "http://www.w3.org/Graphics/SVG/1.1/DTD/svg11.dtd">
<svg version="1.1" id="Draw" xmlns="http://www.w3.org/2000/svg" xmlns:xlink="http://www.w3.org/1999/xlink" x="0px" y="0px"
	 width="251.371px" height="251.367px" viewBox="0 0 251.371 251.367" enable-background="new 0 0 251.371 251.367"
	 xml:space="preserve">
<g id="BG_1_">
	<path id="BG" fill="#62D4B2" d="M251.37,125.687c0,1.811-0.039,3.609-0.109,5.4c-2.829,66.899-57.971,120.279-125.57,120.279
		c-67.609,0-122.75-53.38-125.58-120.279C0.04,129.298,0,127.497,0,125.69C0,56.271,56.272,0.001,125.69,0.001
		C195.1-0.003,251.37,56.267,251.37,125.687z"/>
</g>
<g id="Sea_1_">
	<path id="Sea" fill="#54907F" d="M251.26,131.087c-2.83,66.899-57.971,120.279-125.57,120.279
		c-67.609,0-122.75-53.38-125.58-120.279H251.26L251.26,131.087z"/>
</g>
<g id="Right_4">
	<path fill="none" stroke="#62D4B2" stroke-width="4" stroke-miterlimit="10" d="M192.657,141.729
		c0,36.931-30.044,66.975-66.973,66.975"/>
</g>
<g id="Right_3">
	<path fill="none" stroke="#62D4B2" stroke-width="4" stroke-miterlimit="10" d="M181.032,141.729
		c0,30.521-24.828,55.349-55.346,55.349"/>
</g>
<g id="Right_2">
	<path fill="none" stroke="#62D4B2" stroke-width="4" stroke-miterlimit="10" d="M125.684,185.451
		c24.146,0,43.723-19.571,43.723-43.723"/>
</g>
<g id="Right_1">
	<path fill="none" stroke="#62D4B2" stroke-width="4" stroke-miterlimit="10" d="M125.686,173.826
		c17.695,0,32.096-14.396,32.096-32.098"/>
</g>
<g id="Left_4">
	<path fill="none" stroke="#62D4B2" stroke-width="4" stroke-miterlimit="10" d="M125.684,208.702
		c-36.932,0-66.975-30.044-66.975-66.974"/>
</g>
<g id="Left_3">
	<path fill="none" stroke="#62D4B2" stroke-width="4" stroke-miterlimit="10" d="M125.686,197.076
		c-30.521,0-55.352-24.823-55.352-55.348"/>
</g>
<g id="Left_2">
	<path fill="none" stroke="#62D4B2" stroke-width="4" stroke-miterlimit="10" d="M81.961,141.729
		c0,24.146,19.576,43.724,43.727,43.724"/>
</g>
<g id="Left_1">
	<path fill="none" stroke="#62D4B2" stroke-width="4" stroke-miterlimit="10" d="M93.588,141.729
		c0,17.698,14.398,32.099,32.1,32.099"/>
</g>
<g id="Ship">
	<line fill="none" stroke="#1F140F" stroke-width="2" stroke-miterlimit="10" x1="81.768" y1="108.598" x2="67.567" y2="79.812"/>
	<polyline fill="none" stroke="#1F140F" stroke-width="2" stroke-miterlimit="10" points="90.006,108.598 75.803,79.812 
		47.053,79.812 47.053,90.844 	"/>
	<line fill="none" stroke="#1F140F" stroke-width="2" stroke-miterlimit="10" x1="77.354" y1="82.954" x2="47.055" y2="82.954"/>
	<line fill="none" stroke="#1F140F" stroke-width="2" stroke-miterlimit="10" x1="73.538" y1="92.395" x2="78.676" y2="85.437"/>
	<line fill="none" stroke="#1F140F" stroke-width="2" stroke-miterlimit="10" x1="81.17" y1="107.118" x2="85.979" y2="100.488"/>
	<line fill="none" stroke="#1F140F" stroke-width="2" stroke-miterlimit="10" x1="77.354" y1="99.354" x2="82.153" y2="92.733"/>
	<path fill="#FAB88B" d="M239.602,94.206l-6.359,5.961l-19.609,18.369l-13.391,12.551H25.581c-6.51,0-11.779-5.28-11.779-11.791
		v-11.51h115.5v-34.67h33.341l23.871,21.09H239.602L239.602,94.206z"/>
	<path fill="#1D1D1B" d="M213.631,118.536l-13.391,12.551H25.581c-6.51,0-11.779-5.28-11.779-11.791v-0.76H213.631L213.631,118.536z
		"/>
	
		<line fill="none" stroke="#1F140F" stroke-width="2" stroke-miterlimit="10" x1="111.834" y1="114.208" x2="106.268" y2="114.208"/>
	<line fill="none" stroke="#1F140F" stroke-width="2" stroke-miterlimit="10" x1="94.643" y1="114.208" x2="89.075" y2="114.208"/>
	<line fill="none" stroke="#1F140F" stroke-width="2" stroke-miterlimit="10" x1="77.45" y1="114.208" x2="71.881" y2="114.208"/>
	<line fill="none" stroke="#1F140F" stroke-width="2" stroke-miterlimit="10" x1="60.258" y1="114.208" x2="54.69" y2="114.208"/>
	<line fill="none" stroke="#1F140F" stroke-width="2" stroke-miterlimit="10" x1="43.065" y1="114.208" x2="37.497" y2="114.208"/>
	
		<line fill="none" stroke="#1F140F" stroke-width="2" stroke-miterlimit="10" x1="201.178" y1="107.202" x2="195.611" y2="107.202"/>
	<line fill="none" stroke="#1F140F" stroke-width="2" stroke-miterlimit="10" x1="183.986" y1="107.202" x2="178.42" y2="107.202"/>
	
		<line fill="none" stroke="#1F140F" stroke-width="2" stroke-miterlimit="10" x1="166.795" y1="107.202" x2="161.227" y2="107.202"/>
	<line fill="none" stroke="#1F140F" stroke-width="2" stroke-miterlimit="10" x1="158.859" y1="78.126" x2="134.277" y2="78.126"/>
	<line fill="none" stroke="#1F140F" stroke-width="2" stroke-miterlimit="10" x1="142.157" y1="73.118" x2="142.157" y2="51.743"/>
	<line fill="none" stroke="#1F140F" stroke-width="2" stroke-miterlimit="10" x1="147.137" y1="57.274" x2="137.178" y2="57.274"/>
	<line fill="none" stroke="#1F140F" stroke-width="2" stroke-miterlimit="10" x1="147.137" y1="60.409" x2="137.178" y2="60.409"/>
	<line fill="none" stroke="#1F140F" stroke-width="2" stroke-miterlimit="10" x1="162.643" y1="69.667" x2="129.303" y2="69.667"/>
	<line fill="none" stroke="#1F140F" stroke-width="2" stroke-miterlimit="10" x1="159.995" y1="83.817" x2="155.471" y2="83.817"/>
	<line fill="none" stroke="#1F140F" stroke-width="2" stroke-miterlimit="10" x1="149.396" y1="83.817" x2="144.875" y2="83.817"/>
	<line fill="none" stroke="#1F140F" stroke-width="2" stroke-miterlimit="10" x1="138.801" y1="83.817" x2="134.277" y2="83.817"/>
	<line fill="none" stroke="#1F140F" stroke-width="2" stroke-miterlimit="10" x1="170.594" y1="89.509" x2="166.068" y2="89.509"/>
	<line fill="none" stroke="#1F140F" stroke-width="2" stroke-miterlimit="10" x1="159.995" y1="89.509" x2="155.471" y2="89.509"/>
	<line fill="none" stroke="#1F140F" stroke-width="2" stroke-miterlimit="10" x1="149.396" y1="89.509" x2="144.875" y2="89.509"/>
	<line fill="none" stroke="#1F140F" stroke-width="2" stroke-miterlimit="10" x1="138.801" y1="89.509" x2="134.277" y2="89.509"/>
	<line fill="none" stroke="#1F140F" stroke-width="2" stroke-miterlimit="10" x1="14.27" y1="107.792" x2="14.27" y2="94.206"/>
	<rect x="92.543" y="102.019" fill="#000100" width="36.76" height="5.771"/>
	<line fill="none" stroke="#1F140F" stroke-width="2" stroke-miterlimit="10" x1="129.303" y1="99.354" x2="92.543" y2="99.354"/>
	<polygon fill="#FFFFFF" points="239.602,94.206 233.241,100.167 129.301,100.167 129.301,94.206 	"/>
</g>
</svg>
