<?xml version="1.0" encoding="utf-8"?>
<!-- Generator: Adobe Illustrator 16.0.0, SVG Export Plug-In . SVG Version: 6.00 Build 0)  -->
<!DOCTYPE svg PUBLIC "-//W3C//DTD SVG 1.1//EN" "http://www.w3.org/Graphics/SVG/1.1/DTD/svg11.dtd">
<svg version="1.1" id="Layer_1" xmlns="http://www.w3.org/2000/svg" xmlns:xlink="http://www.w3.org/1999/xlink" x="0px" y="0px"
	 width="768px" height="335.697px" viewBox="0 0 768 335.697" enable-background="new 0 0 768 335.697" xml:space="preserve">
<g>
	<g>
		<g>
			<g>
				<path fill="#FFFFFF" d="M314.316,32.327c9.586,21.69,31.286,36.826,56.525,36.826h0.239c25.238,0,46.938-15.139,56.523-36.826
					H314.316z"/>
			</g>
		</g>
		<path fill="#FFFFFF" d="M526.62,153.814v180.001h-45.558l-11.289-171.42v171.42H272.058v-171.42l-11.291,171.421h-45.556V153.814
			c0-22.304,15.06-41.796,36.643-47.425l3.784-0.985l55.571-14.49c14.026-3.658,23.815-16.335,23.815-30.834v-5.773H406.8v5.773
			c0,14.498,9.788,27.176,23.822,30.834l54.704,14.264l4.643,1.211C511.557,112.021,526.62,131.514,526.62,153.814z"/>
		<path fill="none" d="M335.03,54.309v5.773c0,14.501-9.79,27.173-23.822,30.833l-59.356,15.481
			c-21.581,5.628-36.638,25.119-36.638,47.42v180h45.553l11.292-171.417v171.417h197.712V162.398l11.293,171.417h45.553V153.814
			c0-22.303-15.062-41.792-36.642-47.422l-59.354-15.48c-14.03-3.659-23.82-16.331-23.82-30.833v-5.774L335.03,54.309L335.03,54.309
			z"/>
		
			<path fill="none" stroke="#1D1D1B" stroke-width="3.7654" stroke-linecap="round" stroke-linejoin="round" stroke-miterlimit="10" d="
			M371.787,181.638c0,10.557-8.558,19.115-19.116,19.115h-42.729c-10.558,0-19.117-8.559-19.117-19.115"/>
		
			<path fill="none" stroke="#1D1D1B" stroke-width="3.7654" stroke-linecap="round" stroke-linejoin="round" stroke-miterlimit="10" d="
			M452.748,181.638c0,10.557-8.557,19.115-19.114,19.115h-42.729c-10.555,0-19.114-8.559-19.114-19.115"/>
		
			<line fill="none" stroke="#FAB88B" stroke-width="3.7654" stroke-linecap="round" stroke-linejoin="round" stroke-miterlimit="10" x1="370.917" y1="111.851" x2="370.917" y2="86.462"/>
		
			<line fill="none" stroke="#FAB88B" stroke-width="3.7654" stroke-linecap="round" stroke-linejoin="round" stroke-miterlimit="10" x1="314.078" y1="232.3" x2="427.753" y2="232.3"/>
		
			<line fill="none" stroke="#FAB88B" stroke-width="3.7654" stroke-linecap="round" stroke-linejoin="round" stroke-miterlimit="10" x1="322.512" y1="263.757" x2="359.64" y2="263.757"/>
		
			<line fill="none" stroke="#FAB88B" stroke-width="3.7654" stroke-linecap="round" stroke-linejoin="round" stroke-miterlimit="10" x1="382.189" y1="263.757" x2="419.318" y2="263.757"/>
		
			<line fill="none" stroke="#FAB88B" stroke-width="3.7654" stroke-linecap="round" stroke-linejoin="round" stroke-miterlimit="10" x1="322.512" y1="294.09" x2="359.64" y2="294.09"/>
		
			<line fill="none" stroke="#FAB88B" stroke-width="3.7654" stroke-linecap="round" stroke-linejoin="round" stroke-miterlimit="10" x1="382.189" y1="294.09" x2="419.318" y2="294.09"/>
		
			<line fill="none" stroke="#1D1D1B" stroke-width="3.7654" stroke-linecap="round" stroke-linejoin="round" stroke-miterlimit="10" x1="370.917" y1="75.673" x2="370.917" y2="66.048"/>
		<path fill="#FAB88B" d="M331.601,173.062c0-1.713-1.387-3.102-3.1-3.102c-1.712,0-3.099,1.389-3.099,3.102
			s1.386,3.099,3.099,3.099S331.601,174.772,331.601,173.062"/>
		<path fill="#FAB88B" d="M416.623,173.062c0-1.713-1.388-3.102-3.102-3.102s-3.102,1.389-3.102,3.102s1.387,3.099,3.102,3.099
			C415.235,176.16,416.623,174.772,416.623,173.062"/>
		
			<line fill="none" stroke="#8B80FF" stroke-width="3.7654" stroke-linecap="round" stroke-linejoin="round" stroke-miterlimit="10" x1="272.06" y1="333.812" x2="272.06" y2="162.398"/>
		
			<line fill="none" stroke="#8B80FF" stroke-width="3.7654" stroke-linecap="round" stroke-linejoin="round" stroke-miterlimit="10" x1="469.77" y1="333.812" x2="469.77" y2="162.398"/>
		
			<linearGradient id="SVGID_1_" gradientUnits="userSpaceOnUse" x1="52.2471" y1="705.8711" x2="-8.7453" y2="705.8711" gradientTransform="matrix(1 0 0 1 504 -486.373)">
			<stop  offset="0" style="stop-color:#FAB88B"/>
			<stop  offset="0.3229" style="stop-color:#FCD1B5"/>
			<stop  offset="0.7781" style="stop-color:#FEF2EA"/>
			<stop  offset="1" style="stop-color:#FFFFFF"/>
		</linearGradient>
		<path opacity="0.4" fill="url(#SVGID_1_)" enable-background="new    " d="M526.62,153.814v180.001h-41.29V105.18l4.643,1.21
			C511.557,112.021,526.62,131.514,526.62,153.814z"/>
		
			<linearGradient id="SVGID_2_" gradientUnits="userSpaceOnUse" x1="-304.4058" y1="705.9834" x2="-262.1189" y2="705.9834" gradientTransform="matrix(1 0 0 1 504 -486.373)">
			<stop  offset="0" style="stop-color:#FAB88B"/>
			<stop  offset="0.3229" style="stop-color:#FCD1B5"/>
			<stop  offset="0.7781" style="stop-color:#FEF2EA"/>
			<stop  offset="1" style="stop-color:#FFFFFF"/>
		</linearGradient>
		<path opacity="0.4" fill="url(#SVGID_2_)" enable-background="new    " d="M255.64,105.405v228.412h-40.428V153.814
			c0-22.304,15.06-41.796,36.643-47.425L255.64,105.405z"/>
	</g>
</g>
<linearGradient id="SVGID_3_" gradientUnits="userSpaceOnUse" x1="202.9224" y1="531.3018" x2="202.9224" y2="702.3024" gradientTransform="matrix(1 0 0 1 168 -275.3027)">
	<stop  offset="0.3061" style="stop-color:#8B80FF;stop-opacity:0"/>
	<stop  offset="1" style="stop-color:#8B80FF"/>
</linearGradient>
<path fill="url(#SVGID_3_)" d="M526.602,105.18h-0.521h-0.527h-0.521h-0.523h-0.521h-0.523h-0.522h-0.522h-0.527h-0.521h-0.523
	h-0.521h-0.523h-0.522h-0.522h-0.522h-0.522h-0.522h-0.522h-0.522h-0.527h-0.522h-0.522h-0.522h-0.522h-0.522h-0.522h-0.527h-0.521
	h-0.523h-0.522h-0.522h-0.522h-0.522h-0.646H507.5h-0.645h-0.646h-0.645h-0.646h-0.645h-0.646h-0.645h-0.646h-0.645h-0.646H500.4
	h-0.646h-0.645h-0.646h-0.645h-0.646h-0.645h-0.646h-0.646h-9.926h-0.002l-14.075-3.67l-40.628-10.596
	c-14.03-3.659-23.82-16.331-23.82-30.833v-2.306c9.034-6.417,16.271-15.2,20.801-25.447h-113.27
	c4.514,10.214,11.716,18.973,20.708,25.384v2.37c0,12.891-7.741,24.334-19.314,29.287c-1.444,0.618-2.945,1.141-4.501,1.547
	l-3.552,0.927l-52.018,13.563l-0.005,0.001h-13.75h-0.449h-0.445h-0.449h-0.445h-0.445h-0.449h-0.445h-0.449h-0.445h-0.445h-0.449
	h-0.445h-0.449h-0.445h-0.445h-0.449h-0.445h-0.449h-0.445h-0.445h-0.449h-0.363h-0.363h-0.363h-0.359h-0.367h-0.359h-0.367h-0.359
	h-0.363h-0.363h-0.363h-0.363h-0.363h-0.363h-0.363h-0.363h-0.363h-0.363h-0.363h-0.363h-0.363h-0.363h-0.363h-0.363h-0.363h-0.363
	h-0.363h-0.363h-0.363h-0.363h-0.363h-0.363h-0.363h-0.363h-0.363h-0.363h-0.363h-0.363h-0.363h-0.363h-0.363h-0.363h-0.363h-0.363
	h-0.363h-0.363h-0.359h-0.219v48.409v180.001h0.001h0.002h0.216h0.359h0.363h0.363h0.363h0.363h0.363h0.363h0.363h0.363h0.363h0.363
	h0.363h0.363h0.363h0.363h0.363h0.363h0.363h0.363h0.363h0.363h0.363h0.363h0.363h0.363h0.363h0.363h0.363h0.363h0.363h0.363h0.363
	h0.363h0.363h0.363h0.363h0.363h0.363h0.363h0.359h0.367h0.359h0.367h0.359h0.363h0.363h0.363h0.449h0.445h0.445h0.449h0.445h0.449
	h0.445h0.445h0.449h0.445h0.449h0.445h0.445h0.449h0.445h0.449h0.445h0.445h0.449h0.445h0.449h13.757l0,0h5.126l9.41-142.852v142.85
	c0,1.04,0.843,1.883,1.883,1.883c1.039,0,1.881-0.842,1.883-1.881h193.944c0.001,1.039,0.846,1.881,1.883,1.881
	c1.041,0,1.885-0.843,1.885-1.883V190.948l4.029,61.193l5.379,81.675h0.004h4.264h0.002h9.924h0.646h0.645h0.646h0.645h0.646h0.645
	h0.646h0.646h0.645h0.646h0.645h0.646h0.645h0.646h0.645h0.646h0.645h0.646h0.645h0.646h0.645h0.523h0.521h0.523h0.521h0.523h0.522
	h0.526h0.523h0.521h0.523h0.521h0.523h0.521h0.527h0.523h0.521h0.523h0.521h0.523h0.521h0.523h0.522h0.522h0.522h0.522h0.527h0.521
	h0.523h0.522h0.522h0.522h0.522h0.526h0.522h0.017h0.003h0.001V105.18H526.602z"/>
</svg>
