<?xml version="1.0" encoding="utf-8"?>
<!-- Generator: Adobe Illustrator 16.0.0, SVG Export Plug-In . SVG Version: 6.00 Build 0)  -->
<!DOCTYPE svg PUBLIC "-//W3C//DTD SVG 1.1//EN" "http://www.w3.org/Graphics/SVG/1.1/DTD/svg11.dtd">
<svg version="1.1" id="Layer_1" xmlns="http://www.w3.org/2000/svg" xmlns:xlink="http://www.w3.org/1999/xlink" x="0px" y="0px"
	 width="768px" height="438.538px" viewBox="-20 -11.444 768 438.538" enable-background="new -20 -11.444 768 438.538"
	 xml:space="preserve">
<g>
	<rect x="-20" y="-11.444" fill="#8B80FF" width="768" height="438.538"/>
	<g>
		<g>
			<g>
				<path fill="#FFFFFF" d="M314.316,51.096c9.586,21.69,31.286,36.826,56.525,36.826h0.239c25.238,0,46.938-15.139,56.523-36.826
					H314.316z"/>
			</g>
		</g>
		<path fill="#FFFFFF" d="M526.62,172.584v180.001h-45.557l-11.29-171.42v171.42H272.058V181.164l-11.291,171.421h-45.556V172.584
			c0-22.304,15.06-41.796,36.643-47.425l3.784-0.985l55.571-14.49c14.026-3.658,23.815-16.335,23.815-30.834v-5.773h71.776v5.773
			c0,14.498,9.788,27.176,23.822,30.834l54.704,14.264l4.643,1.211C511.557,130.79,526.62,150.283,526.62,172.584z"/>
		<path fill="none" d="M335.03,73.078v5.773c0,14.501-9.79,27.173-23.822,30.833l-59.356,15.481
			c-21.581,5.628-36.638,25.119-36.638,47.42v180h45.553l11.292-171.417v171.417h197.713V181.168l11.292,171.417h45.553V172.584
			c0-22.303-15.06-41.792-36.639-47.422l-59.355-15.48c-14.03-3.659-23.82-16.331-23.82-30.833v-5.774L335.03,73.078L335.03,73.078z
			"/>
		
			<path fill="none" stroke="#1D1D1B" stroke-width="3.7654" stroke-linecap="round" stroke-linejoin="round" stroke-miterlimit="10" d="
			M371.787,200.407c0,10.556-8.558,19.115-19.116,19.115h-42.729c-10.558,0-19.117-8.557-19.117-19.115"/>
		
			<path fill="none" stroke="#1D1D1B" stroke-width="3.7654" stroke-linecap="round" stroke-linejoin="round" stroke-miterlimit="10" d="
			M452.748,200.407c0,10.556-8.557,19.115-19.114,19.115h-42.729c-10.558,0-19.117-8.557-19.117-19.115"/>
		
			<line fill="none" stroke="#FAB88B" stroke-width="3.7654" stroke-linecap="round" stroke-linejoin="round" stroke-miterlimit="10" x1="370.917" y1="130.62" x2="370.917" y2="105.232"/>
		
			<line fill="none" stroke="#FAB88B" stroke-width="3.7654" stroke-linecap="round" stroke-linejoin="round" stroke-miterlimit="10" x1="314.078" y1="251.069" x2="427.753" y2="251.069"/>
		
			<line fill="none" stroke="#FAB88B" stroke-width="3.7654" stroke-linecap="round" stroke-linejoin="round" stroke-miterlimit="10" x1="322.512" y1="282.526" x2="359.64" y2="282.526"/>
		
			<line fill="none" stroke="#FAB88B" stroke-width="3.7654" stroke-linecap="round" stroke-linejoin="round" stroke-miterlimit="10" x1="382.189" y1="282.526" x2="419.318" y2="282.526"/>
		
			<line fill="none" stroke="#FAB88B" stroke-width="3.7654" stroke-linecap="round" stroke-linejoin="round" stroke-miterlimit="10" x1="322.512" y1="312.858" x2="359.64" y2="312.858"/>
		
			<line fill="none" stroke="#FAB88B" stroke-width="3.7654" stroke-linecap="round" stroke-linejoin="round" stroke-miterlimit="10" x1="382.189" y1="312.858" x2="419.318" y2="312.858"/>
		
			<line fill="none" stroke="#1D1D1B" stroke-width="3.7654" stroke-linecap="round" stroke-linejoin="round" stroke-miterlimit="10" x1="370.917" y1="94.443" x2="370.917" y2="84.818"/>
		<path fill="#FAB88B" d="M331.601,191.83c0-1.712-1.387-3.101-3.1-3.101c-1.712,0-3.099,1.388-3.099,3.101s1.386,3.099,3.099,3.099
			C330.214,194.929,331.601,193.542,331.601,191.83"/>
		<path fill="#FAB88B" d="M416.623,191.83c0-1.712-1.388-3.101-3.101-3.101c-1.712,0-3.1,1.388-3.1,3.101s1.387,3.099,3.1,3.099
			S416.623,193.542,416.623,191.83"/>
		
			<line fill="none" stroke="#8B80FF" stroke-width="3.7654" stroke-linecap="round" stroke-linejoin="round" stroke-miterlimit="10" x1="272.06" y1="352.583" x2="272.06" y2="181.168"/>
		
			<line fill="none" stroke="#8B80FF" stroke-width="3.7654" stroke-linecap="round" stroke-linejoin="round" stroke-miterlimit="10" x1="469.77" y1="352.583" x2="469.77" y2="181.168"/>
		
			<linearGradient id="SVGID_1_" gradientUnits="userSpaceOnUse" x1="304.2476" y1="136.6631" x2="243.2552" y2="136.6631" gradientTransform="matrix(1 0 0 -1 252 374.9297)">
			<stop  offset="0" style="stop-color:#FAB88B"/>
			<stop  offset="0.3229" style="stop-color:#FCD1B5"/>
			<stop  offset="0.7781" style="stop-color:#FEF2EA"/>
			<stop  offset="1" style="stop-color:#FFFFFF"/>
		</linearGradient>
		<path opacity="0.4" fill="url(#SVGID_1_)" enable-background="new    " d="M526.62,172.584v180.001h-41.29V123.949l4.643,1.21
			C511.557,130.79,526.62,150.283,526.62,172.584z"/>
		
			<linearGradient id="SVGID_2_" gradientUnits="userSpaceOnUse" x1="-52.4058" y1="136.5493" x2="-10.1189" y2="136.5493" gradientTransform="matrix(1 0 0 -1 252 374.9297)">
			<stop  offset="0" style="stop-color:#FAB88B"/>
			<stop  offset="0.3229" style="stop-color:#FCD1B5"/>
			<stop  offset="0.7781" style="stop-color:#FEF2EA"/>
			<stop  offset="1" style="stop-color:#FFFFFF"/>
		</linearGradient>
		<path opacity="0.4" fill="url(#SVGID_2_)" enable-background="new    " d="M255.64,124.175v228.41h-40.428V172.584
			c0-22.304,15.06-41.796,36.643-47.425L255.64,124.175z"/>
	</g>
	
		<linearGradient id="SVGID_3_" gradientUnits="userSpaceOnUse" x1="-106.5635" y1="788.9829" x2="17.7247" y2="457.5486" gradientTransform="matrix(1 0 0 1 336 -222.3008)">
		<stop  offset="0" style="stop-color:#8D82FF"/>
		<stop  offset="0.0053" style="stop-color:#8D82FF;stop-opacity:0.9947"/>
		<stop  offset="1" style="stop-color:#8D82FF;stop-opacity:0"/>
	</linearGradient>
	<rect x="-20" y="-11.395" fill="url(#SVGID_3_)" width="768" height="438.488"/>
</g>
</svg>
