<?xml version="1.0" encoding="utf-8"?>
<!-- Generator: Adobe Illustrator 16.0.0, SVG Export Plug-In . SVG Version: 6.00 Build 0)  -->
<!DOCTYPE svg PUBLIC "-//W3C//DTD SVG 1.1//EN" "http://www.w3.org/Graphics/SVG/1.1/DTD/svg11.dtd">
<svg version="1.1" id="Layer_1" xmlns="http://www.w3.org/2000/svg" xmlns:xlink="http://www.w3.org/1999/xlink" x="0px" y="0px"
	 width="768px" height="292.191px" viewBox="0 0 768 292.191" enable-background="new 0 0 768 292.191" xml:space="preserve">
<g>
	<g>
		<path fill="#FFFFFF" d="M503.26,134.625v153h-38.72l-8-121.55v-24.161c0-0.88-0.71-1.6-1.6-1.6c-0.881,0-1.601,0.72-1.601,1.6
			v145.71H288.49v-145.71c0-0.88-0.72-1.6-1.6-1.6c-0.88,0-1.6,0.72-1.6,1.6v24.291l-8,121.42h-38.72v-153
			c0-18.96,12.8-35.53,31.14-40.31l3.22-0.84l47.23-12.32c11.93-3.11,20.25-13.88,20.25-26.21v-4.9h61.01v4.9
			c0,12.33,8.32,23.1,20.25,26.21l46.49,12.13l3.95,1.03C490.46,99.095,503.26,115.665,503.26,134.625z"/>
		<g>
			<g>
				<path fill="#FFFFFF" d="M322.806,31.359c8.148,18.437,26.593,31.302,48.046,31.302h0.204c21.452,0,39.896-12.868,48.044-31.302
					H322.806z"/>
			</g>
		</g>
		<path fill="none" d="M340.413,50.044v4.907c0,12.326-8.321,23.097-20.249,26.208l-50.453,13.159
			c-18.344,4.784-31.142,21.351-31.142,40.307v153h38.72l9.598-145.704v145.704h168.056V141.919l9.599,145.705h38.72V134.623
			c0-18.958-12.803-35.522-31.146-40.309l-50.449-13.158c-11.926-3.11-20.248-13.881-20.248-26.208V50.04L340.413,50.044
			L340.413,50.044z"/>
		
			<path fill="none" stroke="#1D1D1B" stroke-width="3.2006" stroke-linecap="round" stroke-linejoin="round" stroke-miterlimit="10" d="
			M371.656,158.273c0,8.974-7.274,16.248-16.249,16.248h-36.32c-8.974,0-16.249-7.274-16.249-16.248"/>
		
			<path fill="none" stroke="#1D1D1B" stroke-width="3.2006" stroke-linecap="round" stroke-linejoin="round" stroke-miterlimit="10" d="
			M440.473,158.273c0,8.974-7.271,16.248-16.246,16.248h-36.319c-8.971,0-16.247-7.274-16.247-16.248"/>
		
			<line fill="none" stroke="#FAB88B" stroke-width="3.2006" stroke-linecap="round" stroke-linejoin="round" stroke-miterlimit="10" x1="370.917" y1="98.954" x2="370.917" y2="77.374"/>
		
			<line fill="none" stroke="#FAB88B" stroke-width="3.2006" stroke-linecap="round" stroke-linejoin="round" stroke-miterlimit="10" x1="322.604" y1="201.335" x2="419.228" y2="201.335"/>
		
			<line fill="none" stroke="#FAB88B" stroke-width="3.2006" stroke-linecap="round" stroke-linejoin="round" stroke-miterlimit="10" x1="329.773" y1="228.074" x2="361.332" y2="228.074"/>
		
			<line fill="none" stroke="#FAB88B" stroke-width="3.2006" stroke-linecap="round" stroke-linejoin="round" stroke-miterlimit="10" x1="380.498" y1="228.074" x2="412.059" y2="228.074"/>
		
			<line fill="none" stroke="#FAB88B" stroke-width="3.2006" stroke-linecap="round" stroke-linejoin="round" stroke-miterlimit="10" x1="329.773" y1="253.857" x2="361.332" y2="253.857"/>
		
			<line fill="none" stroke="#FAB88B" stroke-width="3.2006" stroke-linecap="round" stroke-linejoin="round" stroke-miterlimit="10" x1="380.498" y1="253.857" x2="412.059" y2="253.857"/>
		
			<line fill="none" stroke="#1D1D1B" stroke-width="3.2006" stroke-linecap="round" stroke-linejoin="round" stroke-miterlimit="10" x1="370.917" y1="68.203" x2="370.917" y2="60.022"/>
		<path fill="#FAB88B" d="M337.499,150.984c0-1.457-1.179-2.638-2.635-2.638c-1.455,0-2.634,1.181-2.634,2.638
			c0,1.455,1.178,2.635,2.634,2.635C336.32,153.619,337.499,152.438,337.499,150.984"/>
		<path fill="#FAB88B" d="M409.768,150.984c0-1.457-1.18-2.638-2.637-2.638c-1.458,0-2.637,1.181-2.637,2.638
			c0,1.455,1.178,2.635,2.637,2.635C408.588,153.616,409.768,152.438,409.768,150.984"/>
		
			<linearGradient id="SVGID_1_" gradientUnits="userSpaceOnUse" x1="-143.5522" y1="952.1296" x2="-195.3961" y2="952.1296" gradientTransform="matrix(1 0 0 1 672 -761.6758)">
			<stop  offset="0" style="stop-color:#FAB88B"/>
			<stop  offset="0.3229" style="stop-color:#FCD1B5"/>
			<stop  offset="0.7781" style="stop-color:#FEF2EA"/>
			<stop  offset="1" style="stop-color:#FFFFFF"/>
		</linearGradient>
		<path opacity="0.4" fill="url(#SVGID_1_)" enable-background="new    " d="M503.265,134.623v153.001h-35.097V93.284l3.946,1.029
			C490.461,99.098,503.265,115.668,503.265,134.623z"/>
		
			<linearGradient id="SVGID_2_" gradientUnits="userSpaceOnUse" x1="-446.7075" y1="952.2263" x2="-410.7634" y2="952.2263" gradientTransform="matrix(1 0 0 1 672 -761.6758)">
			<stop  offset="0" style="stop-color:#FAB88B"/>
			<stop  offset="0.3229" style="stop-color:#FCD1B5"/>
			<stop  offset="0.7781" style="stop-color:#FEF2EA"/>
			<stop  offset="1" style="stop-color:#FFFFFF"/>
		</linearGradient>
		<path opacity="0.4" fill="url(#SVGID_2_)" enable-background="new    " d="M272.932,93.475v194.15h-34.364V134.623
			c0-18.958,12.801-35.526,31.147-40.311L272.932,93.475z"/>
	</g>
</g>
<linearGradient id="SVGID_3_" gradientUnits="userSpaceOnUse" x1="370.9146" y1="197.5955" x2="370.9146" y2="351.596">
	<stop  offset="0.4257" style="stop-color:#8B80FF;stop-opacity:0"/>
	<stop  offset="1" style="stop-color:#8B80FF"/>
</linearGradient>
<path fill="url(#SVGID_3_)" d="M503.26,134.625v153h-38.72l-8-121.55v-24.161c0-0.88-0.71-1.6-1.6-1.6
	c-0.881,0-1.601,0.72-1.601,1.6v145.71H288.49v-145.71c0-0.88-0.72-1.6-1.6-1.6c-0.88,0-1.6,0.72-1.6,1.6v24.291l-8,121.42h-38.72
	v-153c0-18.96,12.8-35.53,31.14-40.31l3.22-0.84l47.23-12.32c11.93-3.11,20.25-13.88,20.25-26.21v-4.9h61.01v4.9
	c0,12.33,8.32,23.1,20.25,26.21l46.49,12.13l3.95,1.03C490.46,99.095,503.26,115.665,503.26,134.625z"/>
</svg>
