<?xml version="1.0" encoding="utf-8"?>
<!-- Generator: Adobe Illustrator 16.0.0, SVG Export Plug-In . SVG Version: 6.00 Build 0)  -->
<!DOCTYPE svg PUBLIC "-//W3C//DTD SVG 1.1//EN" "http://www.w3.org/Graphics/SVG/1.1/DTD/svg11.dtd">
<svg version="1.1" id="Layer_1" xmlns="http://www.w3.org/2000/svg" xmlns:xlink="http://www.w3.org/1999/xlink" x="0px" y="0px"
	 width="768px" height="345.852px" viewBox="0 0 768 345.852" enable-background="new 0 0 768 345.852" xml:space="preserve">
<g>
	<path fill="#FAB88B" d="M441.887,30.988H394.66c0.367-0.711,0.773-1.402,1.208-2.066c1.368-2.112,3.021-4.012,4.91-5.65h34.991
		C438.254,25.426,440.334,28.043,441.887,30.988z"/>
	<g id="Shadows" opacity="0.3">
		<defs>
			<filter id="Adobe_OpacityMaskFilter" filterUnits="userSpaceOnUse" x="327.464" y="17.363" width="95.449" height="61.46">
				<feColorMatrix  type="matrix" values="1 0 0 0 0  0 1 0 0 0  0 0 1 0 0  0 0 0 1 0"/>
			</filter>
		</defs>
		<mask maskUnits="userSpaceOnUse" x="327.464" y="17.363" width="95.449" height="61.46" id="SVGID_6_">
			<g filter="url(#Adobe_OpacityMaskFilter)">
				
					<linearGradient id="SVGID_2_" gradientUnits="userSpaceOnUse" x1="-1173.4014" y1="489.4224" x2="-1172.7554" y2="489.4224" gradientTransform="matrix(-147.7859 0 0 147.7859 -172989.2344 -72281.5781)">
					<stop  offset="0" style="stop-color:#FFFFFF"/>
					<stop  offset="1" style="stop-color:#000000"/>
				</linearGradient>
				<rect x="327.464" y="17.363" fill="url(#SVGID_2_)" width="95.449" height="61.46"/>
			</g>
		</mask>
		
			<linearGradient id="SVGID_3_" gradientUnits="userSpaceOnUse" x1="-532.3564" y1="787.9341" x2="-405.7012" y2="787.9341" gradientTransform="matrix(1 0 0 1 840 -739.8408)">
			<stop  offset="0" style="stop-color:#231F20;stop-opacity:0"/>
			<stop  offset="1" style="stop-color:#231F20"/>
		</linearGradient>
		<rect x="327.464" y="17.363" mask="url(#SVGID_6_)" fill="url(#SVGID_3_)" width="95.449" height="61.46"/>
		<defs>
			<filter id="Adobe_OpacityMaskFilter_1_" filterUnits="userSpaceOnUse" x="249.666" y="78.822" width="127.083" height="196.796">
				<feColorMatrix  type="matrix" values="1 0 0 0 0  0 1 0 0 0  0 0 1 0 0  0 0 0 1 0"/>
			</filter>
		</defs>
		<mask maskUnits="userSpaceOnUse" x="249.666" y="78.822" width="127.083" height="196.796" id="SVGID_4_">
			<g filter="url(#Adobe_OpacityMaskFilter_1_)">
				
					<linearGradient id="SVGID_5_" gradientUnits="userSpaceOnUse" x1="-1173.124" y1="487.6177" x2="-1172.478" y2="487.6177" gradientTransform="matrix(-196.7684 0 0 196.7684 -230457 -95770.5312)">
					<stop  offset="0" style="stop-color:#FFFFFF"/>
					<stop  offset="1" style="stop-color:#000000"/>
				</linearGradient>
				<rect x="249.666" y="78.822" fill="url(#SVGID_5_)" width="127.083" height="196.796"/>
			</g>
		</mask>
		
			<linearGradient id="SVGID_7_" gradientUnits="userSpaceOnUse" x1="-630.9575" y1="917.061" x2="-444.5184" y2="917.061" gradientTransform="matrix(1 0 0 1 840 -739.8408)">
			<stop  offset="0" style="stop-color:#231F20;stop-opacity:0"/>
			<stop  offset="1" style="stop-color:#231F20"/>
		</linearGradient>
		<rect x="249.666" y="78.822" mask="url(#SVGID_4_)" fill="url(#SVGID_7_)" width="127.083" height="196.796"/>
		<defs>
			<filter id="Adobe_OpacityMaskFilter_2_" filterUnits="userSpaceOnUse" x="199.65" y="263.797" width="47.149" height="47.148">
				<feColorMatrix  type="matrix" values="1 0 0 0 0  0 1 0 0 0  0 0 1 0 0  0 0 0 1 0"/>
			</filter>
		</defs>
		<mask maskUnits="userSpaceOnUse" x="199.65" y="263.797" width="47.149" height="47.148" id="SVGID_1_">
			<g filter="url(#Adobe_OpacityMaskFilter_2_)">
				
					<linearGradient id="SVGID_8_" gradientUnits="userSpaceOnUse" x1="-1176.3921" y1="493.5435" x2="-1175.7461" y2="493.5435" gradientTransform="matrix(-73.0054 0 0 73.0054 -85636.2031 -35743.9531)">
					<stop  offset="0" style="stop-color:#FFFFFF"/>
					<stop  offset="1" style="stop-color:#000000"/>
				</linearGradient>
				<rect x="199.65" y="263.797" fill="url(#SVGID_8_)" width="47.149" height="47.148"/>
			</g>
		</mask>
		
			<linearGradient id="SVGID_9_" gradientUnits="userSpaceOnUse" x1="-685.5122" y1="1027.2124" x2="-516.4495" y2="1027.2124" gradientTransform="matrix(1 0 0 1 840 -739.8408)">
			<stop  offset="0" style="stop-color:#231F20;stop-opacity:0"/>
			<stop  offset="1" style="stop-color:#231F20"/>
		</linearGradient>
		<rect x="199.65" y="263.797" mask="url(#SVGID_1_)" fill="url(#SVGID_9_)" width="47.149" height="47.148"/>
	</g>
	<g id="Hand">
		<path fill="#FFFFFF" d="M353.979,78.822h-23.036l-50.785,65.374l0.037,0.036l-6.109,6.109l-1.327,1.328l-11.603,11.602
			l2.032,2.032l12.188-11.018l0.684,0.686l-11.016,12.188l2.031,2.032l12.188-11.017l0.686,0.686l-11.019,12.188l2.032,2.03
			l12.188-11.017l0.685,0.686l-11.016,12.188l2.031,2.03l11.601-11.602l1.328-1.326l0.941-0.943l1.455,6.812
			c0.301,1.411,1.547,2.42,2.99,2.42h0.399V158.25l5.816-5.817l-0.039-0.036l41.047-41.044h42.53v-32.53L353.979,78.822
			L353.979,78.822z"/>
		<path fill="#FFFFFF" d="M540.194,133.029v-2.874h-18.282l0,0h-1.333l3.786-5.844c0.785-1.211,0.616-2.806-0.403-3.826
			l-0.284-0.283l-9.951,9.954h-7.358h-0.863h-89.448v31.728l90.312-12.363h15.546h1.876h16.407v-2.874l-16.407-0.827v-0.969
			l16.407-0.828v-2.875l-16.407-0.826v-0.97l16.407-0.827v-2.873l-16.407-0.827v-0.97L540.194,133.029z"/>
		<polygon fill="#FFFFFF" points="497.311,202.612 497.311,333.391 476.581,333.391 471.711,306.34 453.018,202.612 		"/>
		<polygon fill="#FFFFFF" points="373.985,245.159 373.985,285.398 265.72,285.398 265.72,264.663 292.602,259.821 		"/>
	</g>
	<polygon points="465.784,78.65 378.669,78.65 355.739,202.437 442.854,202.437 	"/>
	<polygon fill="#FAB88B" points="497.375,202.607 392.625,202.607 357.481,202.607 355.685,202.607 339.749,285.778 376.69,285.778 
		385.415,240.236 497.375,240.236 	"/>
	<g>
		<polygon fill="#FFFFFF" points="398.831,78.819 376.045,202.325 372.869,201.745 395.544,78.819 		"/>
	</g>
	<g>
		<polygon fill="#FFFFFF" points="389.646,78.819 366.862,202.325 363.685,201.745 386.361,78.819 		"/>
	</g>
	<path fill="none" stroke="#FAB88B" stroke-width="2.5833" stroke-miterlimit="10" d="M497.375,141.02v31.802
		c0,5.562-4.507,10.067-10.066,10.067h-0.306c-5.559,0-10.062-4.506-10.062-10.067v-13.457c0-7.088-5.745-12.834-12.836-12.834
		h-3.06c-7.088,0-12.833-5.745-12.833-12.834V113.85"/>
	<path fill="#8B80FF" d="M455.3,108.061c0-3.913-3.172-7.085-7.086-7.085c-3.911,0-7.086,3.172-7.086,7.085
		c0,3.912,3.175,7.084,7.086,7.084C452.128,115.145,455.3,111.974,455.3,108.061"/>
	<circle fill="none" stroke="#1F140F" stroke-width="0.6458" stroke-miterlimit="10" cx="448.216" cy="108.061" r="7.084"/>
	<g>
		
			<line fill="none" stroke="#1F140F" stroke-width="3.2293" stroke-miterlimit="10" x1="249.666" y1="263.797" x2="249.666" y2="310.948"/>
	</g>
	<g>
		<polygon fill="#1F140F" points="376.045,202.603 360.7,285.778 357.419,285.778 372.764,202.603 		"/>
	</g>
	<g>
		<polygon fill="#1F140F" points="366.856,202.603 351.51,285.778 348.228,285.778 363.58,202.603 		"/>
	</g>
	<polygon fill="none" points="497.37,202.603 497.37,240.232 385.417,240.232 376.692,285.778 339.749,285.778 355.683,202.603 	"/>
	<polygon points="494.352,129.985 494.352,150.994 500.621,150.135 500.621,129.985 	"/>
	<polygon points="497.311,306.34 497.311,333.391 476.581,333.391 471.711,306.34 	"/>
	<polygon points="292.602,259.821 292.602,285.398 265.72,285.398 265.72,264.663 	"/>
	<polygon fill="#FAB88B" points="253.259,310.948 253.259,263.797 269.901,263.797 269.901,286.26 263.132,310.948 	"/>
	<polygon fill="#FAB88B" points="522.864,345.852 475.713,345.852 475.713,329.208 498.176,329.208 522.864,335.979 	"/>
	
		<linearGradient id="SVGID_10_" gradientUnits="userSpaceOnUse" x1="-402.5059" y1="973.3052" x2="-314.0052" y2="955.5067" gradientTransform="matrix(1 0 0 1 840 -739.8408)">
		<stop  offset="0" style="stop-color:#C2926E"/>
		<stop  offset="1" style="stop-color:#F8B78B"/>
	</linearGradient>
	<polygon opacity="0.3" fill="url(#SVGID_10_)" enable-background="new    " points="385.415,240.236 497.375,240.236 
		497.375,202.607 	"/>
	<path fill="#FFFFFF" d="M449.078,50.227h-4.146v19.821H434.06v8.602h3.233v39.102L398.371,78.65h9.179V67.795
		c-3.993-1.75-7.479-4.461-10.153-7.834c-3.623-4.553-5.787-10.314-5.787-16.58c0-4.468,1.103-8.687,3.054-12.394
		c0.364-0.712,0.771-1.402,1.207-2.066c1.37-2.111,3.021-4.011,4.908-5.65c0.589-0.517,1.208-1.007,1.84-1.466
		c4.397-3.196,9.808-5.083,15.659-5.083c4.652,0,9.03,1.194,12.853,3.293c0.878,0.49,1.733,1.021,2.549,1.602
		c0.729,0.517,1.433,1.066,2.095,1.654c2.482,2.157,4.562,4.772,6.115,7.718c0.535,1.014,1,2.061,1.402,3.144l0.014,0.025
		c0.021,0.051,0.031,0.104,0.051,0.154L449.078,50.227z"/>
	<path fill="#1D1D1B" d="M433.23,35.997c0-1.033-0.836-1.868-1.867-1.868c-1.032,0-1.867,0.836-1.867,1.868
		c0,1.031,0.835,1.866,1.867,1.866C432.395,37.863,433.23,37.028,433.23,35.997"/>
	<path d="M407.307,21.804V59.96H397.4c-3.625-4.553-5.787-10.314-5.787-16.58c0-5.328,1.562-10.295,4.259-14.46
		c1.794-2.771,4.086-5.186,6.748-7.118L407.307,21.804L407.307,21.804z"/>
	<path d="M431.124,20.014c-0.832,5.051-5.218,8.906-10.508,8.906h-24.75c1.795-2.771,4.088-5.186,6.747-7.118
		c4.396-3.196,9.807-5.083,15.658-5.083C422.93,16.721,427.31,17.915,431.124,20.014z"/>
	<rect x="370.274" y="53.376" width="37.033" height="6.583"/>
	<rect x="370.274" y="44.103" width="37.033" height="6.583"/>
</g>
<linearGradient id="SVGID_11_" gradientUnits="userSpaceOnUse" x1="-19.1758" y1="-209.4478" x2="-44.374" y2="-405.5228" gradientTransform="matrix(1 0 0 -1 420 -24.1748)">
	<stop  offset="0.3829" style="stop-color:#8B80FF;stop-opacity:0"/>
	<stop  offset="0.9711" style="stop-color:#8B80FF;stop-opacity:0.9532"/>
	<stop  offset="1" style="stop-color:#8B80FF"/>
</linearGradient>
<path fill="url(#SVGID_11_)" d="M540.199,133.033v-2.88h-19.62l3.79-5.84c0.78-1.21,0.606-2.81-0.41-3.83l-0.28-0.28l-9.948,9.95
	h-13.106v-0.17h-6.271v0.17h-38.108l9.55-51.5h-31.729v-8.61h10.883v-19.82h4.14l-5.729-15.91c-0.021-0.05-0.025-0.1-0.051-0.16
	l-0.01-0.02c-0.4-1.08-0.87-2.13-1.4-3.14c0,0,0,0-0.01-0.01h0.01c-1.56-2.94-3.64-5.56-6.115-7.71
	c-0.674-0.59-1.37-1.14-2.092-1.66c-0.817-0.58-1.682-1.11-2.552-1.6c-0.02-0.01-0.04-0.02-0.05-0.02
	c-3.81-2.09-8.17-3.27-12.81-3.27c-5.854,0-11.264,1.88-15.66,5.08c-0.49,0.36-0.96,0.75-1.434,1.15
	c-0.13,0.11-0.276,0.2-0.406,0.32c0,0,0,0,0,0.01c-0.15,0.12-0.28,0.26-0.434,0.39c-0.396,0.37-0.801,0.75-1.181,1.14
	c-0.189,0.2-0.38,0.4-0.562,0.6c-0.329,0.36-0.656,0.74-0.979,1.13c-0.16,0.19-0.319,0.38-0.47,0.58
	c-0.44,0.57-0.86,1.15-1.251,1.75c-0.01,0.02-0.021,0.03-0.029,0.05c-0.051,0.07-0.092,0.16-0.141,0.23
	c-0.33,0.53-0.649,1.07-0.939,1.62c-0.04,0.07-0.09,0.14-0.13,0.21c-0.16,0.31-0.312,0.63-0.46,0.95
	c-0.051,0.11-0.109,0.21-0.16,0.32c-0.5,1.08-0.92,2.2-1.271,3.36c-0.039,0.12-0.067,0.25-0.107,0.37
	c-0.133,0.45-0.25,0.91-0.359,1.38c-0.027,0.15-0.068,0.3-0.101,0.46c-0.093,0.45-0.183,0.91-0.25,1.37
	c-0.021,0.15-0.052,0.3-0.07,0.45c-0.067,0.51-0.13,1.03-0.17,1.55c-0.013,0.09-0.021,0.18-0.028,0.27
	c-0.041,0.64-0.068,1.27-0.068,1.92c0,0.24,0.021,0.48,0.027,0.72H370.27v6.58h22.371c0.26,0.92,0.58,1.82,0.93,2.69h-23.296v6.59
	h27.13c1.34,1.69,2.88,3.21,4.58,4.52c1.696,1.32,3.576,2.43,5.566,3.31v10.86H378.67l-0.03,0.17h-47.7l-50.78,65.37l0.04,0.04
	l-6.11,6.11l-1.33,1.33l-11.6,11.6l2.03,2.03l12.19-11.021l0.68,0.69l-11.021,12.189l2.04,2.03l12.18-11.021l0.69,0.69
	l-11.02,12.181l2.03,2.029l12.19-11.01l0.69,0.68l-11.02,12.189l2.03,2.031l11.6-11.601l1.33-1.33l0.94-0.94l1.46,6.811
	c0.3,1.41,1.54,2.42,2.99,2.42h0.39v-14.07l5.82-5.82l-0.04-0.04l41.05-41.04h32.22l-17.333,92.679h0.129l-8.816,46.061l-53.99,9.73
	l-22.7,4.09v-0.119h-16.64v47.16h9.87l6.77-24.691v-0.868h69.92l-0.07,0.38h36.94l8.73-45.54h74.38l11.91,66.108l4.12,22.871h-0.12
	v16.639h47.16v-9.869l-24.69-6.77h-0.87v-88.979h0.07v-37.631h-54.723l8.603-45.54l23.021-3.15c0.87,1.62,1.37,3.48,1.37,5.45v13.46
	c0,6.26,5.09,11.359,11.35,11.359h0.311c6.265,0,11.359-5.1,11.359-11.359v-22.25l7.69-1.05h33.83v-2.88l-16.41-0.82v-0.97
	l16.41-0.83v-2.88l-16.41-0.82v-0.97l16.41-0.83v-2.87l-16.41-0.83v-0.97L540.199,133.033z M496.079,172.823
	c0,4.84-3.93,8.77-8.771,8.77h-0.311c-4.83,0-8.771-3.93-8.771-8.77v-13.46c0-2.069-0.46-4.04-1.271-5.819l19.12-2.621v21.9H496.079
	L496.079,172.823z M251.281,310.948h-3.229v-47.15h3.229V310.948z"/>
</svg>
