<?xml version="1.0" encoding="utf-8"?>
<!-- Generator: Adobe Illustrator 16.0.0, SVG Export Plug-In . SVG Version: 6.00 Build 0)  -->
<!DOCTYPE svg PUBLIC "-//W3C//DTD SVG 1.1//EN" "http://www.w3.org/Graphics/SVG/1.1/DTD/svg11.dtd">
<svg version="1.1" id="Layer_1" xmlns="http://www.w3.org/2000/svg" xmlns:xlink="http://www.w3.org/1999/xlink" x="0px" y="0px"
	 width="768px" height="438.486px" viewBox="-20 -11.418 768 438.486" enable-background="new -20 -11.418 768 438.486"
	 xml:space="preserve">
<g>
	<rect x="-20" y="-11.418" fill="#8B80FF" width="768" height="438.486"/>
	<path fill="#FAB88B" d="M391.847,51.398h-47.226c0.368-0.711,0.773-1.402,1.208-2.066c1.368-2.112,3.023-4.012,4.91-5.65h34.991
		C388.215,45.836,390.295,48.453,391.847,51.398z"/>
	<g id="Shadows" opacity="0.5">
		<defs>
			<filter id="Adobe_OpacityMaskFilter" filterUnits="userSpaceOnUse" x="277.425" y="37.773" width="95.449" height="61.46">
				<feColorMatrix  type="matrix" values="1 0 0 0 0  0 1 0 0 0  0 0 1 0 0  0 0 0 1 0"/>
			</filter>
		</defs>
		<mask maskUnits="userSpaceOnUse" x="277.425" y="37.773" width="95.449" height="61.46" id="SVGID_6_">
			<g filter="url(#Adobe_OpacityMaskFilter)">
				
					<linearGradient id="SVGID_2_" gradientUnits="userSpaceOnUse" x1="-599.5957" y1="532.0615" x2="-598.9497" y2="532.0615" gradientTransform="matrix(-147.7859 0 0 147.7859 -88238.8984 -78562.75)">
					<stop  offset="0" style="stop-color:#FFFFFF"/>
					<stop  offset="1" style="stop-color:#000000"/>
				</linearGradient>
				<rect x="277.425" y="37.773" fill="url(#SVGID_2_)" width="95.449" height="61.46"/>
			</g>
		</mask>
		
			<linearGradient id="SVGID_3_" gradientUnits="userSpaceOnUse" x1="-78.3955" y1="290.8037" x2="93.9453" y2="290.8037" gradientTransform="matrix(1 0 0 1 336 -222.2998)">
			<stop  offset="0" style="stop-color:#8B80FF"/>
			<stop  offset="1" style="stop-color:#453E66"/>
		</linearGradient>
		<rect x="277.425" y="37.773" mask="url(#SVGID_6_)" fill="url(#SVGID_3_)" width="95.449" height="61.46"/>
		<defs>
			<filter id="Adobe_OpacityMaskFilter_1_" filterUnits="userSpaceOnUse" x="199.627" y="99.232" width="127.083" height="196.796">
				<feColorMatrix  type="matrix" values="1 0 0 0 0  0 1 0 0 0  0 0 1 0 0  0 0 0 1 0"/>
			</filter>
		</defs>
		<mask maskUnits="userSpaceOnUse" x="199.627" y="99.232" width="127.083" height="196.796" id="SVGID_4_">
			<g filter="url(#Adobe_OpacityMaskFilter_1_)">
				
					<linearGradient id="SVGID_5_" gradientUnits="userSpaceOnUse" x1="-599.519" y1="531.1729" x2="-598.8735" y2="531.1729" gradientTransform="matrix(-196.7684 0 0 196.7684 -117639.75 -104320.3906)">
					<stop  offset="0" style="stop-color:#FFFFFF"/>
					<stop  offset="1" style="stop-color:#000000"/>
				</linearGradient>
				<rect x="199.627" y="99.232" fill="url(#SVGID_5_)" width="127.083" height="196.796"/>
			</g>
		</mask>
		
			<linearGradient id="SVGID_7_" gradientUnits="userSpaceOnUse" x1="-176.9966" y1="419.9307" x2="83.771" y2="419.9307" gradientTransform="matrix(1 0 0 1 336 -222.2998)">
			<stop  offset="0" style="stop-color:#8B80FF"/>
			<stop  offset="1" style="stop-color:#453E66"/>
		</linearGradient>
		<rect x="199.627" y="99.232" mask="url(#SVGID_4_)" fill="url(#SVGID_7_)" width="127.083" height="196.796"/>
		<defs>
			<filter id="Adobe_OpacityMaskFilter_2_" filterUnits="userSpaceOnUse" x="149.611" y="284.208" width="47.149" height="47.147">
				<feColorMatrix  type="matrix" values="1 0 0 0 0  0 1 0 0 0  0 0 1 0 0  0 0 0 1 0"/>
			</filter>
		</defs>
		<mask maskUnits="userSpaceOnUse" x="149.611" y="284.208" width="47.149" height="47.147" id="SVGID_1_">
			<g filter="url(#Adobe_OpacityMaskFilter_2_)">
				
					<linearGradient id="SVGID_8_" gradientUnits="userSpaceOnUse" x1="-601.7622" y1="532.416" x2="-601.1167" y2="532.416" gradientTransform="matrix(-73.0054 0 0 73.0054 -43735.1875 -38561.4922)">
					<stop  offset="0" style="stop-color:#FFFFFF"/>
					<stop  offset="1" style="stop-color:#000000"/>
				</linearGradient>
				<rect x="149.611" y="284.208" fill="url(#SVGID_8_)" width="47.149" height="47.147"/>
			</g>
		</mask>
		
			<linearGradient id="SVGID_9_" gradientUnits="userSpaceOnUse" x1="-231.5513" y1="530.0811" x2="-101.9128" y2="530.0811" gradientTransform="matrix(1 0 0 1 336 -222.2998)">
			<stop  offset="0" style="stop-color:#8B80FF"/>
			<stop  offset="1" style="stop-color:#453E66"/>
		</linearGradient>
		<rect x="149.611" y="284.208" mask="url(#SVGID_1_)" fill="url(#SVGID_9_)" width="47.149" height="47.147"/>
	</g>
	<g id="Hand">
		<path fill="#FFFFFF" d="M303.94,99.232h-23.036l-50.785,65.374l0.037,0.036l-6.109,6.109l-1.327,1.328l-11.603,11.602l2.032,2.033
			l12.188-11.018l0.684,0.685l-11.016,12.188l2.031,2.032l12.188-11.017l0.686,0.686l-11.019,12.187l2.032,2.031l12.188-11.017
			l0.685,0.686l-11.016,12.188l2.031,2.031l11.601-11.602l1.328-1.327l0.941-0.943l1.455,6.812c0.301,1.411,1.547,2.42,2.99,2.42
			h0.399v-14.076l5.816-5.816l-0.039-0.036l41.047-41.044h42.53V99.234L303.94,99.232L303.94,99.232z"/>
		<path fill="#FFFFFF" d="M490.155,153.439v-2.874h-18.282l0,0h-1.333l3.786-5.844c0.785-1.211,0.616-2.806-0.403-3.826
			l-0.284-0.283l-9.952,9.954h-7.363h-0.863h-89.449v31.727l90.31-12.363h15.546h1.876h16.407v-2.874l-16.407-0.827v-0.969
			l16.407-0.828v-2.875l-16.407-0.826v-0.97l16.407-0.827v-2.873l-16.407-0.827v-0.97L490.155,153.439z"/>
		<polygon fill="#FFFFFF" points="447.272,223.023 447.272,353.801 426.542,353.801 421.672,326.75 402.979,223.023 		"/>
		<polygon fill="#FFFFFF" points="323.946,265.569 323.946,305.808 215.681,305.808 215.681,285.073 242.563,280.231 		"/>
	</g>
	<polygon points="415.745,99.06 328.63,99.06 305.7,222.846 392.815,222.846 	"/>
	<polygon fill="#FAB88B" points="447.336,223.017 342.586,223.017 307.442,223.017 305.646,223.017 289.71,306.187 326.651,306.187 
		335.376,260.645 447.336,260.645 	"/>
	<g>
		<polygon fill="#FFFFFF" points="348.792,99.229 326.006,222.736 322.83,222.155 345.505,99.229 		"/>
	</g>
	<g>
		<polygon fill="#FFFFFF" points="339.607,99.229 316.823,222.736 313.646,222.155 336.322,99.229 		"/>
	</g>
	<path fill="none" stroke="#FAB88B" stroke-width="2.5833" stroke-miterlimit="10" d="M447.336,161.43v31.802
		c0,5.561-4.507,10.067-10.066,10.067h-0.306c-5.559,0-10.064-4.506-10.064-10.067v-13.457c0-7.088-5.745-12.834-12.835-12.834
		h-3.055c-7.088,0-12.833-5.745-12.833-12.834V134.26"/>
	<path fill="#8B80FF" d="M405.261,128.471c0-3.913-3.172-7.085-7.086-7.085c-3.911,0-7.086,3.172-7.086,7.085
		c0,3.912,3.175,7.084,7.086,7.084C402.089,135.555,405.261,132.384,405.261,128.471"/>
	<circle fill="none" stroke="#1F140F" stroke-width="0.6458" stroke-miterlimit="10" cx="398.177" cy="128.471" r="7.084"/>
	<g>
		
			<line fill="none" stroke="#1F140F" stroke-width="3.2293" stroke-miterlimit="10" x1="199.627" y1="284.208" x2="199.627" y2="331.358"/>
	</g>
	<g>
		<polygon fill="#1F140F" points="326.006,223.013 310.661,306.187 307.38,306.187 322.725,223.013 		"/>
	</g>
	<g>
		<polygon fill="#1F140F" points="316.817,223.013 301.471,306.187 298.189,306.187 313.541,223.013 		"/>
	</g>
	<polygon fill="none" points="447.331,223.013 447.331,260.641 335.378,260.641 326.653,306.187 289.71,306.187 305.644,223.013 	
		"/>
	<polygon points="444.312,150.395 444.312,171.404 450.582,170.545 450.582,150.395 	"/>
	<polygon points="447.272,326.75 447.272,353.801 426.542,353.801 421.672,326.75 	"/>
	<polygon points="242.563,280.231 242.563,305.808 215.681,305.808 215.681,285.073 	"/>
	<polygon fill="#FAB88B" points="203.22,331.358 203.22,284.208 219.862,284.208 219.862,306.671 213.093,331.358 	"/>
	<polygon fill="#FAB88B" points="472.825,366.263 425.674,366.263 425.674,349.618 448.137,349.618 472.825,356.389 	"/>
	
		<linearGradient id="SVGID_10_" gradientUnits="userSpaceOnUse" x1="51.4551" y1="476.1729" x2="139.9539" y2="458.3748" gradientTransform="matrix(1 0 0 1 336 -222.2998)">
		<stop  offset="0" style="stop-color:#C2926E"/>
		<stop  offset="1" style="stop-color:#F8B78B"/>
	</linearGradient>
	<polygon opacity="0.3" fill="url(#SVGID_10_)" enable-background="new    " points="335.376,260.645 447.336,260.645 
		447.336,223.017 	"/>
	<path fill="#FFFFFF" d="M399.039,70.637h-4.142v19.821h-10.874v8.602h3.234v39.102L348.332,99.06h9.179V88.205
		c-3.994-1.75-7.48-4.461-10.154-7.834c-3.623-4.553-5.788-10.314-5.788-16.58c0-4.468,1.1-8.687,3.051-12.394
		c0.368-0.712,0.773-1.402,1.207-2.066c1.37-2.111,3.023-4.011,4.908-5.65c0.589-0.517,1.208-1.007,1.84-1.466
		c4.401-3.196,9.808-5.083,15.659-5.083c4.656,0,9.034,1.194,12.853,3.293c0.878,0.49,1.733,1.021,2.549,1.602
		c0.726,0.517,1.429,1.066,2.092,1.654c2.485,2.157,4.565,4.772,6.117,7.718c0.536,1.014,1,2.061,1.403,3.144l0.013,0.025
		c0.019,0.051,0.032,0.104,0.05,0.154L399.039,70.637z"/>
	<path fill="#1D1D1B" d="M383.191,56.407c0-1.033-0.835-1.868-1.867-1.868s-1.867,0.836-1.867,1.868
		c0,1.031,0.835,1.866,1.867,1.866S383.191,57.438,383.191,56.407"/>
	<path d="M357.267,42.214v38.156h-9.908c-3.623-4.553-5.786-10.314-5.786-16.58c0-5.328,1.563-10.295,4.258-14.46
		c1.794-2.771,4.086-5.186,6.748-7.118L357.267,42.214L357.267,42.214z"/>
	<path d="M381.085,40.424c-0.832,5.051-5.218,8.906-10.508,8.906h-24.75c1.795-2.771,4.088-5.186,6.747-7.118
		c4.4-3.196,9.807-5.083,15.658-5.083C372.89,37.131,377.27,38.325,381.085,40.424z"/>
	<rect x="320.235" y="73.786" width="37.032" height="6.583"/>
	<rect x="320.235" y="64.513" width="37.032" height="6.583"/>
	
		<linearGradient id="SVGID_11_" gradientUnits="userSpaceOnUse" x1="-68.1929" y1="686.6377" x2="41.9462" y2="392.9344" gradientTransform="matrix(1 0 0 1 336 -222.2998)">
		<stop  offset="0" style="stop-color:#8D82FF"/>
		<stop  offset="0.0053" style="stop-color:#8D82FF;stop-opacity:0.9947"/>
		<stop  offset="1" style="stop-color:#8D82FF;stop-opacity:0"/>
	</linearGradient>
	<rect x="-20" y="-11.418" fill="url(#SVGID_11_)" width="768" height="438.486"/>
</g>
</svg>
